<svg width="1130" height="552" fill="none" xmlns="http://www.w3.org/2000/svg"><path d="M733.296 41.493c12.273-20.778 27.747-31.343 40.782-36.93-1.028 1.733-1.826 3.841-1.879 6.756C775.755 6.991 780.85 3.266 787.97 0c.388 9.282-3.09 19.076-5.232 25.108l-.071.2C776.9 38.62 770.709 52.906 765.86 63.075l-4.845 8.817c-3.693 6.598-12.283 14.085-21.411 13.003-9.128-1.081-12.568-7.613-13.799-10.107-2.438-4.937-4.268-13.389 7.491-33.295zM1075.3 177.507c12.27 20.778 27.74 31.343 40.78 36.93-1.03-1.733-1.83-3.841-1.88-6.756 3.56 4.328 8.65 8.053 15.77 11.319.39-9.282-3.09-19.076-5.23-25.108l-.07-.2c-5.77-13.312-11.96-27.598-16.81-37.767l-4.84-8.817c-3.7-6.598-12.29-14.085-21.42-13.003-9.12 1.082-12.56 7.613-13.8 10.107-2.43 4.937-4.26 13.389 7.5 33.295zM9.547 510.423c12.405 20.526 27.96 30.913 41.046 36.379-1.04-1.712-1.85-3.798-1.919-6.686 3.586 4.27 8.709 7.934 15.857 11.132.338-9.202-3.198-18.891-5.376-24.857l-.073-.198c-5.848-13.162-12.127-27.288-17.038-37.34l-4.9-8.713c-3.736-6.519-12.38-13.892-21.515-12.77-9.137 1.122-12.546 7.615-13.766 10.094-2.414 4.906-4.202 13.293 7.684 32.959z" opacity=".5" fill="#fff"/></svg>