<svg width="1656" height="593" fill="none" xmlns="http://www.w3.org/2000/svg"><path d="M844.152 363.076c-1.289 1.362-2.679 2.921-4.174 4.61-2.71 2.969-5.528 6.021-8.356 9.072-1.22-2.771.243-8.949 2.411-11.857-2.814 2.163-4.753 5.359-6.883 8.871-1.302 2.145-2.674 4.409-4.362 6.626-3.909 5.136-8.757 11.202-18.894 14.602-2.666-14.218-.29-42.627 19.928-72.18l4.123-5.063c4.362-5.758 11.332-7.712 16.206-7.757 7.42.207 12.089 4.102 14.747 8.45 4.381 7.642 7.629 17.328-3.213 31.14-2.978 3.793-7.004 8.441-11.533 13.486zm792.998 198c-1.29 1.363-2.68 2.921-4.17 4.61-2.71 2.969-5.53 6.021-8.36 9.072-1.22-2.771.24-8.949 2.41-11.857-2.81 2.163-4.75 5.359-6.88 8.871-1.3 2.145-2.67 4.409-4.36 6.626-3.91 5.136-8.76 11.202-18.9 14.602-2.66-14.218-.29-42.627 19.93-72.18l4.12-5.063c4.37-5.758 11.34-7.712 16.21-7.757 7.42.207 12.09 4.102 14.75 8.45 4.38 7.642 7.63 17.328-3.22 31.14-2.97 3.793-7 8.441-11.53 13.486zM41.152 31.924c-1.29-1.363-2.68-2.921-4.174-4.61-2.71-2.97-5.528-6.021-8.356-9.072-1.22 2.77.243 8.949 2.41 11.857-2.813-2.163-4.752-5.359-6.882-8.87-1.302-2.146-2.674-4.41-4.362-6.627C15.878 9.466 11.031 3.4.894 0c-2.666 14.218-.29 42.627 19.928 72.18l4.123 5.063C29.306 83 36.276 84.955 41.15 85c7.42-.207 12.09-4.102 14.747-8.45 4.381-7.642 7.628-17.328-3.214-31.14-2.977-3.793-7.003-8.44-11.532-13.486z" opacity=".5" fill="#fff"/></svg>