<svg width="1725" height="1303" fill="none" xmlns="http://www.w3.org/2000/svg"><g opacity=".5"><path d="M59.205 36.335c-1.854-1.544-3.855-3.311-6.005-5.224a2023.212 2023.212 0 00-12.022-10.282c-1.755 3.14.35 10.142 3.469 13.438-4.049-2.451-6.838-6.074-9.903-10.054-1.872-2.431-3.847-4.997-6.275-7.51C22.845 10.884 15.871 4.009 1.287.156-2.55 16.27.869 48.466 29.957 81.959l5.93 5.738c6.277 6.526 16.304 8.74 23.316 8.791 10.676-.235 17.394-4.648 21.217-9.576 6.304-8.662 10.975-19.638-4.623-35.292-4.284-4.3-10.078-9.57-16.594-15.287l.002.003zM186.058 257.76c-18.563-6.18-40.599-17.867-58.078-40.85-16.746-22.019-14.139-31.368-10.669-36.829 1.754-2.758 6.653-9.983 19.652-11.18 13-1.196 25.232 7.085 30.492 14.383l6.9 9.754c6.905 11.248 15.722 27.05 23.935 41.775l.101.221c3.05 6.672 8.004 17.506 7.451 27.773-10.139-3.613-17.395-7.733-22.459-12.52.074 3.224 1.211 5.556 2.675 7.473zm176.97-197.453c-1.854 1.545-3.854 3.311-6.005 5.225a1997.485 1997.485 0 01-12.022 10.281c-1.755-3.14.35-10.141 3.469-13.437-4.049 2.45-6.838 6.073-9.903 10.053-1.872 2.432-3.847 4.997-6.275 7.51-5.624 5.82-12.598 12.695-27.182 16.549-3.837-16.114-.418-48.31 28.67-81.803l5.931-5.738c6.277-6.527 16.303-8.74 23.315-8.792 10.676.235 17.394 4.649 21.217 9.577 6.304 8.661 10.976 19.638-4.623 35.291-4.284 4.3-10.078 9.57-16.594 15.287l.002-.003zM489.881 257.76c-18.562-6.18-40.599-17.867-58.078-40.85-16.746-22.019-14.139-31.368-10.668-36.829 1.753-2.758 6.652-9.983 19.651-11.18 13-1.196 25.232 7.085 30.492 14.383l6.9 9.754c6.905 11.248 15.722 27.05 23.935 41.775l.101.221c3.051 6.672 8.004 17.506 7.451 27.773-10.139-3.613-17.395-7.733-22.459-12.52.074 3.224 1.211 5.556 2.675 7.473zm176.97-221.425c-1.854-1.544-3.854-3.311-6.005-5.224a2001.127 2001.127 0 00-12.022-10.282c-1.755 3.14.35 10.142 3.469 13.438-4.049-2.451-6.838-6.074-9.902-10.054-1.873-2.431-3.848-4.997-6.276-7.51-5.624-5.82-12.598-12.695-27.182-16.548-3.837 16.114-.418 48.31 28.67 81.803l5.931 5.738c6.277 6.526 16.303 8.74 23.315 8.791 10.677-.235 17.394-4.648 21.218-9.576 6.303-8.662 10.975-19.638-4.624-35.292-4.284-4.3-10.078-9.57-16.594-15.287l.002.003zM793.705 257.76c-18.563-6.18-40.6-17.867-58.079-40.85-16.746-22.019-14.139-31.368-10.668-36.829 1.753-2.758 6.652-9.983 19.651-11.18 13-1.196 25.233 7.085 30.492 14.383l6.9 9.754c6.905 11.248 15.722 27.05 23.935 41.775l.102.221c3.05 6.672 8.003 17.506 7.45 27.773-10.139-3.613-17.395-7.733-22.459-12.52.074 3.224 1.211 5.556 2.676 7.473zm176.97-221.425c-1.855-1.544-3.855-3.311-6.006-5.224a2001.127 2001.127 0 00-12.022-10.282c-1.755 3.14.35 10.142 3.469 13.438-4.049-2.451-6.838-6.074-9.902-10.054-1.873-2.431-3.848-4.997-6.276-7.51-5.624-5.82-12.598-12.695-27.182-16.548-3.837 16.114-.418 48.31 28.67 81.803l5.931 5.738c6.277 6.526 16.303 8.74 23.315 8.791 10.677-.235 17.394-4.648 21.218-9.576 6.303-8.662 10.97-19.638-4.624-35.292-4.284-4.3-10.077-9.57-16.594-15.287l.003.003zm126.855 133.304c-18.57 6.179-40.6 17.866-58.08 40.849-16.75 22.02-14.14 31.369-10.67 36.829 1.75 2.759 6.65 9.984 19.65 11.18 13 1.197 25.23-7.085 30.49-14.383l6.9-9.753c6.91-11.249 15.73-27.051 23.94-41.776.03-.073.07-.147.1-.221 3.05-6.671 8-17.505 7.45-27.773-10.14 3.613-17.39 7.733-22.46 12.521.08-3.224 1.21-5.557 2.68-7.473zM1274.5 36.335c-1.86-1.544-3.86-3.311-6.01-5.224-3.9-3.366-7.95-6.825-12.02-10.282-1.75 3.14.35 10.142 3.47 13.438-4.05-2.451-6.84-6.074-9.9-10.054-1.88-2.431-3.85-4.997-6.28-7.51-5.62-5.82-12.6-12.695-27.18-16.548-3.84 16.114-.42 48.31 28.67 81.803l5.93 5.738c6.28 6.526 16.3 8.74 23.32 8.791 10.67-.235 17.39-4.648 21.21-9.576 6.31-8.662 10.98-19.638-4.62-35.292-4.28-4.3-10.08-9.57-16.59-15.287v.003zm126.85 221.425c-18.56-6.18-40.6-17.867-58.08-40.85-16.74-22.019-14.14-31.368-10.67-36.829 1.76-2.758 6.66-9.983 19.66-11.18 12.99-1.196 25.23 7.085 30.49 14.383l6.9 9.754c6.9 11.248 15.72 27.05 23.93 41.775.04.073.07.147.1.221 3.05 6.672 8.01 17.506 7.45 27.773-10.13-3.613-17.39-7.733-22.46-12.52.08 3.224 1.22 5.556 2.68 7.473zm176.97-197.453c-1.85 1.545-3.85 3.311-6 5.225-3.9 3.365-7.96 6.824-12.03 10.281-1.75-3.14.35-10.141 3.47-13.437-4.05 2.45-6.84 6.073-9.9 10.053-1.87 2.432-3.85 4.997-6.28 7.51-5.62 5.82-12.59 12.695-27.18 16.549-3.83-16.114-.42-48.31 28.67-81.803l5.93-5.738c6.28-6.527 16.31-8.74 23.32-8.792 10.67.235 17.39 4.649 21.22 9.577 6.3 8.661 10.97 19.638-4.63 35.291-4.28 4.3-10.08 9.57-16.59 15.287v-.003zm126.85 197.453c-18.56-6.18-40.6-17.867-58.07-40.85-16.75-22.019-14.14-31.368-10.67-36.829 1.75-2.758 6.65-9.983 19.65-11.18 13-1.196 25.23 7.085 30.49 14.383l6.9 9.754c6.91 11.248 15.72 27.05 23.94 41.775.03.073.06.147.1.221 3.05 6.672 8 17.506 7.45 27.773-10.14-3.613-17.4-7.733-22.46-12.52.07 3.224 1.21 5.556 2.67 7.473zM59.205 390.278c-1.854-1.544-3.855-3.311-6.005-5.224a2008.267 2008.267 0 00-12.022-10.282c-1.755 3.14.35 10.142 3.469 13.438-4.049-2.451-6.838-6.074-9.903-10.054-1.872-2.431-3.847-4.997-6.275-7.509-5.624-5.821-12.598-12.695-27.182-16.549-3.837 16.114-.418 48.31 28.67 81.803l5.93 5.738c6.277 6.526 16.304 8.74 23.316 8.791 10.676-.235 17.394-4.648 21.217-9.576 6.304-8.662 10.975-19.638-4.623-35.292-4.284-4.299-10.078-9.57-16.594-15.287l.002.003zm126.853 133.304c-18.563 6.179-40.599 17.866-58.078 40.849-16.746 22.02-14.139 31.369-10.669 36.829 1.754 2.759 6.653 9.984 19.652 11.18 13 1.197 25.232-7.085 30.492-14.383l6.9-9.753c6.905-11.249 15.722-27.051 23.935-41.776l.101-.221c3.05-6.671 8.004-17.505 7.451-27.773-10.139 3.613-17.395 7.733-22.459 12.521.074-3.224 1.211-5.557 2.675-7.473zm176.97-133.304c-1.854-1.544-3.854-3.311-6.005-5.224a1986.504 1986.504 0 00-12.022-10.282c-1.755 3.14.35 10.142 3.469 13.438-4.049-2.451-6.838-6.074-9.903-10.054-1.872-2.431-3.847-4.997-6.275-7.509-5.624-5.821-12.598-12.695-27.182-16.549-3.837 16.114-.418 48.31 28.67 81.803l5.931 5.738c6.277 6.526 16.303 8.74 23.315 8.791 10.676-.235 17.394-4.648 21.217-9.576 6.304-8.662 10.976-19.638-4.623-35.292-4.284-4.299-10.078-9.57-16.594-15.287l.002.003zm126.853 221.425c-18.562-6.18-40.599-17.867-58.078-40.85-16.746-22.019-14.139-31.368-10.668-36.829 1.753-2.758 6.652-9.983 19.651-11.18 13-1.196 25.232 7.085 30.492 14.383l6.9 9.754c6.905 11.248 15.722 27.05 23.935 41.775l.101.222c3.051 6.671 8.004 17.505 7.451 27.772-10.139-3.613-17.395-7.733-22.459-12.52.074 3.224 1.211 5.556 2.675 7.473zm176.97-197.455c-1.854 1.545-3.854 3.312-6.005 5.225a1951.443 1951.443 0 01-12.022 10.281c-1.755-3.139.35-10.141 3.469-13.437-4.049 2.451-6.838 6.073-9.902 10.053-1.873 2.432-3.848 4.997-6.276 7.51-5.624 5.821-12.598 12.695-27.182 16.549-3.837-16.114-.418-48.311 28.67-81.803l5.931-5.738c6.277-6.526 16.303-8.74 23.315-8.791 10.677.235 17.394 4.648 21.218 9.576 6.303 8.661 10.975 19.638-4.624 35.291-4.284 4.3-10.078 9.57-16.594 15.287l.002-.003zm126.854 197.455c-18.563-6.18-40.6-17.867-58.079-40.85-16.746-22.019-14.139-31.368-10.668-36.829 1.753-2.758 6.652-9.983 19.651-11.18 13-1.196 25.233 7.085 30.492 14.383l6.9 9.754c6.905 11.248 15.722 27.05 23.935 41.775l.102.222c3.05 6.671 8.003 17.505 7.45 27.772-10.139-3.613-17.395-7.733-22.459-12.52.074 3.224 1.211 5.556 2.676 7.473zm176.97-221.425c-1.855-1.544-3.855-3.311-6.006-5.224a1986.504 1986.504 0 00-12.022-10.282c-1.755 3.14.35 10.142 3.469 13.438-4.049-2.451-6.838-6.074-9.902-10.054-1.873-2.431-3.848-4.997-6.276-7.509-5.624-5.821-12.598-12.695-27.182-16.549-3.837 16.114-.418 48.31 28.67 81.803l5.931 5.738c6.277 6.526 16.303 8.74 23.315 8.791 10.677-.235 17.394-4.648 21.218-9.576 6.303-8.662 10.97-19.638-4.624-35.292-4.284-4.299-10.077-9.57-16.594-15.287l.003.003zm126.855 221.425c-18.57-6.18-40.6-17.867-58.08-40.85-16.75-22.019-14.14-31.368-10.67-36.829 1.75-2.758 6.65-9.983 19.65-11.18 13-1.196 25.23 7.085 30.49 14.383l6.9 9.754c6.91 11.248 15.73 27.05 23.94 41.775.03.073.07.147.1.222 3.05 6.671 8 17.505 7.45 27.772-10.14-3.613-17.39-7.733-22.46-12.52.08 3.224 1.21 5.556 2.68 7.473zm176.97-221.425c-1.86-1.544-3.86-3.311-6.01-5.224-3.9-3.366-7.95-6.825-12.02-10.282-1.75 3.14.35 10.142 3.47 13.438-4.05-2.451-6.84-6.074-9.9-10.054-1.88-2.431-3.85-4.997-6.28-7.509-5.62-5.821-12.6-12.695-27.18-16.549-3.84 16.114-.42 48.31 28.67 81.803l5.93 5.738c6.28 6.526 16.3 8.74 23.32 8.791 10.67-.235 17.39-4.648 21.21-9.576 6.31-8.662 10.98-19.638-4.62-35.292-4.28-4.299-10.08-9.57-16.59-15.287v.003zm126.85 133.304c-18.56 6.179-40.6 17.866-58.08 40.849-16.74 22.02-14.14 31.369-10.67 36.829 1.76 2.759 6.66 9.984 19.66 11.18 12.99 1.197 25.23-7.085 30.49-14.383l6.9-9.753c6.9-11.249 15.72-27.051 23.93-41.776.04-.073.07-.147.1-.221 3.05-6.671 8.01-17.505 7.45-27.773-10.13 3.613-17.39 7.733-22.46 12.521.08-3.224 1.22-5.557 2.68-7.473zm176.97-133.304c-1.85-1.544-3.85-3.311-6-5.224-3.9-3.366-7.96-6.825-12.03-10.282-1.75 3.14.35 10.142 3.47 13.438-4.05-2.451-6.84-6.074-9.9-10.054-1.87-2.431-3.85-4.997-6.28-7.509-5.62-5.821-12.59-12.695-27.18-16.549-3.83 16.114-.42 48.31 28.67 81.803l5.93 5.738c6.28 6.526 16.31 8.74 23.32 8.791 10.67-.235 17.39-4.648 21.22-9.576 6.3-8.662 10.97-19.638-4.63-35.292-4.28-4.299-10.08-9.57-16.59-15.287v.003zm126.85 221.425c-18.56-6.18-40.6-17.867-58.07-40.85-16.75-22.019-14.14-31.368-10.67-36.829 1.75-2.758 6.65-9.983 19.65-11.18 13-1.196 25.23 7.085 30.49 14.383l6.9 9.754c6.91 11.248 15.72 27.05 23.94 41.775.03.073.06.147.1.222 3.05 6.671 8 17.505 7.45 27.772-10.14-3.613-17.4-7.733-22.46-12.52.07 3.224 1.21 5.556 2.67 7.473zM59.205 722.068c-1.854-1.545-3.855-3.311-6.005-5.225a2045.985 2045.985 0 00-12.022-10.281c-1.755 3.139.35 10.141 3.469 13.437-4.049-2.45-6.838-6.073-9.903-10.053-1.872-2.432-3.847-4.997-6.275-7.51-5.624-5.821-12.598-12.695-27.182-16.548-3.837 16.113-.418 48.31 28.67 81.803l5.93 5.737c6.277 6.527 16.304 8.74 23.316 8.792 10.676-.235 17.394-4.649 21.217-9.577 6.304-8.661 10.975-19.638-4.623-35.291-4.284-4.3-10.078-9.57-16.594-15.287l.002.003zm126.853 221.425c-18.563-6.18-40.599-17.867-58.078-40.85-16.746-22.02-14.139-31.369-10.669-36.829 1.754-2.759 6.653-9.984 19.652-11.18 13-1.197 25.232 7.085 30.492 14.383l6.9 9.753c6.905 11.249 15.722 27.051 23.935 41.776l.101.221c3.05 6.672 8.004 17.505 7.451 27.773-10.139-3.613-17.395-7.733-22.459-12.521.074 3.224 1.211 5.557 2.675 7.474zm176.97-197.453c-1.854 1.544-3.854 3.311-6.005 5.224a1986.504 1986.504 0 01-12.022 10.282c-1.755-3.14.35-10.142 3.469-13.438-4.049 2.451-6.838 6.074-9.903 10.054-1.872 2.432-3.847 4.997-6.275 7.509-5.624 5.822-12.598 12.696-27.182 16.549-3.837-16.114-.418-48.31 28.67-81.803l5.931-5.738c6.277-6.526 16.303-8.74 23.315-8.791 10.676.235 17.394 4.649 21.217 9.576 6.304 8.662 10.976 19.638-4.623 35.292-4.284 4.299-10.078 9.57-16.594 15.287l.002-.003zm126.853 197.453c-18.562-6.18-40.599-17.867-58.078-40.85-16.746-22.02-14.139-31.369-10.668-36.829 1.753-2.759 6.652-9.984 19.651-11.18 13-1.197 25.232 7.085 30.492 14.383l6.9 9.753c6.905 11.249 15.722 27.051 23.935 41.776l.101.221c3.051 6.672 8.004 17.505 7.451 27.773-10.139-3.613-17.395-7.733-22.459-12.521.074 3.224 1.211 5.557 2.675 7.474zm176.97-221.425c-1.854-1.545-3.854-3.311-6.005-5.225a2023.402 2023.402 0 00-12.022-10.281c-1.755 3.139.35 10.141 3.469 13.437-4.049-2.45-6.838-6.073-9.902-10.053-1.873-2.432-3.848-4.997-6.276-7.51-5.624-5.821-12.598-12.695-27.182-16.548-3.837 16.113-.418 48.31 28.67 81.803l5.931 5.737c6.277 6.527 16.303 8.74 23.315 8.792 10.677-.235 17.394-4.649 21.218-9.577 6.303-8.661 10.975-19.638-4.624-35.291-4.284-4.3-10.078-9.57-16.594-15.287l.002.003zm126.854 221.425c-18.563-6.18-40.6-17.867-58.079-40.85-16.746-22.02-14.139-31.369-10.668-36.829 1.753-2.759 6.652-9.984 19.651-11.18 13-1.197 25.233 7.085 30.492 14.383l6.9 9.753c6.905 11.249 15.722 27.051 23.935 41.776l.102.221c3.05 6.672 8.003 17.505 7.45 27.773-10.139-3.613-17.395-7.733-22.459-12.521.074 3.224 1.211 5.557 2.676 7.474zm176.97-221.425c-1.855-1.545-3.855-3.311-6.006-5.225a2023.402 2023.402 0 00-12.022-10.281c-1.755 3.139.35 10.141 3.469 13.437-4.049-2.45-6.838-6.073-9.902-10.053-1.873-2.432-3.848-4.997-6.276-7.51-5.624-5.821-12.598-12.695-27.182-16.548-3.837 16.113-.418 48.31 28.67 81.803l5.931 5.737c6.277 6.527 16.303 8.74 23.315 8.792 10.677-.235 17.394-4.649 21.218-9.577 6.303-8.661 10.97-19.638-4.624-35.291-4.284-4.3-10.077-9.57-16.594-15.287l.003.003zm126.855 133.303c-18.57 6.18-40.6 17.867-58.08 40.85-16.75 22.019-14.14 31.369-10.67 36.829 1.75 2.759 6.65 9.984 19.65 11.18 13 1.196 25.23-7.085 30.49-14.383l6.9-9.753c6.91-11.249 15.73-27.051 23.94-41.776.03-.073.07-.147.1-.221 3.05-6.672 8-17.506 7.45-27.773-10.14 3.613-17.39 7.733-22.46 12.52.08-3.223 1.21-5.556 2.68-7.473zm176.97-133.303c-1.86-1.545-3.86-3.311-6.01-5.225-3.9-3.365-7.95-6.824-12.02-10.281-1.75 3.139.35 10.141 3.47 13.437-4.05-2.45-6.84-6.073-9.9-10.053-1.88-2.432-3.85-4.997-6.28-7.51-5.62-5.821-12.6-12.695-27.18-16.548-3.84 16.113-.42 48.31 28.67 81.803l5.93 5.737c6.28 6.527 16.3 8.74 23.32 8.792 10.67-.235 17.39-4.649 21.21-9.577 6.31-8.661 10.98-19.638-4.62-35.291-4.28-4.3-10.08-9.57-16.59-15.287v.003zm126.85 221.425c-18.56-6.18-40.6-17.867-58.08-40.85-16.74-22.02-14.14-31.369-10.67-36.829 1.76-2.759 6.66-9.984 19.66-11.18 12.99-1.197 25.23 7.085 30.49 14.383l6.9 9.753c6.9 11.249 15.72 27.051 23.93 41.776.04.073.07.147.1.221 3.05 6.672 8.01 17.505 7.45 27.773-10.13-3.613-17.39-7.733-22.46-12.521.08 3.224 1.22 5.557 2.68 7.474zm176.97-197.453c-1.85 1.544-3.85 3.311-6 5.224-3.9 3.366-7.96 6.825-12.03 10.282-1.75-3.14.35-10.142 3.47-13.438-4.05 2.451-6.84 6.074-9.9 10.054-1.87 2.432-3.85 4.997-6.28 7.509-5.62 5.822-12.59 12.696-27.18 16.549-3.83-16.114-.42-48.31 28.67-81.803l5.93-5.738c6.28-6.526 16.31-8.74 23.32-8.791 10.67.235 17.39 4.649 21.22 9.576 6.3 8.662 10.97 19.638-4.63 35.292-4.28 4.299-10.08 9.57-16.59 15.287v-.003zm126.85 197.453c-18.56-6.18-40.6-17.867-58.07-40.85-16.75-22.02-14.14-31.369-10.67-36.829 1.75-2.759 6.65-9.984 19.65-11.18 13-1.197 25.23 7.085 30.49 14.383l6.9 9.753c6.91 11.249 15.72 27.051 23.94 41.776.03.073.06.147.1.221 3.05 6.672 8 17.505 7.45 27.773-10.14-3.613-17.4-7.733-22.46-12.521.07 3.224 1.21 5.557 2.67 7.474zM59.205 1076.01c-1.854-1.54-3.855-3.31-6.005-5.22-3.898-3.37-7.953-6.83-12.022-10.29-1.755 3.14.35 10.15 3.469 13.44-4.049-2.45-6.838-6.07-9.903-10.05-1.872-2.43-3.847-5-6.275-7.51-5.624-5.82-12.598-12.7-27.182-16.55-3.837 16.11-.418 48.31 28.67 81.8l5.93 5.74c6.277 6.53 16.304 8.74 23.316 8.79 10.676-.23 17.394-4.65 21.217-9.57 6.304-8.66 10.975-19.64-4.623-35.3-4.284-4.29-10.078-9.56-16.594-15.28h.002zm126.853 133.3c-18.563 6.18-40.599 17.87-58.078 40.85-16.746 22.02-14.139 31.37-10.669 36.83 1.754 2.76 6.653 9.99 19.652 11.18 13 1.2 25.232-7.08 30.492-14.38l6.9-9.75c6.905-11.25 15.722-27.05 23.935-41.78.034-.07.067-.15.101-.22 3.05-6.67 8.004-17.51 7.451-27.77-10.139 3.61-17.395 7.73-22.459 12.52.074-3.23 1.211-5.56 2.675-7.48zm176.97-133.3c-1.854-1.54-3.854-3.31-6.005-5.22-3.898-3.37-7.953-6.83-12.022-10.29-1.755 3.14.35 10.15 3.469 13.44-4.049-2.45-6.838-6.07-9.903-10.05-1.872-2.43-3.847-5-6.275-7.51-5.624-5.82-12.598-12.7-27.182-16.55-3.837 16.11-.418 48.31 28.67 81.8l5.931 5.74c6.277 6.53 16.303 8.74 23.315 8.79 10.676-.23 17.394-4.65 21.217-9.57 6.304-8.66 10.976-19.64-4.623-35.3-4.284-4.29-10.078-9.56-16.594-15.28h.002zm126.853 221.43c-18.562-6.18-40.599-17.87-58.078-40.85-16.746-22.02-14.139-31.37-10.668-36.83 1.753-2.76 6.652-9.99 19.651-11.18 13-1.2 25.232 7.08 30.492 14.38l6.9 9.75c6.905 11.25 15.722 27.05 23.935 41.78.034.07.067.15.101.22 3.051 6.67 8.004 17.51 7.451 27.77-10.139-3.61-17.395-7.73-22.459-12.52.074 3.23 1.211 5.56 2.675 7.48zm176.97-197.46c-1.854 1.55-3.854 3.31-6.005 5.23-3.898 3.36-7.953 6.82-12.022 10.28-1.755-3.14.35-10.14 3.469-13.44-4.049 2.45-6.838 6.07-9.902 10.05-1.873 2.43-3.848 5-6.276 7.51-5.624 5.82-12.598 12.7-27.182 16.55-3.837-16.11-.418-48.31 28.67-81.8l5.931-5.74c6.277-6.53 16.303-8.74 23.315-8.79 10.677.23 17.394 4.65 21.218 9.58 6.303 8.66 10.975 19.63-4.624 35.29-4.284 4.3-10.078 9.57-16.594 15.28h.002zm126.854 197.46c-18.563-6.18-40.6-17.87-58.079-40.85-16.746-22.02-14.139-31.37-10.668-36.83 1.753-2.76 6.652-9.99 19.651-11.18 13-1.2 25.233 7.08 30.492 14.38l6.9 9.75c6.905 11.25 15.722 27.05 23.935 41.78.034.07.068.15.102.22 3.05 6.67 8.003 17.51 7.45 27.77-10.139-3.61-17.395-7.73-22.459-12.52.074 3.23 1.211 5.56 2.676 7.48zm176.97-221.43c-1.855-1.54-3.855-3.31-6.006-5.22-3.898-3.37-7.953-6.83-12.022-10.29-1.755 3.14.35 10.15 3.469 13.44-4.049-2.45-6.838-6.07-9.902-10.05-1.873-2.43-3.848-5-6.276-7.51-5.624-5.82-12.598-12.7-27.182-16.55-3.837 16.11-.418 48.31 28.67 81.8l5.931 5.74c6.277 6.53 16.303 8.74 23.315 8.79 10.677-.23 17.394-4.65 21.218-9.57 6.303-8.66 10.97-19.64-4.624-35.3-4.284-4.29-10.077-9.56-16.594-15.28h.003zm126.855 221.43c-18.57-6.18-40.6-17.87-58.08-40.85-16.75-22.02-14.14-31.37-10.67-36.83 1.75-2.76 6.65-9.99 19.65-11.18 13-1.2 25.23 7.08 30.49 14.38l6.9 9.75c6.91 11.25 15.73 27.05 23.94 41.78.03.07.07.15.1.22 3.05 6.67 8 17.51 7.45 27.77-10.14-3.61-17.39-7.73-22.46-12.52.08 3.23 1.21 5.56 2.68 7.48zm176.97-221.43c-1.86-1.54-3.86-3.31-6.01-5.22-3.9-3.37-7.95-6.83-12.02-10.29-1.75 3.14.35 10.15 3.47 13.44-4.05-2.45-6.84-6.07-9.9-10.05-1.88-2.43-3.85-5-6.28-7.51-5.62-5.82-12.6-12.7-27.18-16.55-3.84 16.11-.42 48.31 28.67 81.8l5.93 5.74c6.28 6.53 16.3 8.74 23.32 8.79 10.67-.23 17.39-4.65 21.21-9.57 6.31-8.66 10.98-19.64-4.62-35.3-4.28-4.29-10.08-9.56-16.59-15.28zm126.85 133.3c-18.56 6.18-40.6 17.87-58.08 40.85-16.74 22.02-14.14 31.37-10.67 36.83 1.76 2.76 6.66 9.99 19.66 11.18 12.99 1.2 25.23-7.08 30.49-14.38l6.9-9.75c6.9-11.25 15.72-27.05 23.93-41.78.04-.07.07-.15.1-.22 3.05-6.67 8.01-17.51 7.45-27.77-10.13 3.61-17.39 7.73-22.46 12.52.08-3.23 1.22-5.56 2.68-7.48zm176.97-133.3c-1.85-1.54-3.85-3.31-6-5.22-3.9-3.37-7.96-6.83-12.03-10.29-1.75 3.14.35 10.15 3.47 13.44-4.05-2.45-6.84-6.07-9.9-10.05-1.87-2.43-3.85-5-6.28-7.51-5.62-5.82-12.59-12.7-27.18-16.55-3.83 16.11-.42 48.31 28.67 81.8l5.93 5.74c6.28 6.53 16.31 8.74 23.32 8.79 10.67-.23 17.39-4.65 21.22-9.57 6.3-8.66 10.97-19.64-4.63-35.3-4.28-4.29-10.08-9.56-16.59-15.28zm126.85 221.43c-18.56-6.18-40.6-17.87-58.07-40.85-16.75-22.02-14.14-31.37-10.67-36.83 1.75-2.76 6.65-9.99 19.65-11.18 13-1.2 25.23 7.08 30.49 14.38l6.9 9.75c6.91 11.25 15.72 27.05 23.94 41.78.03.07.06.15.1.22 3.05 6.67 8 17.51 7.45 27.77-10.14-3.61-17.4-7.73-22.46-12.52.07 3.23 1.21 5.56 2.67 7.48z" opacity=".08" fill="#000"/></g></svg>