<svg width="24" height="17" viewBox="0 0 24 17" fill="none" xmlns="http://www.w3.org/2000/svg">
<path fill-rule="evenodd" clip-rule="evenodd" d="M12.7097 0H15.0323V6.438C15.9205 5.76084 17.0243 5.36154 18.2581 5.36154C21.4292 5.36154 24 7.9669 24 11.1808C24 14.3946 21.4292 17 18.2581 17C17.0243 17 15.9205 16.6106 15.0323 15.9455V16.6077H12.7097V0ZM18.2581 14.5154C20.0753 14.5154 21.5484 13.0224 21.5484 11.1808C21.5484 9.33911 20.0753 7.84615 18.2581 7.84615C16.4409 7.84615 14.9677 9.33911 14.9677 11.1808C14.9677 13.0224 16.4409 14.5154 18.2581 14.5154Z" fill="#FFE501"/>
<path d="M11.3071 12.6192C10.6753 15.1374 8.42325 17 5.74194 17C2.57075 17 0 14.3946 0 11.1808C0 7.9669 2.57075 5.36154 5.74194 5.36154C8.46946 5.36154 10.7528 7.2889 11.3383 9.87308H8.76962C8.26786 8.6814 7.10114 7.84615 5.74194 7.84615C3.92474 7.84615 2.45161 9.33911 2.45161 11.1808C2.45161 13.0224 3.92474 14.5154 5.74194 14.5154C7.05086 14.5154 8.18127 13.7408 8.71122 12.6192H11.3071Z" fill="#FFE501"/>
</svg>
