<svg width="13" height="21" viewBox="0 0 13 21" fill="none" xmlns="http://www.w3.org/2000/svg">
<path d="M11.6016 0.263059L8.94012 0.258789C5.95008 0.258789 4.01779 2.24125 4.01779 5.30963V7.63841H1.34183C1.11059 7.63841 0.92334 7.82588 0.92334 8.05711V11.4312C0.92334 11.6625 1.1108 11.8497 1.34183 11.8497H4.01779V20.3637C4.01779 20.595 4.20504 20.7822 4.43627 20.7822H7.92764C8.15888 20.7822 8.34613 20.5948 8.34613 20.3637V11.8497H11.475C11.7062 11.8497 11.8934 11.6625 11.8934 11.4312L11.8947 8.05711C11.8947 7.94608 11.8505 7.83976 11.7722 7.76118C11.6938 7.68261 11.587 7.63841 11.476 7.63841H8.34613V5.66428C8.34613 4.71543 8.57224 4.23375 9.80827 4.23375L11.6011 4.23311C11.8322 4.23311 12.0194 4.04564 12.0194 3.81462V0.681543C12.0194 0.450737 11.8324 0.263486 11.6016 0.263059Z" fill="#FFE501"/>
</svg>
