<svg width="21" height="21" viewBox="0 0 21 21" fill="none" xmlns="http://www.w3.org/2000/svg">
<path d="M20.7791 6.2939C20.731 5.2032 20.5546 4.45336 20.302 3.8036C20.0413 3.11391 19.6403 2.49642 19.1149 1.98311C18.6016 1.4618 17.98 1.05672 17.2983 0.800145C16.6448 0.547481 15.8989 0.371102 14.8082 0.323012C13.7093 0.270851 13.3604 0.258789 10.5734 0.258789C7.78643 0.258789 7.43758 0.270851 6.3428 0.31894C5.25208 0.367029 4.50223 0.543565 3.85263 0.796072C3.16277 1.05672 2.54528 1.45773 2.03195 1.98311C1.51064 2.49642 1.10572 3.11798 0.848979 3.79969C0.596312 4.45336 0.419931 5.19913 0.371841 6.28983C0.319679 7.38868 0.307617 7.73752 0.307617 10.5245C0.307617 13.3115 0.319679 13.6603 0.367768 14.7551C0.415858 15.8458 0.592396 16.5956 0.845063 17.2454C1.10572 17.9351 1.51064 18.5526 2.03195 19.0659C2.54528 19.5872 3.16684 19.9923 3.84855 20.2488C4.50223 20.5015 5.24801 20.6779 6.33888 20.726C7.43351 20.7742 7.78251 20.7861 10.5695 20.7861C13.3565 20.7861 13.7054 20.7742 14.8002 20.726C15.8909 20.6779 16.6407 20.5015 17.2903 20.2488C18.6699 19.7155 19.7606 18.6248 20.294 17.2454C20.5465 16.5917 20.723 15.8458 20.7711 14.7551C20.8192 13.6603 20.8313 13.3115 20.8313 10.5245C20.8313 7.73752 20.8272 7.38868 20.7791 6.2939ZM18.9305 14.6749C18.8864 15.6774 18.718 16.2188 18.5776 16.5797C18.2327 17.4739 17.5229 18.1837 16.6287 18.5286C16.2678 18.669 15.7225 18.8373 14.7239 18.8814C13.6412 18.9296 13.3164 18.9415 10.5775 18.9415C7.83859 18.9415 7.50979 18.9296 6.43099 18.8814C5.42847 18.8373 4.8871 18.669 4.5262 18.5286C4.08117 18.3641 3.67609 18.1035 3.34729 17.7626C3.00644 17.4298 2.74578 17.0288 2.5813 16.5837C2.44095 16.2228 2.27256 15.6774 2.22854 14.679C2.1803 13.5963 2.16839 13.2714 2.16839 10.5325C2.16839 7.7936 2.1803 7.4648 2.22854 6.38616C2.27256 5.38365 2.44095 4.8423 2.5813 4.48139C2.74578 4.03622 3.00644 3.6313 3.35137 3.30235C3.68408 2.96149 4.08509 2.70084 4.53027 2.53652C4.89118 2.39617 5.43661 2.22778 6.43506 2.18361C7.51778 2.13552 7.84266 2.12346 10.5814 2.12346C13.3244 2.12346 13.6491 2.13552 14.7279 2.18361C15.7305 2.22778 16.2718 2.39617 16.6327 2.53652C17.0778 2.70084 17.4828 2.96149 17.8116 3.30235C18.1525 3.63521 18.4132 4.03622 18.5776 4.48139C18.718 4.8423 18.8864 5.38757 18.9305 6.38616C18.9786 7.46888 18.9907 7.7936 18.9907 10.5325C18.9907 13.2714 18.9786 13.5922 18.9305 14.6749Z" fill="#FFE501"/>
<path d="M10.573 5.25098C7.66183 5.25098 5.2998 7.61304 5.2998 10.5247C5.2998 13.4363 7.66183 15.7983 10.573 15.7983C13.4844 15.7983 15.8463 13.4363 15.8463 10.5247C15.8463 7.61304 13.4844 5.25098 10.573 5.25098ZM10.573 13.9456C8.68439 13.9456 7.15242 12.4136 7.15242 10.5247C7.15242 8.6357 8.68439 7.10375 10.573 7.10375C12.4618 7.10375 13.9937 8.6357 13.9937 10.5247C13.9937 12.4136 12.4618 13.9456 10.573 13.9456Z" fill="#FFE501"/>
<path d="M17.2865 5.04112C17.2865 5.72096 16.7353 6.27219 16.0553 6.27219C15.3754 6.27219 14.8242 5.72096 14.8242 5.04112C14.8242 4.36113 15.3754 3.81006 16.0553 3.81006C16.7353 3.81006 17.2865 4.36113 17.2865 5.04112Z" fill="#FFE501"/>
</svg>
