<svg width="19" height="18" viewBox="0 0 19 18" fill="none" xmlns="http://www.w3.org/2000/svg">
<path d="M18.3145 10.9428V17.5975H14.4565V11.3885C14.4565 9.82874 13.8985 8.76426 12.502 8.76426C11.436 8.76426 10.8016 9.48164 10.5225 10.1756C10.4207 10.4237 10.3945 10.769 10.3945 11.1162V17.5975H6.53523C6.53523 17.5975 6.58721 7.08147 6.53523 5.99193H10.3941V7.63697C10.3863 7.64928 10.3761 7.66254 10.3688 7.67447H10.3941V7.63697C10.9068 6.84732 11.8224 5.71928 13.8719 5.71928C16.411 5.71924 18.3145 7.37801 18.3145 10.9428ZM2.49826 0.397461C1.17801 0.397461 0.314453 1.26344 0.314453 2.40224C0.314453 3.51622 1.15302 4.40849 2.44704 4.40849H2.47282C3.81864 4.40849 4.65563 3.51639 4.65563 2.40224C4.63026 1.26344 3.81864 0.397461 2.49826 0.397461ZM0.543661 17.5975H4.40148V5.99193H0.543661V17.5975Z" fill="#FFE501"/>
</svg>
