<svg width="13" height="10" viewBox="0 0 13 10" fill="none" xmlns="http://www.w3.org/2000/svg">
<path fill-rule="evenodd" clip-rule="evenodd" d="M6.00745 4.29842C5.03096 4.29842 0 1.44549 0 1.44549V0.999992C0 0.447996 0.447996 0 1.00099 0H11.0139C11.5674 0 12.0154 0.447996 12.0154 0.999992L12.0074 1.49999C12.0074 1.49999 7.03094 4.29842 6.00745 4.29842Z" fill="#DADADA"/>
<path fill-rule="evenodd" clip-rule="evenodd" d="M6.00745 5.67355C7.07794 5.67355 12.0074 3.00012 12.0074 3.00012L12.0154 9.00007C12.0154 9.55207 11.5674 10.0001 11.0139 10.0001H1.00099C0.448496 10.0001 0 9.55207 0 9.00007L0.00799994 3.00012C0.00749994 3.00012 5.03096 5.67355 6.00745 5.67355Z" fill="#DADADA"/>
</svg>
