<svg width="12" height="12" viewBox="0 0 12 12" fill="none" xmlns="http://www.w3.org/2000/svg">
<path fill-rule="evenodd" clip-rule="evenodd" d="M2.48572 0.0244251C2.63143 0.0122125 2.75633 0.0476289 2.83715 0.180746C3.01838 0.473847 3.20083 0.766947 3.37349 1.06738C3.57308 1.41421 3.75676 1.77082 3.95268 2.12132C4.00288 2.21535 4.07268 2.30084 4.13146 2.39122C4.18534 2.4767 4.23677 2.56463 4.28697 2.65012C4.38983 2.8443 4.38493 3.0397 4.23187 3.1948C4.01391 3.41707 3.7739 3.62346 3.54247 3.83474C3.349 4.01182 3.14818 4.18157 2.9596 4.36232C2.81266 4.50398 2.7747 4.68107 2.87389 4.86792C3.02695 5.15369 3.17879 5.43947 3.34655 5.71913C3.9686 6.75353 4.76331 7.63284 5.7674 8.31063C6.15435 8.5732 6.55721 8.81379 6.96375 9.04338C7.34702 9.25955 7.49641 9.22291 7.79397 8.89195C8.07071 8.58541 8.33765 8.274 8.61317 7.96502C8.67929 7.89052 8.75888 7.82457 8.83603 7.76107C8.99277 7.62917 9.1642 7.61452 9.3442 7.70489C9.3944 7.72932 9.44828 7.7513 9.49237 7.78305C9.96992 8.12378 10.5038 8.36437 11.0083 8.65381C11.2789 8.8089 11.5422 8.975 11.8079 9.13376C11.9512 9.21803 12.0087 9.34137 11.9989 9.51113C11.972 9.98864 11.8924 10.4576 11.6144 10.8606C11.4981 11.0279 11.3328 11.1745 11.1663 11.2929C10.7046 11.6153 10.1891 11.8144 9.64053 11.9365C9.14216 12.0477 8.645 12.0074 8.16745 11.8584C7.24539 11.575 6.3368 11.2502 5.50046 10.758C4.74126 10.3098 4.05064 9.76881 3.41145 9.16429C2.60204 8.39612 1.87958 7.55834 1.29549 6.60454C0.914669 5.98536 0.642827 5.31856 0.396701 4.63832C0.247311 4.22798 0.100369 3.8213 0.0342457 3.38654C-0.041674 2.89437 0.01098 2.42053 0.168942 1.95401C0.310985 1.53267 0.488539 1.12966 0.756707 0.76939C0.967323 0.489723 1.23059 0.284552 1.57101 0.192958C1.84407 0.120904 2.11959 0.0635052 2.39388 0C2.42939 0.0280888 2.45755 0.0280888 2.48572 0.0244251Z" fill="#DADADA"/>
</svg>
