<svg width="18" height="18" viewBox="0 0 18 18" fill="none" xmlns="http://www.w3.org/2000/svg">
<path d="M17.7796 16.7225L13.4522 12.3952C14.5249 11.0874 15.1714 9.41234 15.1714 7.58664C15.1714 3.39891 11.7735 0.000976562 7.58571 0.000976562C3.39429 0.000976562 0 3.39891 0 7.58664C0 11.7744 3.39429 15.1723 7.58571 15.1723C9.41143 15.1723 11.0829 14.5294 12.3906 13.4568L16.718 17.7804C17.0118 18.0743 17.4857 18.0743 17.7796 17.7804C18.0735 17.4902 18.0735 17.0127 17.7796 16.7225ZM7.58571 13.6625C4.23184 13.6625 1.50612 10.9368 1.50612 7.58664C1.50612 4.23646 4.23184 1.50709 7.58571 1.50709C10.9359 1.50709 13.6653 4.23646 13.6653 7.58664C13.6653 10.9368 10.9359 13.6625 7.58571 13.6625Z" fill="#1A1A1A"/>
</svg>
