<svg width="22" height="15" viewBox="0 0 22 15" fill="none" xmlns="http://www.w3.org/2000/svg">
<path d="M20.6132 1.38609C20.0565 0.395802 19.4523 0.21365 18.2222 0.144381C16.9934 0.0610017 13.9033 0.0263672 11.2262 0.0263672C8.54408 0.0263672 5.45272 0.0610018 4.22516 0.143098C2.99759 0.21365 2.39215 0.394519 1.83032 1.38609C1.25694 2.3751 0.961914 4.0786 0.961914 7.07769C0.961914 7.08026 0.961914 7.08154 0.961914 7.08154C0.961914 7.08411 0.961914 7.08539 0.961914 7.08539V7.08796C0.961914 10.0742 1.25694 11.7906 1.83032 12.7693C2.39215 13.7596 2.99631 13.9392 4.22387 14.0226C5.45272 14.0944 8.54408 14.1367 11.2262 14.1367C13.9033 14.1367 16.9934 14.0944 18.2235 14.0238C19.4536 13.9405 20.0578 13.7609 20.6145 12.7706C21.193 11.7918 21.4854 10.0755 21.4854 7.08924C21.4854 7.08924 21.4854 7.08539 21.4854 7.08283C21.4854 7.08283 21.4854 7.08026 21.4854 7.07898C21.4854 4.0786 21.193 2.3751 20.6132 1.38609ZM8.65824 10.9298V3.23327L15.0718 7.08154L8.65824 10.9298Z" fill="#FFE501"/>
</svg>
