<svg width="1656" height="593" viewBox="0 0 1656 593" fill="none" xmlns="http://www.w3.org/2000/svg">
<g opacity="0.5">
<path d="M844.152 363.076C842.863 364.438 841.473 365.997 839.978 367.686C837.268 370.655 834.45 373.707 831.622 376.758C830.402 373.987 831.865 367.809 834.033 364.901C831.219 367.064 829.28 370.26 827.15 373.772C825.848 375.917 824.476 378.181 822.788 380.398C818.879 385.534 814.031 391.6 803.894 395C801.228 380.782 803.604 352.373 823.822 322.82L827.945 317.757C832.307 311.999 839.277 310.045 844.151 310C851.571 310.207 856.24 314.102 858.898 318.45C863.279 326.092 866.527 335.778 855.685 349.59C852.707 353.383 848.681 358.031 844.152 363.076Z" fill="white"/>
<path d="M1637.15 561.076C1635.86 562.439 1634.47 563.997 1632.98 565.686C1630.27 568.655 1627.45 571.707 1624.62 574.758C1623.4 571.987 1624.86 565.809 1627.03 562.901C1624.22 565.064 1622.28 568.26 1620.15 571.772C1618.85 573.917 1617.48 576.181 1615.79 578.398C1611.88 583.534 1607.03 589.6 1596.89 593C1594.23 578.782 1596.6 550.373 1616.82 520.82L1620.94 515.757C1625.31 509.999 1632.28 508.045 1637.15 508C1644.57 508.207 1649.24 512.102 1651.9 516.45C1656.28 524.092 1659.53 533.778 1648.68 547.59C1645.71 551.383 1641.68 556.031 1637.15 561.076Z" fill="white"/>
<path d="M41.152 31.9244C39.8628 30.5615 38.4726 29.0026 36.9779 27.3143C34.2683 24.3446 31.4497 21.2926 28.6217 18.2423C27.4017 21.0125 28.8647 27.1909 31.0329 30.099C28.2186 27.9365 26.2799 24.7401 24.1498 21.2282C22.8484 19.0826 21.4756 16.8193 19.7881 14.6021C15.8789 9.46575 11.0313 3.40038 0.894356 0C-1.77246 14.2183 0.604113 42.6274 20.822 72.18L24.9445 77.2429C29.3073 83.0014 36.2766 84.9547 41.1505 85C48.5713 84.7925 53.2402 80.8984 55.898 76.5501C60.2793 68.9078 63.5265 59.2224 52.6845 45.4103C49.7066 41.6166 45.6812 36.9691 41.152 31.9244Z" fill="white"/>
</g>
</svg>
