<svg width="1130" height="552" viewBox="0 0 1130 552" fill="none" xmlns="http://www.w3.org/2000/svg">
<g opacity="0.5">
<path d="M733.296 41.4926C745.569 20.7153 761.043 10.1497 774.078 4.5629C773.05 6.29585 772.252 8.40437 772.199 11.319C775.755 6.99081 780.85 3.26624 787.97 0C788.358 9.2822 784.88 19.0765 782.738 25.1077L782.667 25.3079C776.9 38.6198 770.709 52.9056 765.86 63.0747L761.015 71.8923C757.322 78.4897 748.732 85.9767 739.604 84.8951C730.476 83.8135 727.036 77.2817 725.805 74.7876C723.367 69.8514 721.537 61.3994 733.296 41.4926Z" fill="white"/>
<path d="M1075.3 177.507C1087.57 198.285 1103.04 208.85 1116.08 214.437C1115.05 212.704 1114.25 210.596 1114.2 207.681C1117.76 212.009 1122.85 215.734 1129.97 219C1130.36 209.718 1126.88 199.924 1124.74 193.892L1124.67 193.692C1118.9 180.38 1112.71 166.094 1107.86 155.925L1103.02 147.108C1099.32 140.51 1090.73 133.023 1081.6 134.105C1072.48 135.187 1069.04 141.718 1067.8 144.212C1065.37 149.149 1063.54 157.601 1075.3 177.507Z" fill="white"/>
<path d="M9.54703 510.423C21.9524 530.949 37.5078 541.336 50.5931 546.802C49.5538 545.09 48.7428 543.004 48.6745 540.116C52.2595 544.386 57.3828 548.05 64.5312 551.248C64.8694 542.046 61.3326 532.357 59.1547 526.391L59.0824 526.193C53.2338 513.031 46.9554 498.905 42.0437 488.853L37.1434 480.14C33.4084 473.621 24.7648 466.248 15.6285 467.37C6.49218 468.492 3.08273 474.985 1.86296 477.464C-0.551123 482.37 -2.33853 490.757 9.54703 510.423Z" fill="white"/>
</g>
</svg>
