<svg width="81" height="105" viewBox="0 0 81 105" fill="none" xmlns="http://www.w3.org/2000/svg">
<path d="M63.3803 5.63652C46.8831 12.5378 27.2986 25.5895 11.7652 51.2556C-3.11747 75.8463 -0.800637 86.287 2.28394 92.3846C3.84249 95.4656 8.19586 103.534 19.7486 104.87C31.3014 106.207 42.1728 96.9578 46.8472 88.8082L52.9789 77.9158C59.1158 65.354 66.9515 47.7068 74.2507 31.2627C74.2805 31.1808 74.3104 31.0984 74.3406 31.0153C77.0513 23.5651 81.4534 11.4662 80.9621 0C71.9512 4.03477 65.5027 8.63575 61.0022 13.9823C61.0684 10.3819 62.0788 7.7772 63.3803 5.63652Z" fill="#FFEBEE"/>
</svg>
