<svg width="1725" height="1303" viewBox="0 0 1725 1303" fill="none" xmlns="http://www.w3.org/2000/svg">
<g opacity="0.5">
<g opacity="0.08">
<path d="M59.2053 36.3353C57.3506 34.7907 55.3505 33.024 53.2 31.1106C49.3017 27.745 45.2466 24.2861 41.178 20.8291C39.4228 23.9686 41.5276 30.9708 44.647 34.2666C40.5981 31.8158 37.8088 28.1932 34.7443 24.2132C32.872 21.7815 30.897 19.2165 28.4691 16.7036C22.8449 10.8825 15.8708 4.00849 1.2867 0.154785C-2.55003 16.2687 0.869167 48.4653 29.9566 81.9578L35.8876 87.6957C42.1644 94.2219 52.191 96.4356 59.2031 96.487C69.8794 96.2519 76.5967 91.8385 80.4204 86.9106C86.7238 78.2494 91.3954 67.2727 75.7971 51.6191C71.5129 47.3197 65.7193 42.0494 59.2031 36.3322L59.2053 36.3353Z" fill="black"/>
<path d="M186.058 257.76C167.495 251.58 145.459 239.893 127.98 216.91C111.234 194.891 113.841 185.542 117.311 180.081C119.065 177.323 123.964 170.098 136.963 168.901C149.963 167.705 162.195 175.986 167.455 183.284L174.355 193.038C181.26 204.286 190.077 220.088 198.29 234.813C198.324 234.886 198.357 234.96 198.391 235.034C201.441 241.706 206.395 252.54 205.842 262.807C195.703 259.194 188.447 255.074 183.383 250.287C183.457 253.511 184.594 255.843 186.058 257.76Z" fill="black"/>
<path d="M363.028 60.307C361.174 61.8516 359.174 63.6184 357.023 65.5317C353.125 68.8973 349.07 72.3563 345.001 75.8132C343.246 72.6737 345.351 65.6716 348.47 62.3757C344.421 64.8266 341.632 68.4491 338.567 72.4291C336.695 74.8608 334.72 77.4259 332.292 79.9387C326.668 85.7598 319.694 92.6338 305.11 96.4876C301.273 80.3737 304.692 48.1771 333.78 14.6846L339.711 8.94667C345.988 2.42042 356.014 0.206688 363.026 0.155354C373.702 0.390486 380.42 4.80382 384.243 9.73175C390.547 18.393 395.219 29.3697 379.62 45.0232C375.336 49.3226 369.542 54.5929 363.026 60.3102L363.028 60.307Z" fill="black"/>
<path d="M489.881 257.76C471.319 251.58 449.282 239.893 431.803 216.91C415.057 194.891 417.664 185.542 421.135 180.081C422.888 177.323 427.787 170.098 440.786 168.901C453.786 167.705 466.018 175.986 471.278 183.284L478.178 193.038C485.083 204.286 493.9 220.088 502.113 234.813C502.147 234.886 502.18 234.96 502.214 235.034C505.265 241.706 510.218 252.54 509.665 262.807C499.526 259.194 492.27 255.074 487.206 250.287C487.28 253.511 488.417 255.843 489.881 257.76Z" fill="black"/>
<path d="M666.851 36.3353C664.997 34.7907 662.997 33.024 660.846 31.1106C656.948 27.745 652.893 24.2861 648.824 20.8291C647.069 23.9686 649.174 30.9708 652.293 34.2666C648.244 31.8158 645.455 28.1932 642.391 24.2132C640.518 21.7815 638.543 19.2165 636.115 16.7036C630.491 10.8825 623.517 4.00849 608.933 0.154785C605.096 16.2687 608.515 48.4653 637.603 81.9578L643.534 87.6957C649.811 94.2219 659.837 96.4356 666.849 96.487C677.526 96.2519 684.243 91.8385 688.067 86.9106C694.37 78.2494 699.042 67.2727 683.443 51.6191C679.159 47.3197 673.365 42.0494 666.849 36.3322L666.851 36.3353Z" fill="black"/>
<path d="M793.705 257.76C775.142 251.58 753.105 239.893 735.626 216.91C718.88 194.891 721.487 185.542 724.958 180.081C726.711 177.323 731.61 170.098 744.609 168.901C757.609 167.705 769.842 175.986 775.101 183.284L782.001 193.038C788.906 204.286 797.723 220.088 805.936 234.813C805.97 234.886 806.004 234.96 806.038 235.034C809.088 241.706 814.041 252.54 813.488 262.807C803.349 259.194 796.093 255.074 791.029 250.287C791.103 253.511 792.24 255.843 793.705 257.76Z" fill="black"/>
<path d="M970.675 36.3353C968.82 34.7907 966.82 33.024 964.669 31.1106C960.771 27.745 956.716 24.2861 952.647 20.8291C950.892 23.9686 952.997 30.9708 956.116 34.2666C952.067 31.8158 949.278 28.1932 946.214 24.2132C944.341 21.7815 942.366 19.2165 939.938 16.7036C934.314 10.8825 927.34 4.00849 912.756 0.154785C908.919 16.2687 912.338 48.4653 941.426 81.9578L947.357 87.6957C953.634 94.2219 963.66 96.4356 970.672 96.487C981.349 96.2519 988.066 91.8385 991.89 86.9106C998.193 78.2494 1002.86 67.2727 987.266 51.6191C982.982 47.3197 977.189 42.0494 970.672 36.3322L970.675 36.3353Z" fill="black"/>
<path d="M1097.53 169.639C1078.96 175.818 1056.93 187.505 1039.45 210.488C1022.7 232.508 1025.31 241.857 1028.78 247.317C1030.53 250.076 1035.43 257.301 1048.43 258.497C1061.43 259.694 1073.66 251.412 1078.92 244.114L1085.82 234.361C1092.73 223.112 1101.55 207.31 1109.76 192.585C1109.79 192.512 1109.83 192.438 1109.86 192.364C1112.91 185.693 1117.86 174.859 1117.31 164.591C1107.17 168.204 1099.92 172.324 1094.85 177.112C1094.93 173.888 1096.06 171.555 1097.53 169.639Z" fill="black"/>
<path d="M1274.5 36.3353C1272.64 34.7907 1270.64 33.024 1268.49 31.1106C1264.59 27.745 1260.54 24.2861 1256.47 20.8291C1254.72 23.9686 1256.82 30.9708 1259.94 34.2666C1255.89 31.8158 1253.1 28.1932 1250.04 24.2132C1248.16 21.7815 1246.19 19.2165 1243.76 16.7036C1238.14 10.8825 1231.16 4.00849 1216.58 0.154785C1212.74 16.2687 1216.16 48.4653 1245.25 81.9578L1251.18 87.6957C1257.46 94.2219 1267.48 96.4356 1274.5 96.487C1285.17 96.2519 1291.89 91.8385 1295.71 86.9106C1302.02 78.2494 1306.69 67.2727 1291.09 51.6191C1286.81 47.3197 1281.01 42.0494 1274.5 36.3322L1274.5 36.3353Z" fill="black"/>
<path d="M1401.35 257.76C1382.79 251.58 1360.75 239.893 1343.27 216.91C1326.53 194.891 1329.13 185.542 1332.6 180.081C1334.36 177.323 1339.26 170.098 1352.26 168.901C1365.25 167.705 1377.49 175.986 1382.75 183.284L1389.65 193.038C1396.55 204.286 1405.37 220.088 1413.58 234.813C1413.62 234.886 1413.65 234.96 1413.68 235.034C1416.73 241.706 1421.69 252.54 1421.13 262.807C1411 259.194 1403.74 255.074 1398.67 250.287C1398.75 253.511 1399.89 255.843 1401.35 257.76Z" fill="black"/>
<path d="M1578.32 60.307C1576.47 61.8516 1574.47 63.6184 1572.32 65.5317C1568.42 68.8973 1564.36 72.3563 1560.29 75.8132C1558.54 72.6737 1560.64 65.6716 1563.76 62.3757C1559.71 64.8266 1556.92 68.4491 1553.86 72.4291C1551.99 74.8608 1550.01 77.4259 1547.58 79.9387C1541.96 85.7598 1534.99 92.6338 1520.4 96.4876C1516.57 80.3737 1519.98 48.1771 1549.07 14.6846L1555 8.94667C1561.28 2.42042 1571.31 0.206688 1578.32 0.155354C1588.99 0.390486 1595.71 4.80382 1599.54 9.73175C1605.84 18.393 1610.51 29.3697 1594.91 45.0232C1590.63 49.3226 1584.83 54.5929 1578.32 60.3102L1578.32 60.307Z" fill="black"/>
<path d="M1705.17 257.76C1686.61 251.58 1664.57 239.893 1647.1 216.91C1630.35 194.891 1632.96 185.542 1636.43 180.081C1638.18 177.323 1643.08 170.098 1656.08 168.901C1669.08 167.705 1681.31 175.986 1686.57 183.284L1693.47 193.038C1700.38 204.286 1709.19 220.088 1717.41 234.813C1717.44 234.886 1717.47 234.96 1717.51 235.034C1720.56 241.706 1725.51 252.54 1724.96 262.807C1714.82 259.194 1707.56 255.074 1702.5 250.287C1702.57 253.511 1703.71 255.843 1705.17 257.76Z" fill="black"/>
<path d="M59.2053 390.278C57.3506 388.734 55.3505 386.967 53.2 385.054C49.3017 381.688 45.2466 378.229 41.178 374.772C39.4228 377.912 41.5276 384.914 44.647 388.21C40.5981 385.759 37.8088 382.136 34.7443 378.156C32.872 375.725 30.897 373.159 28.4691 370.647C22.8449 364.826 15.8708 357.952 1.2867 354.098C-2.55003 370.212 0.869167 402.408 29.9566 435.901L35.8876 441.639C42.1644 448.165 52.191 450.379 59.2031 450.43C69.8794 450.195 76.5967 445.782 80.4204 440.854C86.7238 432.192 91.3954 421.216 75.7971 405.562C71.5129 401.263 65.7193 395.992 59.2031 390.275L59.2053 390.278Z" fill="black"/>
<path d="M186.058 523.582C167.495 529.761 145.459 541.448 127.98 564.431C111.234 586.451 113.841 595.8 117.311 601.26C119.065 604.019 123.964 611.244 136.963 612.44C149.963 613.637 162.195 605.355 167.455 598.057L174.355 588.304C181.26 577.055 190.077 561.253 198.29 546.528C198.324 546.455 198.357 546.381 198.391 546.307C201.441 539.636 206.395 528.802 205.842 518.534C195.703 522.147 188.447 526.267 183.383 531.055C183.457 527.831 184.594 525.498 186.058 523.582Z" fill="black"/>
<path d="M363.028 390.278C361.174 388.734 359.174 386.967 357.023 385.054C353.125 381.688 349.07 378.229 345.001 374.772C343.246 377.912 345.351 384.914 348.47 388.21C344.421 385.759 341.632 382.136 338.567 378.156C336.695 375.725 334.72 373.159 332.292 370.647C326.668 364.826 319.694 357.952 305.11 354.098C301.273 370.212 304.692 402.408 333.78 435.901L339.711 441.639C345.988 448.165 356.014 450.379 363.026 450.43C373.702 450.195 380.42 445.782 384.243 440.854C390.547 432.192 395.219 421.216 379.62 405.562C375.336 401.263 369.542 395.992 363.026 390.275L363.028 390.278Z" fill="black"/>
<path d="M489.881 611.703C471.319 605.523 449.282 593.836 431.803 570.853C415.057 548.834 417.664 539.485 421.135 534.024C422.888 531.266 427.787 524.041 440.786 522.844C453.786 521.648 466.018 529.929 471.278 537.227L478.178 546.981C485.083 558.229 493.9 574.031 502.113 588.756C502.147 588.829 502.18 588.903 502.214 588.978C505.265 595.649 510.218 606.483 509.665 616.75C499.526 613.137 492.27 609.017 487.206 604.23C487.28 607.454 488.417 609.786 489.881 611.703Z" fill="black"/>
<path d="M666.851 414.248C664.997 415.793 662.997 417.56 660.846 419.473C656.948 422.839 652.893 426.298 648.824 429.754C647.069 426.615 649.174 419.613 652.293 416.317C648.244 418.768 645.455 422.39 642.391 426.37C640.518 428.802 638.543 431.367 636.115 433.88C630.491 439.701 623.517 446.575 608.933 450.429C605.096 434.315 608.515 402.118 637.603 368.626L643.534 362.888C649.811 356.362 659.837 354.148 666.849 354.097C677.526 354.332 684.243 358.745 688.067 363.673C694.37 372.334 699.042 383.311 683.443 398.964C679.159 403.264 673.365 408.534 666.849 414.251L666.851 414.248Z" fill="black"/>
<path d="M793.705 611.703C775.142 605.523 753.105 593.836 735.626 570.853C718.88 548.834 721.487 539.485 724.958 534.024C726.711 531.266 731.61 524.041 744.609 522.844C757.609 521.648 769.842 529.929 775.101 537.227L782.001 546.981C788.906 558.229 797.723 574.031 805.936 588.756C805.97 588.829 806.004 588.903 806.038 588.978C809.088 595.649 814.041 606.483 813.488 616.75C803.349 613.137 796.093 609.017 791.029 604.23C791.103 607.454 792.24 609.786 793.705 611.703Z" fill="black"/>
<path d="M970.675 390.278C968.82 388.734 966.82 386.967 964.669 385.054C960.771 381.688 956.716 378.229 952.647 374.772C950.892 377.912 952.997 384.914 956.116 388.21C952.067 385.759 949.278 382.136 946.214 378.156C944.341 375.725 942.366 373.159 939.938 370.647C934.314 364.826 927.34 357.952 912.756 354.098C908.919 370.212 912.338 402.408 941.426 435.901L947.357 441.639C953.634 448.165 963.66 450.379 970.672 450.43C981.349 450.195 988.066 445.782 991.89 440.854C998.193 432.192 1002.86 421.216 987.266 405.562C982.982 401.263 977.189 395.992 970.672 390.275L970.675 390.278Z" fill="black"/>
<path d="M1097.53 611.703C1078.96 605.523 1056.93 593.836 1039.45 570.853C1022.7 548.834 1025.31 539.485 1028.78 534.024C1030.53 531.266 1035.43 524.041 1048.43 522.844C1061.43 521.648 1073.66 529.929 1078.92 537.227L1085.82 546.981C1092.73 558.229 1101.55 574.031 1109.76 588.756C1109.79 588.829 1109.83 588.903 1109.86 588.978C1112.91 595.649 1117.86 606.483 1117.31 616.75C1107.17 613.137 1099.92 609.017 1094.85 604.23C1094.93 607.454 1096.06 609.786 1097.53 611.703Z" fill="black"/>
<path d="M1274.5 390.278C1272.64 388.734 1270.64 386.967 1268.49 385.054C1264.59 381.688 1260.54 378.229 1256.47 374.772C1254.72 377.912 1256.82 384.914 1259.94 388.21C1255.89 385.759 1253.1 382.136 1250.04 378.156C1248.16 375.725 1246.19 373.159 1243.76 370.647C1238.14 364.826 1231.16 357.952 1216.58 354.098C1212.74 370.212 1216.16 402.408 1245.25 435.901L1251.18 441.639C1257.46 448.165 1267.48 450.379 1274.5 450.43C1285.17 450.195 1291.89 445.782 1295.71 440.854C1302.02 432.192 1306.69 421.216 1291.09 405.562C1286.81 401.263 1281.01 395.992 1274.5 390.275L1274.5 390.278Z" fill="black"/>
<path d="M1401.35 523.582C1382.79 529.761 1360.75 541.448 1343.27 564.431C1326.53 586.451 1329.13 595.8 1332.6 601.26C1334.36 604.019 1339.26 611.244 1352.26 612.44C1365.25 613.637 1377.49 605.355 1382.75 598.057L1389.65 588.304C1396.55 577.055 1405.37 561.253 1413.58 546.528C1413.62 546.455 1413.65 546.381 1413.68 546.307C1416.73 539.636 1421.69 528.802 1421.13 518.534C1411 522.147 1403.74 526.267 1398.67 531.055C1398.75 527.831 1399.89 525.498 1401.35 523.582Z" fill="black"/>
<path d="M1578.32 390.278C1576.47 388.734 1574.47 386.967 1572.32 385.054C1568.42 381.688 1564.36 378.229 1560.29 374.772C1558.54 377.912 1560.64 384.914 1563.76 388.21C1559.71 385.759 1556.92 382.136 1553.86 378.156C1551.99 375.725 1550.01 373.159 1547.58 370.647C1541.96 364.826 1534.99 357.952 1520.4 354.098C1516.57 370.212 1519.98 402.408 1549.07 435.901L1555 441.639C1561.28 448.165 1571.31 450.379 1578.32 450.43C1588.99 450.195 1595.71 445.782 1599.54 440.854C1605.84 432.192 1610.51 421.216 1594.91 405.562C1590.63 401.263 1584.83 395.992 1578.32 390.275L1578.32 390.278Z" fill="black"/>
<path d="M1705.17 611.703C1686.61 605.523 1664.57 593.836 1647.1 570.853C1630.35 548.834 1632.96 539.485 1636.43 534.024C1638.18 531.266 1643.08 524.041 1656.08 522.844C1669.08 521.648 1681.31 529.929 1686.57 537.227L1693.47 546.981C1700.38 558.229 1709.19 574.031 1717.41 588.756C1717.44 588.829 1717.47 588.903 1717.51 588.978C1720.56 595.649 1725.51 606.483 1724.96 616.75C1714.82 613.137 1707.56 609.017 1702.5 604.23C1702.57 607.454 1703.71 609.786 1705.17 611.703Z" fill="black"/>
</g>
<g opacity="0.08">
<path d="M59.2053 722.068C57.3506 720.523 55.3505 718.757 53.2 716.843C49.3017 713.478 45.2466 710.019 41.178 706.562C39.4228 709.701 41.5276 716.703 44.647 719.999C40.5981 717.549 37.8088 713.926 34.7443 709.946C32.872 707.514 30.897 704.949 28.4691 702.436C22.8449 696.615 15.8708 689.741 1.2867 685.888C-2.55003 702.001 0.869167 734.198 29.9566 767.691L35.8876 773.428C42.1644 779.955 52.191 782.168 59.2031 782.22C69.8794 781.985 76.5967 777.571 80.4204 772.643C86.7238 763.982 91.3954 753.005 75.7971 737.352C71.5129 733.052 65.7193 727.782 59.2031 722.065L59.2053 722.068Z" fill="black"/>
<path d="M186.058 943.493C167.495 937.313 145.459 925.626 127.98 902.643C111.234 880.623 113.841 871.274 117.311 865.814C119.065 863.055 123.964 855.83 136.963 854.634C149.963 853.437 162.195 861.719 167.455 869.017L174.355 878.77C181.26 890.019 190.077 905.821 198.29 920.546C198.324 920.619 198.357 920.693 198.391 920.767C201.441 927.439 206.395 938.272 205.842 948.54C195.703 944.927 188.447 940.807 183.383 936.019C183.457 939.243 184.594 941.576 186.058 943.493Z" fill="black"/>
<path d="M363.028 746.04C361.174 747.584 359.174 749.351 357.023 751.264C353.125 754.63 349.07 758.089 345.001 761.546C343.246 758.406 345.351 751.404 348.47 748.108C344.421 750.559 341.632 754.182 338.567 758.162C336.695 760.594 334.72 763.159 332.292 765.671C326.668 771.493 319.694 778.367 305.11 782.22C301.273 766.106 304.692 733.91 333.78 700.417L339.711 694.679C345.988 688.153 356.014 685.939 363.026 685.888C373.702 686.123 380.42 690.537 384.243 695.464C390.547 704.126 395.219 715.102 379.62 730.756C375.336 735.055 369.542 740.326 363.026 746.043L363.028 746.04Z" fill="black"/>
<path d="M489.881 943.493C471.319 937.313 449.282 925.626 431.803 902.643C415.057 880.623 417.664 871.274 421.135 865.814C422.888 863.055 427.787 855.83 440.786 854.634C453.786 853.437 466.018 861.719 471.278 869.017L478.178 878.77C485.083 890.019 493.9 905.821 502.113 920.546C502.147 920.619 502.18 920.693 502.214 920.767C505.265 927.439 510.218 938.272 509.665 948.54C499.526 944.927 492.27 940.807 487.206 936.019C487.28 939.243 488.417 941.576 489.881 943.493Z" fill="black"/>
<path d="M666.851 722.068C664.997 720.523 662.997 718.757 660.846 716.843C656.948 713.478 652.893 710.019 648.824 706.562C647.069 709.701 649.174 716.703 652.293 719.999C648.244 717.549 645.455 713.926 642.391 709.946C640.518 707.514 638.543 704.949 636.115 702.436C630.491 696.615 623.517 689.741 608.933 685.888C605.096 702.001 608.515 734.198 637.603 767.691L643.534 773.428C649.811 779.955 659.837 782.168 666.849 782.22C677.526 781.985 684.243 777.571 688.067 772.643C694.37 763.982 699.042 753.005 683.443 737.352C679.159 733.052 673.365 727.782 666.849 722.065L666.851 722.068Z" fill="black"/>
<path d="M793.705 943.493C775.142 937.313 753.105 925.626 735.626 902.643C718.88 880.623 721.487 871.274 724.958 865.814C726.711 863.055 731.61 855.83 744.609 854.634C757.609 853.437 769.842 861.719 775.101 869.017L782.001 878.77C788.906 890.019 797.723 905.821 805.936 920.546C805.97 920.619 806.004 920.693 806.038 920.767C809.088 927.439 814.041 938.272 813.488 948.54C803.349 944.927 796.093 940.807 791.029 936.019C791.103 939.243 792.24 941.576 793.705 943.493Z" fill="black"/>
<path d="M970.675 722.068C968.82 720.523 966.82 718.757 964.669 716.843C960.771 713.478 956.716 710.019 952.647 706.562C950.892 709.701 952.997 716.703 956.116 719.999C952.067 717.549 949.278 713.926 946.214 709.946C944.341 707.514 942.366 704.949 939.938 702.436C934.314 696.615 927.34 689.741 912.756 685.888C908.919 702.001 912.338 734.198 941.426 767.691L947.357 773.428C953.634 779.955 963.66 782.168 970.672 782.22C981.349 781.985 988.066 777.571 991.89 772.643C998.193 763.982 1002.86 753.005 987.266 737.352C982.982 733.052 977.189 727.782 970.672 722.065L970.675 722.068Z" fill="black"/>
<path d="M1097.53 855.371C1078.96 861.551 1056.93 873.238 1039.45 896.221C1022.7 918.24 1025.31 927.59 1028.78 933.05C1030.53 935.809 1035.43 943.034 1048.43 944.23C1061.43 945.426 1073.66 937.145 1078.92 929.847L1085.82 920.094C1092.73 908.845 1101.55 893.043 1109.76 878.318C1109.79 878.245 1109.83 878.171 1109.86 878.097C1112.91 871.425 1117.86 860.591 1117.31 850.324C1107.17 853.937 1099.92 858.057 1094.85 862.844C1094.93 859.621 1096.06 857.288 1097.53 855.371Z" fill="black"/>
<path d="M1274.5 722.068C1272.64 720.523 1270.64 718.757 1268.49 716.843C1264.59 713.478 1260.54 710.019 1256.47 706.562C1254.72 709.701 1256.82 716.703 1259.94 719.999C1255.89 717.549 1253.1 713.926 1250.04 709.946C1248.16 707.514 1246.19 704.949 1243.76 702.436C1238.14 696.615 1231.16 689.741 1216.58 685.888C1212.74 702.001 1216.16 734.198 1245.25 767.691L1251.18 773.428C1257.46 779.955 1267.48 782.168 1274.5 782.22C1285.17 781.985 1291.89 777.571 1295.71 772.643C1302.02 763.982 1306.69 753.005 1291.09 737.352C1286.81 733.052 1281.01 727.782 1274.5 722.065L1274.5 722.068Z" fill="black"/>
<path d="M1401.35 943.493C1382.79 937.313 1360.75 925.626 1343.27 902.643C1326.53 880.623 1329.13 871.274 1332.6 865.814C1334.36 863.055 1339.26 855.83 1352.26 854.634C1365.25 853.437 1377.49 861.719 1382.75 869.017L1389.65 878.77C1396.55 890.019 1405.37 905.821 1413.58 920.546C1413.62 920.619 1413.65 920.693 1413.68 920.767C1416.73 927.439 1421.69 938.272 1421.13 948.54C1411 944.927 1403.74 940.807 1398.67 936.019C1398.75 939.243 1399.89 941.576 1401.35 943.493Z" fill="black"/>
<path d="M1578.32 746.04C1576.47 747.584 1574.47 749.351 1572.32 751.264C1568.42 754.63 1564.36 758.089 1560.29 761.546C1558.54 758.406 1560.64 751.404 1563.76 748.108C1559.71 750.559 1556.92 754.182 1553.86 758.162C1551.99 760.594 1550.01 763.159 1547.58 765.671C1541.96 771.493 1534.99 778.367 1520.4 782.22C1516.57 766.106 1519.98 733.91 1549.07 700.417L1555 694.679C1561.28 688.153 1571.31 685.939 1578.32 685.888C1588.99 686.123 1595.71 690.537 1599.54 695.464C1605.84 704.126 1610.51 715.102 1594.91 730.756C1590.63 735.055 1584.83 740.326 1578.32 746.043L1578.32 746.04Z" fill="black"/>
<path d="M1705.17 943.493C1686.61 937.313 1664.57 925.626 1647.1 902.643C1630.35 880.623 1632.96 871.274 1636.43 865.814C1638.18 863.055 1643.08 855.83 1656.08 854.634C1669.08 853.437 1681.31 861.719 1686.57 869.017L1693.47 878.77C1700.38 890.019 1709.19 905.821 1717.41 920.546C1717.44 920.619 1717.47 920.693 1717.51 920.767C1720.56 927.439 1725.51 938.272 1724.96 948.54C1714.82 944.927 1707.56 940.807 1702.5 936.019C1702.57 939.243 1703.71 941.576 1705.17 943.493Z" fill="black"/>
<path d="M59.2053 1076.01C57.3506 1074.47 55.3505 1072.7 53.2 1070.79C49.3017 1067.42 45.2466 1063.96 41.178 1060.5C39.4228 1063.64 41.5276 1070.65 44.647 1073.94C40.5981 1071.49 37.8088 1067.87 34.7443 1063.89C32.872 1061.46 30.897 1058.89 28.4691 1056.38C22.8449 1050.56 15.8708 1043.68 1.2867 1039.83C-2.55003 1055.94 0.869167 1088.14 29.9566 1121.63L35.8876 1127.37C42.1644 1133.9 52.191 1136.11 59.2031 1136.16C69.8794 1135.93 76.5967 1131.51 80.4204 1126.59C86.7238 1117.93 91.3954 1106.95 75.7971 1091.29C71.5129 1087 65.7193 1081.73 59.2031 1076.01L59.2053 1076.01Z" fill="black"/>
<path d="M186.058 1209.31C167.495 1215.49 145.459 1227.18 127.98 1250.16C111.234 1272.18 113.841 1281.53 117.311 1286.99C119.065 1289.75 123.964 1296.98 136.963 1298.17C149.963 1299.37 162.195 1291.09 167.455 1283.79L174.355 1274.04C181.26 1262.79 190.077 1246.99 198.29 1232.26C198.324 1232.19 198.357 1232.11 198.391 1232.04C201.441 1225.37 206.395 1214.53 205.842 1204.27C195.703 1207.88 188.447 1212 183.383 1216.79C183.457 1213.56 184.594 1211.23 186.058 1209.31Z" fill="black"/>
<path d="M363.028 1076.01C361.174 1074.47 359.174 1072.7 357.023 1070.79C353.125 1067.42 349.07 1063.96 345.001 1060.5C343.246 1063.64 345.351 1070.65 348.47 1073.94C344.421 1071.49 341.632 1067.87 338.567 1063.89C336.695 1061.46 334.72 1058.89 332.292 1056.38C326.668 1050.56 319.694 1043.68 305.11 1039.83C301.273 1055.94 304.692 1088.14 333.78 1121.63L339.711 1127.37C345.988 1133.9 356.014 1136.11 363.026 1136.16C373.702 1135.93 380.42 1131.51 384.243 1126.59C390.547 1117.93 395.219 1106.95 379.62 1091.29C375.336 1087 369.542 1081.73 363.026 1076.01L363.028 1076.01Z" fill="black"/>
<path d="M489.881 1297.44C471.319 1291.26 449.282 1279.57 431.803 1256.59C415.057 1234.57 417.664 1225.22 421.135 1219.76C422.888 1217 427.787 1209.77 440.786 1208.58C453.786 1207.38 466.018 1215.66 471.278 1222.96L478.178 1232.71C485.083 1243.96 493.9 1259.76 502.113 1274.49C502.147 1274.56 502.18 1274.64 502.214 1274.71C505.265 1281.38 510.218 1292.22 509.665 1302.48C499.526 1298.87 492.27 1294.75 487.206 1289.96C487.28 1293.19 488.417 1295.52 489.881 1297.44Z" fill="black"/>
<path d="M666.851 1099.98C664.997 1101.53 662.997 1103.29 660.846 1105.21C656.948 1108.57 652.893 1112.03 648.824 1115.49C647.069 1112.35 649.174 1105.35 652.293 1102.05C648.244 1104.5 645.455 1108.12 642.391 1112.1C640.518 1114.53 638.543 1117.1 636.115 1119.61C630.491 1125.43 623.517 1132.31 608.933 1136.16C605.096 1120.05 608.515 1087.85 637.603 1054.36L643.534 1048.62C649.811 1042.09 659.837 1039.88 666.849 1039.83C677.526 1040.06 684.243 1044.48 688.067 1049.41C694.37 1058.07 699.042 1069.04 683.443 1084.7C679.159 1089 673.365 1094.27 666.849 1099.98L666.851 1099.98Z" fill="black"/>
<path d="M793.705 1297.44C775.142 1291.26 753.105 1279.57 735.626 1256.59C718.88 1234.57 721.487 1225.22 724.958 1219.76C726.711 1217 731.61 1209.77 744.609 1208.58C757.609 1207.38 769.842 1215.66 775.101 1222.96L782.001 1232.71C788.906 1243.96 797.723 1259.76 805.936 1274.49C805.97 1274.56 806.004 1274.64 806.038 1274.71C809.088 1281.38 814.041 1292.22 813.488 1302.48C803.349 1298.87 796.093 1294.75 791.029 1289.96C791.103 1293.19 792.24 1295.52 793.705 1297.44Z" fill="black"/>
<path d="M970.675 1076.01C968.82 1074.47 966.82 1072.7 964.669 1070.79C960.771 1067.42 956.716 1063.96 952.647 1060.5C950.892 1063.64 952.997 1070.65 956.116 1073.94C952.067 1071.49 949.278 1067.87 946.214 1063.89C944.341 1061.46 942.366 1058.89 939.938 1056.38C934.314 1050.56 927.34 1043.68 912.756 1039.83C908.919 1055.94 912.338 1088.14 941.426 1121.63L947.357 1127.37C953.634 1133.9 963.66 1136.11 970.672 1136.16C981.349 1135.93 988.066 1131.51 991.89 1126.59C998.193 1117.93 1002.86 1106.95 987.266 1091.29C982.982 1087 977.189 1081.73 970.672 1076.01L970.675 1076.01Z" fill="black"/>
<path d="M1097.53 1297.44C1078.96 1291.26 1056.93 1279.57 1039.45 1256.59C1022.7 1234.57 1025.31 1225.22 1028.78 1219.76C1030.53 1217 1035.43 1209.77 1048.43 1208.58C1061.43 1207.38 1073.66 1215.66 1078.92 1222.96L1085.82 1232.71C1092.73 1243.96 1101.55 1259.76 1109.76 1274.49C1109.79 1274.56 1109.83 1274.64 1109.86 1274.71C1112.91 1281.38 1117.86 1292.22 1117.31 1302.48C1107.17 1298.87 1099.92 1294.75 1094.85 1289.96C1094.93 1293.19 1096.06 1295.52 1097.53 1297.44Z" fill="black"/>
<path d="M1274.5 1076.01C1272.64 1074.47 1270.64 1072.7 1268.49 1070.79C1264.59 1067.42 1260.54 1063.96 1256.47 1060.5C1254.72 1063.64 1256.82 1070.65 1259.94 1073.94C1255.89 1071.49 1253.1 1067.87 1250.04 1063.89C1248.16 1061.46 1246.19 1058.89 1243.76 1056.38C1238.14 1050.56 1231.16 1043.68 1216.58 1039.83C1212.74 1055.94 1216.16 1088.14 1245.25 1121.63L1251.18 1127.37C1257.46 1133.9 1267.48 1136.11 1274.5 1136.16C1285.17 1135.93 1291.89 1131.51 1295.71 1126.59C1302.02 1117.93 1306.69 1106.95 1291.09 1091.29C1286.81 1087 1281.01 1081.73 1274.5 1076.01L1274.5 1076.01Z" fill="black"/>
<path d="M1401.35 1209.31C1382.79 1215.49 1360.75 1227.18 1343.27 1250.16C1326.53 1272.18 1329.13 1281.53 1332.6 1286.99C1334.36 1289.75 1339.26 1296.98 1352.26 1298.17C1365.25 1299.37 1377.49 1291.09 1382.75 1283.79L1389.65 1274.04C1396.55 1262.79 1405.37 1246.99 1413.58 1232.26C1413.62 1232.19 1413.65 1232.11 1413.68 1232.04C1416.73 1225.37 1421.69 1214.53 1421.13 1204.27C1411 1207.88 1403.74 1212 1398.67 1216.79C1398.75 1213.56 1399.89 1211.23 1401.35 1209.31Z" fill="black"/>
<path d="M1578.32 1076.01C1576.47 1074.47 1574.47 1072.7 1572.32 1070.79C1568.42 1067.42 1564.36 1063.96 1560.29 1060.5C1558.54 1063.64 1560.64 1070.65 1563.76 1073.94C1559.71 1071.49 1556.92 1067.87 1553.86 1063.89C1551.99 1061.46 1550.01 1058.89 1547.58 1056.38C1541.96 1050.56 1534.99 1043.68 1520.4 1039.83C1516.57 1055.94 1519.98 1088.14 1549.07 1121.63L1555 1127.37C1561.28 1133.9 1571.31 1136.11 1578.32 1136.16C1588.99 1135.93 1595.71 1131.51 1599.54 1126.59C1605.84 1117.93 1610.51 1106.95 1594.91 1091.29C1590.63 1087 1584.83 1081.73 1578.32 1076.01L1578.32 1076.01Z" fill="black"/>
<path d="M1705.17 1297.44C1686.61 1291.26 1664.57 1279.57 1647.1 1256.59C1630.35 1234.57 1632.96 1225.22 1636.43 1219.76C1638.18 1217 1643.08 1209.77 1656.08 1208.58C1669.08 1207.38 1681.31 1215.66 1686.57 1222.96L1693.47 1232.71C1700.38 1243.96 1709.19 1259.76 1717.41 1274.49C1717.44 1274.56 1717.47 1274.64 1717.51 1274.71C1720.56 1281.38 1725.51 1292.22 1724.96 1302.48C1714.82 1298.87 1707.56 1294.75 1702.5 1289.96C1702.57 1293.19 1703.71 1295.52 1705.17 1297.44Z" fill="black"/>
</g>
</g>
</svg>
