<svg width="199" height="151" viewBox="0 0 199 151" fill="none" xmlns="http://www.w3.org/2000/svg">
<path opacity="0.2" d="M5.99999 151C2.68628 151 0 148.314 0 145V84.6768C0 55.756 7.16253 34.6216 21.4876 21.2735C34.9149 8.76195 54.03 1.74765 78.833 0.230574C81.749 0.0522135 84.3102 2.09221 84.8929 4.95501L88.7905 24.1025C89.4875 27.5268 87.108 30.7957 83.6786 31.4674C61.2262 35.8649 50 47.6226 50 66.7403C50 68.3529 51.3073 69.6602 52.9199 69.6602H74.5785C77.8922 69.6602 80.5785 72.3465 80.5785 75.6602V145C80.5785 148.314 77.8922 151 74.5785 151H5.99999ZM115.504 151C112.19 151 109.504 148.314 109.504 145V84.6768C109.504 55.756 116.667 34.6216 130.992 21.2735C144.68 8.75919 163.817 1.74455 188.402 0.22957C191.289 0.0516473 193.834 2.0513 194.448 4.87822L198.606 24.0286C199.354 27.4769 196.966 30.7995 193.503 31.4784C170.837 35.9226 159.504 47.9547 159.504 67.5746C159.504 68.7264 160.438 69.6602 161.59 69.6602H184.083C187.396 69.6602 190.083 72.3465 190.083 75.6602V145C190.083 148.314 187.396 151 184.083 151H115.504Z" fill="url(#paint0_linear)"/>
<defs>
<linearGradient id="paint0_linear" x1="100" y1="-3.98544e-06" x2="200.77" y2="200.02" gradientUnits="userSpaceOnUse">
<stop stop-color="#F7A5B0"/>
<stop offset="1" stop-color="white"/>
</linearGradient>
</defs>
</svg>
