<svg width="332" height="271" fill="none" xmlns="http://www.w3.org/2000/svg"><path d="M63 240.093L82.306 227 278 231.538v10.118h-46.35L244.796 270l-4.432-3.199-28.622-18.301-60.699-2.753L124.375 270l13.822-21.426L63 240.093z" fill="#B5D7E0"/><path d="M140.972 237S125 266.428 125 265.903c.077-.524 3.549 2.097 3.549 2.097L150 237.075h-9.028V237z" fill="#828282"/><path d="M117.86 266.711l-4.439-11.911c-1.354-3.732.677-7.941 4.364-8.814l3.235-.794c3.686-.953 7.297 1.747 7.749 5.797l1.203 12.784c.301 3.414-1.88 6.511-5.04 7.146-3.01.477-5.944-1.191-7.072-4.208zM228.306 237S243 266.428 243 265.903c-.071-.524-3.265 2.097-3.265 2.097L220 237.075h8.306V237z" fill="#828282"/><path d="M251.426 266.711l4.178-11.911c1.274-3.732-.638-7.941-4.107-8.814l-3.045-.794c-3.469-.953-6.868 1.747-7.293 5.797l-1.133 12.784c-.283 3.414 1.77 6.511 4.744 7.146 2.832.477 5.594-1.191 6.656-4.208zM100 174.396L66 169v2.698L100 183v-8.604zm177.601-31.401c-3.769-.149-6.741-3.487-6.596-7.344l.218-4.896c.145-3.857 3.406-6.898 7.176-6.75 3.769.149 6.741 3.487 6.596 7.344l-.218 4.896c-.145 3.857-3.406 6.898-7.176 6.75z" fill="#828282"/><path d="M269 169.8l9.18-5.925c5.15-3.3 6.866-10.05 3.881-15.45L276.239 138h4.478l9.404 10.725c4.404 5.025 3.657 12.675-1.567 16.8L274 177l-5-7.2z" fill="#828282"/><path d="M100.28 237L93 104h185l-7.73 133H100.28z" fill="#fff"/><path fill-rule="evenodd" clip-rule="evenodd" d="M92.308 103.355c.212-.227.507-.355.816-.355h184.752c.309 0 .605.129.818.356.212.227.322.533.304.844l-7.72 132.733a1.128 1.128 0 01-1.122 1.067H100.394c-.596 0-1.09-.47-1.122-1.071l-7.27-132.733a1.137 1.137 0 01.306-.841zm2.004 1.913l7.146 130.464h167.638l7.588-130.464H94.312z" fill="#828282"/><path d="M232 131h30.709l.291 1.714-31 .286v-2zm0 6h30.709l.291 1.786-31 .214v-2zm0 6h30.709l.291 1.786-31 .214v-2zm0 6h22.784l.216 1.786-23 .214v-2z" fill="#D8EBF0"/><path d="M99 127l16.323 85.043c1.128 5.957 6.243 10.425 12.336 10.872L262 232H104.566L99 127z" fill="#EBEFF0"/><path d="M93 104l1.651 17h181.473L278 104H93z" fill="#25587D"/><path fill-rule="evenodd" clip-rule="evenodd" d="M92.29 103.384c.213-.245.516-.384.834-.384h184.752c.321 0 .626.142.839.39.214.248.315.578.277.908l-1.873 16.673c-.066.587-.546 1.029-1.117 1.029H94.773c-.576 0-1.06-.451-1.118-1.045l-1.65-16.673a1.195 1.195 0 01.285-.898zm2.08 1.943l1.418 14.346h179.213l1.612-14.346H94.369z" fill="#828282"/><path d="M99.976 112L230 115.265l-.826 2.735H99l.976-6z" fill="#1D425D"/><path d="M243 117a4 4 0 100-8 4 4 0 000 8zm11 0a4 4 0 100-8 4 4 0 000 8zm12 0a4 4 0 100-8 4 4 0 000 8z" fill="#fff"/><path fill-rule="evenodd" clip-rule="evenodd" d="M132.801 146.418c1.287-1.602 3.673-1.889 5.327-.643l27.407 20.651c1.655 1.246 1.952 3.555.664 5.156-1.287 1.602-3.673 1.889-5.327.643l-27.407-20.651c-1.655-1.246-1.952-3.555-.664-5.156z" fill="#828282"/><path fill-rule="evenodd" clip-rule="evenodd" d="M166.199 146.418c1.288 1.601.991 3.91-.664 5.156l-27.407 20.651c-1.654 1.246-4.04.959-5.327-.643-1.288-1.601-.991-3.91.664-5.156l27.407-20.651c1.654-1.246 4.04-.959 5.327.643zm35.58.055c1.253-1.663 3.575-1.963 5.186-.669l26.608 21.368c1.611 1.294 1.901 3.691.648 5.355-1.253 1.663-3.575 1.963-5.186.669l-26.608-21.368c-1.611-1.294-1.901-3.691-.648-5.355z" fill="#828282"/><path fill-rule="evenodd" clip-rule="evenodd" d="M234.221 146.473c1.253 1.664.963 4.061-.648 5.355l-26.608 21.368c-1.611 1.294-3.933.994-5.186-.669-1.253-1.664-.963-4.061.648-5.355l26.608-21.368c1.611-1.294 3.933-.994 5.186.669zm-23.746 60.4c-13.492-13.574-35.458-13.574-48.95 0a3.803 3.803 0 01-5.405 0 3.862 3.862 0 010-5.439c16.476-16.579 43.284-16.579 59.76 0a3.862 3.862 0 010 5.439 3.803 3.803 0 01-5.405 0z" fill="#828282"/><path d="M53 68.3L66.8 218l7.2-.15L56.9 68l-3.9.3z" fill="#fff"/><path fill-rule="evenodd" clip-rule="evenodd" d="M57.098 67.003c.623-.046 1.172.392 1.243.991l17.652 149.609c.037.313-.065.627-.28.864a1.174 1.174 0 01-.85.383l-7.432.15c-.61.012-1.125-.432-1.181-1.018L52.005 68.522a1.095 1.095 0 01.269-.825c.2-.23.488-.372.798-.395l4.026-.299zm-2.672 2.447l14.038 147.287 5.077-.102L56.16 69.322l-1.734.128z" fill="#828282"/><path d="M65.601 181.994c-3.769-.156-6.74-3.669-6.596-7.73l.217-5.153c.145-4.06 3.407-7.262 7.177-7.106 3.769.157 6.74 3.67 6.596 7.731l-.218 5.153c-.145 4.138-3.406 7.262-7.176 7.105z" fill="#828282"/><path d="M37.697 105L5.383 78.926 1 37.623l26.149-32.24L68.377 1l32.24 26.074L105 68.377l-26.074 32.24L37.697 105z" fill="#EF425A"/><path fill-rule="evenodd" clip-rule="evenodd" d="M68.87.006c.296-.031.593.056.825.244l32.474 26.263c.231.187.379.459.41.755l4.415 41.602c.031.296-.056.593-.244.825l-26.263 32.474a1.122 1.122 0 01-.754.41l-41.528 4.415a1.124 1.124 0 01-.824-.243L4.832 80.487a1.123 1.123 0 01-.411-.755L.006 38.13a1.122 1.122 0 01.245-.826L26.589 4.83c.187-.23.458-.378.753-.409L68.87.006zM28.04 6.604L2.289 38.356l4.316 40.677 31.825 25.679 40.604-4.316 25.679-31.751-4.316-40.678-31.751-25.68L28.04 6.605z" fill="#828282"/><path d="M331 24.349L177 20l1.57 74.38 30.576.975L206.978 115l28.108-16.72 2.991-2.025 85.821 2.7L331 24.348z" fill="#EF425A"/><path fill-rule="evenodd" clip-rule="evenodd" d="M175.333 19.33c.219-.22.517-.338.826-.33l154.746 4.383a1.126 1.126 0 011.09 1.24l-7.136 75.182a1.13 1.13 0 01-1.157 1.025l-85.874-2.709-2.703 1.835a.86.86 0 01-.055.036l-28.245 16.849a1.12 1.12 0 01-1.186-.022 1.136 1.136 0 01-.509-1.077l2.044-18.578-29.505-.943a1.13 1.13 0 01-1.091-1.11L175 20.158c-.006-.31.114-.61.333-.828zm1.945 1.97l1.53 72.69 29.656.947a1.128 1.128 0 011.084 1.258l-1.93 17.537 26.274-15.673 2.977-2.022c.196-.133.429-.2.666-.193l85.181 2.687 6.921-72.916L177.278 21.3z" fill="#828282"/><path d="M99.714 118L98 108l10 10h-8.286z" fill="#1D425D"/><path d="M230 219.854V185h35l-2.761 36L230 219.854zm-121.276-80.561L108 127h27l-1.231 13-25.045-.707zM129 188h-12v9h12v-9zm15 0h-12v9h12v-9zm-15 12h-12v9h12v-9zm15 0h-12v9h12v-9z" fill="#D8EBF0"/><path d="M38.641 58.486l.551 5.725-3.354.322.512 5.323-6.217.598-.512-5.322-14.803 1.424-.55-5.725 8.47-21.262 6.62-.637L20.93 60.19l8.14-.783-.715-7.424 6.217-.598.714 7.424 3.354-.323zm15.841 10.257c-3.906.376-7.119-.805-9.64-3.541-2.492-2.77-3.975-6.614-4.449-11.534-.473-4.92.251-8.96 2.174-12.125 1.95-3.197 4.877-4.983 8.782-5.359 3.936-.378 7.15.817 9.644 3.586 2.49 2.74 3.972 6.57 4.445 11.489.474 4.92-.25 8.976-2.17 12.17-1.921 3.164-4.85 4.935-8.786 5.314zm-5.571-8.176c1.24 1.627 2.903 2.34 4.99 2.138 2.087-.2 3.583-1.232 4.487-3.094.934-1.866 1.242-4.453.923-7.763-.321-3.339-1.118-5.835-2.39-7.488-1.243-1.656-2.908-2.383-4.995-2.183-2.087.201-3.583 1.233-4.487 3.095-.904 1.862-1.195 4.463-.874 7.803.321 3.339 1.103 5.837 2.346 7.492zm43.844-7.287l.55 5.724-3.354.323.512 5.322-6.216.598-.512-5.322L68.93 61.35l-.55-5.725 8.471-21.262 6.62-.637-8.428 21.258 8.14-.783-.714-7.424 6.216-.599.715 7.425 3.354-.323zm122.142-15.45l6.956.195-11.299 25.256c-3.014 6.775-7.742 9.888-14.182 9.337l.181-6.5c1.877.22 3.396.01 4.558-.63 1.195-.673 2.201-1.771 3.017-3.295l-10.852-24.968 6.955.195 7.235 17.25 7.431-16.84zm31.589 10.972L245.781 74l-6.502-.182.535-19.101-10.03-.28-.534 19.1-6.502-.181.705-25.2 23.033.645zm17.227 26.407c-3.797-.106-6.937-1.472-9.419-4.097-2.448-2.624-3.62-5.818-3.514-9.58.105-3.764 1.453-6.887 4.045-9.37 2.625-2.482 5.835-3.67 9.632-3.564 2.453.069 4.671.72 6.654 1.952 1.983 1.232 3.468 2.854 4.454 4.866l-5.686 3.119c-.475-1.056-1.225-1.9-2.25-2.534-.991-.633-2.125-.968-3.401-1.003-1.949-.055-3.58.555-4.894 1.83-1.312 1.24-1.997 2.87-2.053 4.885-.055 1.983.537 3.647 1.777 4.993 1.241 1.312 2.836 1.996 4.785 2.05 1.31.037 2.477-.216 3.501-.76 1.059-.575 1.855-1.376 2.388-2.404l5.554 3.384c-1.164 1.951-2.771 3.503-4.821 4.656-2.049 1.12-4.3 1.645-6.752 1.577zm20.291-.744c-.864.817-1.884 1.209-3.059 1.176-1.176-.033-2.173-.482-2.989-1.345-.817-.864-1.208-1.883-1.176-3.06.033-1.175.482-2.171 1.345-2.988.864-.816 1.883-1.208 3.059-1.175 1.176.033 2.172.48 2.989 1.344.816.864 1.208 1.884 1.175 3.06-.033 1.175-.481 2.172-1.344 2.988zm13.485.378c-.863.816-1.883 1.208-3.059 1.175-1.176-.033-2.172-.481-2.989-1.345-.816-.863-1.208-1.883-1.175-3.059.033-1.176.481-2.172 1.345-2.989.863-.816 1.883-1.208 3.059-1.175 1.176.033 2.172.481 2.989 1.345.816.863 1.208 1.883 1.175 3.059-.033 1.176-.481 2.172-1.345 2.989zm13.486.377c-.864.816-1.883 1.208-3.059 1.175-1.176-.033-2.172-.48-2.989-1.344-.816-.864-1.208-1.884-1.175-3.06.033-1.175.481-2.172 1.344-2.988.864-.817 1.884-1.209 3.06-1.176 1.175.033 2.172.481 2.988 1.345.817.864 1.208 1.883 1.176 3.06-.033 1.175-.482 2.171-1.345 2.988z" fill="#fff"/></svg>