<svg xmlns="http://www.w3.org/2000/svg" xmlns:xlink="http://www.w3.org/1999/xlink" width="23" height="31" fill="none"><g fill="#ee5f3a"><path d="M20.442.768H3.17A2.47 2.47 0 00.702 3.236v24.68a2.47 2.47 0 002.468 2.468h17.273a2.47 2.47 0 002.468-2.468V3.236A2.47 2.47 0 0020.442.768zm1.234 27.147c0 .68-.553 1.234-1.234 1.234H3.17c-.68 0-1.234-.554-1.234-1.234V3.236c0-.68.553-1.234 1.234-1.234h17.273c.68 0 1.234.554 1.234 1.234v24.68zm-1.85-24.678H3.786a.62.62 0 00-.617.617V14.96a.62.62 0 00.617.617h16.04a.62.62 0 00.617-.617V3.854a.62.62 0 00-.617-.617zm-.617 11.106H4.403V4.47h14.805v9.872z"/><use xlink:href="#B"/><path d="M7.487 16.8h-3.7a.617.617 0 00-.617.617v3.7c0 .34.276.617.617.617h3.7c.34 0 .617-.276.617-.617v-3.7a.617.617 0 00-.617-.617zm-.617 3.7H4.403v-2.468H6.87V20.5z"/><use xlink:href="#B" x="6.169"/><path d="M13.657 22.98h-3.7a.62.62 0 00-.617.617v3.7a.62.62 0 00.617.617h3.7a.62.62 0 00.617-.617v-3.7a.62.62 0 00-.617-.617zm-.617 3.7h-2.468v-2.467h2.468v2.467zm-5.553-3.7h-3.7a.62.62 0 00-.617.617v3.7a.62.62 0 00.617.617h3.7a.62.62 0 00.617-.617v-3.7a.62.62 0 00-.617-.617zm-.617 3.7H4.403v-2.467H6.87v2.467zm12.956-3.7h-3.7a.62.62 0 00-.617.617v3.7a.62.62 0 00.617.617h3.7a.62.62 0 00.617-.617v-3.7a.62.62 0 00-.617-.617zm-.617 3.7h-2.47v-2.467h2.468v2.467zM14.9 13.106h1.234c1.02 0 1.85-.83 1.85-1.85V7.553c0-1.02-.83-1.85-1.85-1.85H14.9c-1.02 0-1.85.83-1.85 1.85v3.702c0 1.02.83 1.85 1.85 1.85zm1.85-1.85a.62.62 0 01-.617.617H14.9a.615.615 0 01-.574-.405l2.425-2.425v2.212zm-2.468-3.702a.62.62 0 01.617-.617h1.234c.265 0 .487.17.574.404l-2.424 2.425V7.553z"/></g><defs><path id="B" d="M13.657 16.8h-3.7a.617.617 0 00-.617.617v3.7c0 .34.276.617.617.617h3.7c.34 0 .617-.276.617-.617v-3.7a.617.617 0 00-.617-.617zm-.617 3.7h-2.468v-2.468h2.468V20.5z"/></defs></svg>