<svg xmlns="http://www.w3.org/2000/svg" fill="#15aa15" viewBox="0 0 27 27"><path d="M23.126 13.248a11.2 11.2 0 00.119-1.508c0-6.3-5.132-11.442-11.44-11.442S.364 5.43.364 11.74s5.132 11.442 11.44 11.442c.483 0 .986-.047 1.508-.12a7.229 7.229 0 006.32 3.732c3.984 0 7.226-3.242 7.226-7.227a7.23 7.23 0 00-3.731-6.321zm-10.32 8.67c-.344.037-.678.06-1 .06A10.25 10.25 0 011.569 11.74 10.25 10.25 0 0111.805 1.503 10.25 10.25 0 0122.041 11.74a9.48 9.48 0 01-.061 1.001 7.18 7.18 0 00-2.347-.399c-3.984 0-7.225 3.242-7.225 7.227a7.18 7.18 0 00.399 2.348zm6.826 3.674a6.03 6.03 0 01-6.021-6.022 6.03 6.03 0 016.021-6.022 6.03 6.03 0 016.021 6.022 6.03 6.03 0 01-6.021 6.022zm-.3-8.434h2.107a.602.602 0 100-1.204h-1.204v-.602a.602.602 0 10-1.204 0v.633a2.103 2.103 0 00-1.806 2.077 2.11 2.11 0 002.108 2.108h.602c.497 0 .903.405.903.903s-.406.903-.903.903h-2.107a.602.602 0 000 1.204h1.204v.602a.602.602 0 101.204 0v-.633a2.103 2.103 0 001.806-2.077 2.11 2.11 0 00-2.107-2.108h-.602a.904.904 0 010-1.806zM11.804 3.9a.6.6 0 00-.602.602v6.977l-3.436 3.437a.6.6 0 10.852.851l3.613-3.613a.6.6 0 00.176-.426V4.514a.6.6 0 00-.602-.602z"/></svg>