<svg xmlns="http://www.w3.org/2000/svg" width="50" height="51" fill="#aab3c5"><path d="M47.727 26.925V5.53A4.55 4.55 0 0043.182.986H4.545A4.55 4.55 0 000 5.531v38.636a4.55 4.55 0 004.545 4.545H25.94a15.788 15.788 0 008.152 2.273c8.77 0 15.9-7.137 15.9-15.9 0-2.98-.84-5.764-2.273-8.152zM25 3.26h18.182a2.275 2.275 0 012.273 2.273v18.433c-2.9-2.955-6.914-4.797-11.364-4.797-3.38 0-6.5 1.068-9.1 2.872V3.26zM2.273 5.53a2.276 2.276 0 012.273-2.273h18.182V23.71H2.273V5.53zm2.273 40.9a2.275 2.275 0 01-2.273-2.273v-18.18h18.78a15.793 15.793 0 00-2.872 9.1c0 4.45 1.842 8.474 4.797 11.364H4.545zm29.545 2.273c-7.52 0-13.636-6.117-13.636-13.636S26.57 21.44 34.1 21.44s13.636 6.117 13.636 13.636S41.6 48.713 34.1 48.713zm-17.045-36.36h-3.4v-3.4a1.135 1.135 0 10-2.272 0v3.4h-3.4a1.135 1.135 0 10.001 2.272h3.4v3.4a1.135 1.135 0 102.272 0v-3.4h3.4a1.135 1.135 0 10-.001-2.272zm23.864 1.13c0-.628-.508-1.136-1.136-1.136h-9.1a1.135 1.135 0 100 2.272h9.1c.628 0 1.136-.508 1.136-1.136zM16.713 32a1.136 1.136 0 00-1.607 0L12.5 34.605 9.895 32a1.136 1.136 0 10-1.607 1.607l2.606 2.606-2.606 2.606a1.136 1.136 0 00.803 1.94 1.13 1.13 0 00.803-.333L12.5 37.82l2.606 2.606c.222.222.513.333.804.333a1.13 1.13 0 00.803-.333 1.136 1.136 0 000-1.607l-2.606-2.606 2.606-2.606a1.136 1.136 0 000-1.607zm23.06-1.47H28.4a1.135 1.135 0 100 2.272h11.364a1.135 1.135 0 100-2.272zm0 6.82H28.4a1.135 1.135 0 100 2.272h11.364a1.135 1.135 0 100-2.272z"/></svg>