<svg width="36" height="35" fill="none" xmlns="http://www.w3.org/2000/svg"><path d="M35.699 16.06a.543.543 0 00.035-.17.566.566 0 00-.03-.18l-.046-.126c-.487-4.576-2.824-8.776-6.497-11.677-.263-.208-.537-.396-.811-.588-.014-.011-.021-.027-.036-.037-.015-.01-.027-.01-.04-.017A18.285 18.285 0 0017.86 0c-.154 0-.308 0-.424.011a17.925 17.925 0 00-5.83 1.09A5.49 5.49 0 005.952.53c-1.843.876-3.01 2.697-3.007 4.69.036.663.194 1.315.468 1.923a17.348 17.348 0 00-1.602 2.565c-.009.014-.014.03-.022.044-4.23 8.501-.71 18.73 7.93 23.048 8.64 4.317 19.247 1.146 23.898-7.145a16.762 16.762 0 002.116-7.406c.019-.28.025-.565.025-.85 0-.45-.024-.895-.06-1.339zm-1.734-2.976c-.076-.066-.146-.141-.225-.201a7.952 7.952 0 00-2.605-1.265 5.764 5.764 0 00-2.616-.027 5.301 5.301 0 01-2.228.011c-1.427-.303-2.554-.541-3.152-1.47-.856-1.333-.454-3.208.45-3.868.297-.2.664-.276 1.02-.212a3.912 3.912 0 001.85-.302 4.782 4.782 0 001.61-1.193c.113.085.232.161.343.249a16.183 16.183 0 015.553 8.278zM8.315 1.161c2.304.003 4.172 1.819 4.176 4.06 0 1.734-2.68 5.705-4.177 7.719a36.255 36.255 0 01-3.68-5.945 4.729 4.729 0 01-.496-1.775c.003-2.24 1.87-4.057 4.176-4.06zm-7.16 16.238c.002-1.081.114-2.159.335-3.218.063.806.171 1.523.268 2.145.37 2.378.72 4.62 2.522 6.67.754.863 2.017 2.307 3.969 2.52 1.952.214 4.396-.878 5.102-1.217l.271-.133c.376-.23.804-.363 1.247-.388a2.972 2.972 0 011.952.969c1.018 1.095 1.276 2.925.553 3.914-.232.294-.552.51-.917.62a2.775 2.775 0 00-1.496 1.16 3.492 3.492 0 00-.258 2.899C6.846 31.86 1.167 25.178 1.155 17.399zM17.86 33.636c-.576 0-1.152-.028-1.726-.086a2.069 2.069 0 01-.136-.19 2.407 2.407 0 01-.011-2.327c.215-.332.548-.576.936-.685a2.969 2.969 0 001.423-1.015c1.038-1.418.744-3.876-.638-5.362a4.141 4.141 0 00-2.826-1.353h-.027a3.692 3.692 0 00-1.777.514l-.255.126c-1.303.624-3.158 1.242-4.442 1.101-1.481-.16-2.51-1.34-3.193-2.12-1.582-1.797-1.892-3.787-2.25-6.089a16.205 16.205 0 01-.045-5.964c.32-.63.68-1.238 1.081-1.822.02.039.042.078.06.117a115.563 115.563 0 01.298.55 21.956 21.956 0 00.317.553l.13.22a63.321 63.321 0 00.331.543c.07.116.142.225.213.337l.12.19c.087.137.175.27.263.406l.07.106c.108.164.217.325.323.481l.12.174c.065.096.13.192.194.283l.142.201.153.218.143.2.131.181c.042.06.09.125.134.185l.11.15.119.16.097.13.095.128.077.102.073.096.044.058.105.137c.112.146.29.233.477.233a.602.602 0 00.477-.233c.501-.645 4.894-6.37 4.894-9.05 0-.17-.011-.337-.028-.504-.005-.052-.013-.104-.02-.155a4.115 4.115 0 00-.06-.348 4.603 4.603 0 00-.133-.516c-.014-.047-.027-.094-.043-.14a5.069 5.069 0 00-.182-.458c-.013-.029-.029-.058-.043-.084a5.58 5.58 0 00-.188-.357c-.03-.052-.062-.102-.094-.154a6.392 6.392 0 00-.293-.424c-.02-.025-.037-.052-.06-.077a16.7 16.7 0 013.835-.773c-.93 1.707-1.234 3.286-.887 4.698a6 6 0 001.432 2.537c.561.676.965 1.163.94 1.958-.051 1.681-2.005 3.082-2.744 3.61a10.4 10.4 0 01-3.204 1.505c-1.084.344-2.019.64-2.376 1.677-.353 1.37.227 2.806 1.445 3.576a3.09 3.09 0 002.377.204 7.546 7.546 0 012.633-.122c1.133.156 2.11.29 2.574.92.275.378.261.767.207 1.482a6.84 6.84 0 00.31 3.006c.272.793.683 1.991 1.67 2.13.065.01.13.014.194.014.699 0 1.127-.6 1.576-1.23.2-.28.418-.58.68-.882 1.228 1.928 2.476 3.537 2.534 3.614.113.146.29.232.477.232a.603.603 0 00.478-.232 48.09 48.09 0 003.53-5.286 7.974 7.974 0 012.073.918c-2.985 5.002-8.485 8.08-14.434 8.077zm11.136-15.781a4 4 0 011.393 3.023c0 .417-.174 1.244-1.002 2.814a43.06 43.06 0 01-3.175 4.903 50.403 50.403 0 01-2.391-3.528 21.23 21.23 0 01-1.289-2.414 4.728 4.728 0 01-.496-1.775c.003-2.24 1.871-4.057 4.176-4.06a4.198 4.198 0 012.783 1.036zm5.548.334a15.623 15.623 0 01-1.68 6.347 9.194 9.194 0 00-2.095-.949 6.73 6.73 0 00.813-2.709c-.005-1.99-1.169-3.806-3.005-4.687l-.038-.016a5.927 5.927 0 00-.407-.174c-.095-.036-.194-.064-.29-.094-.06-.017-.114-.04-.172-.058a5.357 5.357 0 00-.468-.106h-.008c-.095-.017-.191-.026-.288-.038a5.436 5.436 0 00-4.249 1.239 5.12 5.12 0 00-1.814 3.934c.046.773.247 1.53.59 2.229.335.74.712 1.461 1.13 2.16-.372.397-.713.82-1.02 1.267-.165.273-.372.52-.615.73-.12-.018-.34-.265-.716-1.35a5.793 5.793 0 01-.25-2.555 3.03 3.03 0 00-.427-2.239c-.762-1.035-2.091-1.217-3.385-1.396a8.643 8.643 0 00-3.018.132c-.763.142-1.117.195-1.523-.05a2.17 2.17 0 01-.942-2.224c.159-.463.636-.631 1.61-.942a11.593 11.593 0 003.545-1.674c.87-.62 3.162-2.265 3.231-4.509.038-1.228-.594-1.985-1.204-2.718a4.98 4.98 0 01-1.198-2.073c-.317-1.292.076-2.807 1.14-4.505h.069a17.09 17.09 0 019.233 2.713c-.317.342-.699.62-1.126.818a2.74 2.74 0 01-1.322.201 2.557 2.557 0 00-1.774.443c-1.352.99-1.959 3.515-.743 5.41.866 1.344 2.344 1.657 3.959 2a6.421 6.421 0 002.634-.012 4.626 4.626 0 012.118.007 6.727 6.727 0 012.166 1.053 4.751 4.751 0 011.48 2.057c.05.512.08 1.026.08 1.548 0 .259-.005.521-.023.79h.002z" fill="#00A94F"/><path d="M8.314 6.96c1.318 0 2.386-1.039 2.386-2.32S9.632 2.32 8.314 2.32 5.927 3.36 5.927 4.64s1.069 2.32 2.387 2.32zm0-3.48c.659 0 1.193.52 1.193 1.16 0 .64-.534 1.16-1.193 1.16S7.12 5.28 7.12 4.64c0-.64.534-1.16 1.193-1.16zm15.512 16.818c0 1.282 1.068 2.32 2.386 2.32s2.386-1.038 2.386-2.32c0-1.28-1.068-2.32-2.386-2.32s-2.386 1.04-2.386 2.32zm3.58 0c0 .64-.535 1.16-1.194 1.16-.659 0-1.193-.52-1.193-1.16 0-.64.534-1.16 1.193-1.16s1.193.52 1.193 1.16z" fill="#00A94F"/></svg>