<svg xmlns="http://www.w3.org/2000/svg" width="58" height="47" fill="#b2bbcb"><path d="M54.93 39.52h-1.6v-25.3a.85.85 0 00-.847-.847.85.85 0 00-.847.847v25.3H5.403V9.607A4.123 4.123 0 019.52 5.489h6.793a17 17 0 00-1.978 2.513h-4.002a3.154 3.154 0 00-3.15 3.15v23.513a3.154 3.154 0 003.15 3.15h36.36a3.153 3.153 0 003.15-3.15V11.152a3.153 3.153 0 00-3.15-3.15H42.69c-.58-.9-1.243-1.74-1.978-2.513h6.793c2.27 0 4.12 1.847 4.12 4.118v5.7a.85.85 0 00.847.847.85.85 0 00.847-.847v-5.7a5.82 5.82 0 00-5.812-5.812H38.84A16.77 16.77 0 0028.513.252a16.77 16.77 0 00-10.326 3.543H9.52a5.82 5.82 0 00-5.812 5.812V39.52h-1.6A2.1 2.1 0 000 41.617a4.65 4.65 0 004.642 4.642h47.745a4.65 4.65 0 004.642-4.642 2.1 2.1 0 00-2.098-2.098zM43.677 17.1c0 8.363-6.802 15.166-15.164 15.166a15.146 15.146 0 01-9.954-3.726.847.847 0 00-1.195.082.85.85 0 00.082 1.195 16.84 16.84 0 0011.067 4.144c9.295 0 16.858-7.564 16.858-16.86a16.76 16.76 0 00-1.721-7.415h3.044a1.46 1.46 0 011.455 1.456v23.512a1.46 1.46 0 01-1.455 1.455h-36.36a1.456 1.456 0 01-1.455-1.455v-23.51a1.46 1.46 0 011.455-1.456h3.044a16.76 16.76 0 00-1.72 7.415 16.71 16.71 0 003.377 10.123c.28.374.812.45 1.186.168a.85.85 0 00.168-1.186 15.048 15.048 0 01-3.037-9.104c0-8.362 6.802-15.165 15.162-15.165S43.677 8.75 43.677 17.1zm-11.33 24.1c-.3.496-.83.83-1.446.83h-4.775a1.676 1.676 0 01-1.446-.83h7.666zm20.04 3.352H4.642a2.95 2.95 0 01-2.948-2.948c0-.223.18-.404.404-.404h20.767a3.376 3.376 0 003.262 2.523H30.9a3.376 3.376 0 003.262-2.523H54.93c.223 0 .404.18.404.404a2.95 2.95 0 01-2.948 2.948zm-33.13-22.357l4.162 4.163c.16.16.374.248.6.248a.85.85 0 00.599-.248l3.896-3.896 3.896 3.896a.846.846 0 00.6.248.85.85 0 00.6-.248l4.162-4.163a.85.85 0 000-1.197l-3.9-3.908 3.896-3.897a.85.85 0 000-1.198l-4.162-4.163a.85.85 0 00-1.198 0l-3.896 3.897-3.896-3.897a.85.85 0 00-1.198 0l-4.162 4.163a.85.85 0 000 1.198l3.896 3.897-3.896 3.896a.85.85 0 000 1.198zm5.693-4.496a.85.85 0 000-1.198l-3.896-3.896L24.02 9.65l3.896 3.897a.85.85 0 001.198 0L33 9.65l2.964 2.965-3.896 3.896a.85.85 0 000 1.198l3.896 3.897L33 24.57l-3.896-3.897a.846.846 0 00-1.2 0L24.02 24.57l-2.964-2.965 3.896-3.897z"/></svg>