<svg width="38" height="37" fill="none" xmlns="http://www.w3.org/2000/svg"><path d="M24.861 0C17.78 0 12.018 5.61 12.018 12.505c0 1.534.28 3.023.832 4.438L.57 28.9a.9.9 0 00-.275.644v6.544c0 .503.42.911.936.911H6.77a.949.949 0 00.661-.266l1.867-1.815a.9.9 0 00.274-.645v-2.231h2.289a.924.924 0 00.936-.911v-.894h.917a.924.924 0 00.936-.91v-1.962h2.014a.95.95 0 00.662-.267l2.978-2.9c1.453.54 2.983.812 4.558.812 7.082 0 12.844-5.61 12.844-12.506C37.705 5.61 31.943 0 24.86 0zm0 23.188a11.14 11.14 0 01-4.404-.895.955.955 0 00-1.03.182l-.008.008-3.143 3.06h-2.563a.924.924 0 00-.935.912v1.96h-.918a.924.924 0 00-.936.912v.893H8.635a.924.924 0 00-.936.912v2.764l-1.317 1.281H2.167V33.89l11.44-11.139a.805.805 0 000-1.16.859.859 0 00-1.191 0L2.167 31.57v-1.647l12.446-12.12.008-.007a.894.894 0 00.188-1.003 10.37 10.37 0 01-.919-4.287c0-5.891 4.922-10.683 10.971-10.683 6.05 0 10.972 4.792 10.972 10.683 0 5.89-4.922 10.682-10.972 10.682z" fill="#0039FF"/><path d="M28.77 5.286c-1.933 0-3.506 1.532-3.506 3.414 0 1.882 1.573 3.413 3.506 3.413 1.933 0 3.506-1.53 3.506-3.413 0-1.882-1.573-3.414-3.506-3.414zm0 5.005c-.9 0-1.634-.714-1.634-1.591s.733-1.591 1.634-1.591c.901 0 1.634.714 1.634 1.59 0 .878-.733 1.592-1.634 1.592z" fill="#0039FF"/></svg>