<svg xmlns="http://www.w3.org/2000/svg" width="60" height="46" fill="#1a1a1a"><path d="M52.5 29.006c-2.44 0-7.5 1.36-10.065 2.096-.34-3.588-4.937-4.857-9.686-5.822-2.168-.44-3.782-1.217-5.342-1.97-1.924-.928-3.74-1.805-6.157-1.805-2.768 0-5.3.566-6.713.958a3.74 3.74 0 00-2.862-2.648L1.494 17.78a1.255 1.255 0 00-1.038.26 1.24 1.24 0 00-.456.964v20.003a1.25 1.25 0 001.25 1.25h7.832c1.544 0 2.86-.982 3.425-2.36 2.8 1.335 15.745 7.36 21.243 7.36 4.85 0 14.832-4.908 21.436-8.155l4.067-1.95A1.25 1.25 0 0060 34.006c0-2.945-3.083-5-7.5-5zM12.178 23.67L10.32 36.684a1.26 1.26 0 01-1.238 1.073H2.5V20.53l8.687 1.737a1.25 1.25 0 01.991 1.403zm41.904 11.2c-6.008 2.954-16.064 7.9-20.332 7.9-4.546 0-16.487-5.324-20.703-7.375l1.456-10.306c.9-.285 3.694-1.07 6.747-1.07 1.846 0 3.27.687 5.073 1.557 1.62.78 3.454 1.667 5.928 2.17 5.432 1.1 7.75 2.23 7.75 3.775a.74.74 0 01-.33.67c-.794.595-3.9 1.593-15.564-1.87a1.253 1.253 0 00-1.555.844 1.25 1.25 0 00.842 1.554c5.76 1.707 10.16 2.558 13.28 2.558 2.034 0 3.525-.36 4.5-1.083.083-.062.144-.138.22-.205.08-.01.156.001.235-.024 2.2-.68 8.472-2.445 10.88-2.445 2.04 0 4.185.62 4.814 1.783l-3.232 1.57zM38.75 22.755c3.4 0 6.432-1.998 7.865-5.038C51.267 17.52 55 13.703 55 9.003c0-4.825-3.926-8.75-8.75-8.75-3.493 0-6.492 2.073-7.894 5.04-4.638.2-8.356 4.022-8.356 8.7 0 4.825 3.926 8.75 8.75 8.75zm7.5-20.003a6.26 6.26 0 016.25 6.251 6.26 6.26 0 01-6.25 6.251A6.26 6.26 0 0140 9.003a6.26 6.26 0 016.25-6.251zm-8.637 5.132c-.048.37-.113.736-.113 1.12 0 .637.077 1.254.206 1.853-.12.192-.206.405-.206.648v5a1.25 1.25 0 102.5 0V15.1a8.73 8.73 0 003.939 2.297c-1.134 1.74-3.065 2.85-5.2 2.85a6.26 6.26 0 01-6.25-6.251c0-3.037 2.18-5.567 5.113-6.12zm8.637 4.87a1.25 1.25 0 001.25-1.25v-5a1.25 1.25 0 10-2.5 0v5a1.25 1.25 0 001.25 1.25z"/></svg>