<svg xmlns="http://www.w3.org/2000/svg" width="25" height="33" fill="#0039ff"><path d="M23.865 4.9l-11.04-3.897a.65.65 0 00-.432 0L1.355 4.9a.65.65 0 00-.433.613v7.793c0 10.085 1.495 13.77 11.396 18.764a.65.65 0 00.585 0c9.9-4.993 11.396-8.68 11.396-18.764V5.513a.65.65 0 00-.433-.613zM23 13.306c0 9.66-1.232 12.786-10.4 17.456-9.158-4.67-10.4-7.796-10.4-17.456V5.973l10.4-3.668L23 5.973v7.333zM11.96 9.4v.715a3.252 3.252 0 00-2.597 3.18 3.25 3.25 0 003.247 3.247 1.95 1.95 0 011.948 1.948 1.95 1.95 0 01-1.948 1.948h-2.597a.65.65 0 00-.649.649.65.65 0 00.649.649h1.948v.65a.65.65 0 00.649.649.65.65 0 00.649-.649v-.715a3.252 3.252 0 002.597-3.18 3.25 3.25 0 00-3.247-3.247 1.95 1.95 0 01-1.948-1.948 1.95 1.95 0 011.948-1.948h2.597a.65.65 0 00.649-.649.65.65 0 00-.649-.649H13.26V9.4a.65.65 0 00-.649-.649.65.65 0 00-.649.649z"/></svg>