<svg width="36" height="38" fill="none" xmlns="http://www.w3.org/2000/svg"><path d="M27.991 26.99l-3.527-1.175-1.266-2.533a8.128 8.128 0 002.2-4.3l.157-.947h1.351a2.23 2.23 0 002.227-2.226v-4.676C29.133 4.994 24.139 0 18 0A11.126 11.126 0 006.867 11.133v4.676c0 .967.62 1.792 1.485 2.098v.87a2.23 2.23 0 002.226 2.227h.652a8.053 8.053 0 001.572 2.28l-1.266 2.531-3.528 1.176C3.907 28.358.93 32.676.93 37.258c0 .41.332.742.742.742h32.656c.41 0 .742-.332.742-.742 0-4.582-2.977-8.9-7.079-10.267zm-.343-11.181a.742.742 0 01-.742.742h-1.133c.19-1.462.315-3.017.366-4.548 0-.043.002-.085.003-.128h1.506v3.934zm-18.554.742a.743.743 0 01-.742-.742v-3.934h1.506l.008.233v.009c.052 1.49.176 3.005.36 4.434H9.095zm1.484 2.969a.743.743 0 01-.742-.743v-.742h.608l.158.947c.03.18.067.36.11.538h-.134zm-.74-9.13H8.38A9.643 9.643 0 0118 1.485c5.07 0 9.24 3.932 9.62 8.907h-1.457c-.054-4.1-3.391-7.422-7.499-7.422h-1.328c-4.107 0-7.445 3.323-7.499 7.422zm7.498-5.937h1.328c3.326 0 6.018 2.72 6.016 6.042 0 .234-.002.437-.006.622v.007l-.928-.132a11.926 11.926 0 01-6.706-3.353.742.742 0 00-.524-.217 6.715 6.715 0 00-5.163 2.442c.31-3.022 2.866-5.41 5.983-5.41zM12.25 19.52c-.371-1.236-.797-4.873-.89-7.204l.998-1.332a5.224 5.224 0 013.863-2.07 13.425 13.425 0 007.314 3.547l1.092.156a45.678 45.678 0 01-.436 4.537v.001c-.068.46-.122.756-.259 1.583-.393 2.357-2.152 4.49-4.474 5.07a6.035 6.035 0 01-2.918 0c-1.45-.363-2.78-1.366-3.637-2.804h1.513a2.23 2.23 0 002.099 1.484H18a2.226 2.226 0 100-4.453h-1.484c-.99 0-1.802.639-2.1 1.485H12.25zm4.202 5.79a7.512 7.512 0 002.76.062l-1.31 1.387-1.45-1.45zm.429 2.528l-2.354 2.49a28.282 28.282 0 01-1.662-3.854l.884-1.768 3.132 3.132zm5.242-3.383l1.01 2.02a28.28 28.28 0 01-1.662 3.853l-2.52-2.52 3.172-3.353zm-6.35-4.193c0-.41.332-.742.742-.742H18a.743.743 0 010 1.484h-1.484a.743.743 0 01-.743-.742zM2.443 36.516c.294-3.677 2.74-7.019 6.034-8.117l3.124-1.041a29.762 29.762 0 004.148 7.692l.913 1.466H2.443zM18 35.854l-1.007-1.616a.755.755 0 00-.036-.053 28.31 28.31 0 01-1.672-2.498l2.647-2.8 2.789 2.79a28.28 28.28 0 01-1.678 2.508c-.037.049.015-.028-1.043 1.669zm1.337.662l.913-1.466a29.768 29.768 0 002.045-3.127l.011-.02.002-.002a29.744 29.744 0 002.09-4.543l3.124 1.04c3.293 1.099 5.74 4.44 6.034 8.118h-14.22z" fill="#EF425A"/></svg>