<svg width="41" height="40" fill="none" xmlns="http://www.w3.org/2000/svg"><g clip-path="url(#clip0)"><path d="M41 16.774h-1.486l-2.215 1.137a3.337 3.337 0 00-.788-.316l-2.786-.68v-.31c1.233-.839 1.985-2.225 1.985-3.702v-1.128c0-2.506-2.013-4.603-4.487-4.676a5.08 5.08 0 00-.374.007l.722-1.65-3.501-3.415-2.065 1.31A11.344 11.344 0 0023.53 2.35L23.02 0h-5.04l-.51 2.35c-.86.236-1.691.571-2.475 1.002l-2.064-1.31-3.499 3.413.71 1.65c-.027 0-.053-.005-.08-.006a4.658 4.658 0 00-3.365 1.273 4.422 4.422 0 00-1.407 3.24v1.291c0 1.477.752 2.863 1.984 3.702v.31l-1.817.443-3.294-1.874H0v13.368l6.506 2.116h1.267l.158-.54 1.994 1.167c.033 1.058.902 1.909 1.986 1.946.038 1.053.905 1.899 1.984 1.936.038 1.052.905 1.898 1.983 1.935.04 1.077.944 1.943 2.057 1.943a2.12 2.12 0 001.16-.35l.585.505c.367.315.84.49 1.33.49h.123c1.1 0 1.996-.868 2.01-1.938 1.088-.014 1.97-.874 1.983-1.935 1.09-.014 1.972-.875 1.984-1.938 1.1-.025 1.987-.901 1.987-1.98 0-.064-.004-.128-.01-.193L41 26.206v-9.432zm-6.613-4.999v1.128c0 1.145-.634 2.215-1.655 2.792l-.33.186.002 2.042 3.304.805-7.272 3.734v-1.738a3.17 3.17 0 00-.948-2.248l2.27-.553V15.88l-.33-.186a3.221 3.221 0 01-1.654-2.79v-1.291c0-.88.357-1.703 1.005-2.316a3.306 3.306 0 012.404-.908c1.767.052 3.204 1.571 3.204 3.386zm-12.89 10.18l-2.994-.933a8.364 8.364 0 00-4.237-.188l-.379.081v-.19c0-.89.618-1.663 1.502-1.879l3.788-.923V15.88l-.33-.186a3.222 3.222 0 01-1.654-2.79v-1.291c0-.88.357-1.703 1.005-2.316a3.315 3.315 0 012.404-.908c1.767.052 3.204 1.571 3.204 3.386v1.128c0 1.145-.634 2.215-1.655 2.792l-.33.186.002 2.042 3.787.923a1.944 1.944 0 011.503 1.878v2.418l-.163.084h-.406l-4.065-1.134a4.262 4.262 0 00-.982-.137zM14.035 9.656c1.242-2.348 3.742-3.85 6.465-3.85 2.698 0 5.186 1.482 6.438 3.798a4.397 4.397 0 00-.486 2.009v1.29c0 1.477.751 2.863 1.983 3.702v.31l-2.645.646-2.645-.646v-.31c1.232-.839 1.984-2.225 1.984-3.702v-1.128c0-2.506-2.013-4.603-4.487-4.676a4.658 4.658 0 00-3.365 1.273 4.426 4.426 0 00-1.406 3.24v1.291c0 1.477.751 2.863 1.984 3.702v.31l-2.645.646-2.646-.646v-.31c1.232-.839 1.984-2.225 1.984-3.702v-1.128c0-.759-.187-1.48-.513-2.119zm-3.041-3.902l2.113-2.061 1.86 1.18.355-.212a10.007 10.007 0 012.864-1.159l.406-.095.46-2.117h2.896l.459 2.116.407.095a9.996 9.996 0 012.863 1.16l.356.212 1.86-1.18 2.11 2.059-.75 1.713c-.51.214-.984.516-1.396.905-.027.026-.05.054-.077.08-1.558-2.416-4.312-3.934-7.28-3.934-2.989 0-5.751 1.532-7.305 3.973a4.666 4.666 0 00-1.459-1.009l-.742-1.726zm-2.397 12.17V15.88l-.33-.186a3.221 3.221 0 01-1.654-2.79v-1.291c0-.88.356-1.703 1.004-2.316a3.31 3.31 0 012.405-.908c1.766.052 3.204 1.571 3.204 3.386v1.128c0 1.145-.634 2.215-1.655 2.792l-.331.186.003 2.042 2.269.553a3.17 3.17 0 00-.947 2.248v.478l-2.063.448.053-.183.026-1.192-3.488-1.985 1.504-.367zm-7.274-1.15h.482L6.56 19.48l-2.4 9.365-2.838-.923V16.774zM6.72 29.677l-1.301-.423 2.33-9.097 1.51.859v.184l-2.483 8.477H6.72zm4.522 1.858a.72.72 0 01.217-.512l1.162-1.134a.756.756 0 01.525-.212c.409 0 .741.325.741.724a.72.72 0 01-.217.511l-1.162 1.134a.756.756 0 01-.525.212.733.733 0 01-.741-.723zm1.984 1.935a.72.72 0 01.217-.511l1.162-1.134a.756.756 0 01.525-.212c.408 0 .741.324.741.723a.72.72 0 01-.217.512l-1.162 1.134a.756.756 0 01-.525.212.733.733 0 01-.741-.724zm1.984 1.936a.72.72 0 01.217-.512l1.162-1.134a.756.756 0 01.524-.212c.41 0 .742.325.742.724a.72.72 0 01-.217.511l-1.163 1.134a.756.756 0 01-.524.212.733.733 0 01-.741-.723zm2.725 2.659a.733.733 0 01-.741-.724.72.72 0 01.216-.511l1.163-1.134a.756.756 0 01.524-.212c.41 0 .742.324.742.723a.72.72 0 01-.217.512l-1.163 1.134a.756.756 0 01-.524.212zm3.198.645h-.122a.695.695 0 01-.456-.169l-.495-.425.497-.485c.177-.173.315-.379.416-.6l.602.489a.665.665 0 01.248.517c0 .37-.31.673-.69.673zm5.93-5.807h-.114a.72.72 0 01-.455-.161l-3.586-2.916-.847.992 3.482 2.83a.666.666 0 01.247.518c0 .37-.309.673-.69.673h-.144a.7.7 0 01-.44-.157l-3.593-2.92-.847.992 3.482 2.831a.662.662 0 01.248.516.682.682 0 01-.69.673 1.11 1.11 0 01-.695-.245l-1.476-1.2a2.06 2.06 0 00-1.776-1.128c-.038-1.053-.905-1.898-1.983-1.936-.039-1.052-.906-1.898-1.984-1.935-.04-1.077-.943-1.943-2.056-1.943-.544 0-1.076.215-1.46.59l-1.162 1.134c-.07.068-.127.145-.185.22l-2.032-1.189 1.78-6.08 4.465-.968a6.975 6.975 0 013.548.156l.974.304-3.302 1.611a2.146 2.146 0 00-1.224 1.933v.128c0 1.192.994 2.161 2.216 2.161.401 0 .796-.106 1.14-.308l2.462-1.44a1.392 1.392 0 011.585.148l5.588 4.906a.69.69 0 01.235.516.703.703 0 01-.71.694zm12.614-7.495l-11.14 5.435a1.844 1.844 0 00-.114-.108l-5.586-4.906a2.714 2.714 0 00-3.152-.297l-2.464 1.441a.903.903 0 01-.457.124.883.883 0 01-.893-.871v-.128c0-.332.19-.63.493-.779l3.69-1.799a2.94 2.94 0 012.06-.186l4.156 1.158 1.006.024 12.401-6.368v7.26z" fill="#5C1A8D"/></g><defs><clipPath id="clip0"><path fill="#fff" d="M0 0h41v40H0z"/></clipPath></defs></svg>