<svg xmlns="http://www.w3.org/2000/svg" width="36" height="49" fill="#1a1a1a"><path d="M13 17.254c0 2.757 2.242 5 5 5s5-2.243 5-5-2.242-5-5-5-5 2.243-5 5zm5-3c1.654 0 3 1.346 3 3s-1.346 3-3 3-3-1.346-3-3 1.346-3 3-3zM11.16 25.32C9.828 26.105 9 27.632 9 29.303v.64c0 1.276.96 2.313 2.143 2.313h13.715c1.182 0 2.143-1.037 2.143-2.313v-.64c0-1.67-.828-3.198-2.16-3.984-1.598-.942-4.082-2.064-6.84-2.064s-5.242 1.122-6.84 2.064zM25 29.303v.64c0 .208-.12.313-.143.313H11.143c-.024 0-.143-.105-.143-.312v-.64c0-.952.46-1.84 1.176-2.26 1.383-.815 3.516-1.786 5.824-1.786s4.44.972 5.824 1.786c.715.422 1.176 1.3 1.176 2.26zM35.328 6.308L18.33.3a1.007 1.007 0 00-.668 0L.665 6.3A1 1 0 000 7.257v12c0 15.53 2.298 21.207 17.544 28.895.143.072.3.108.453.108s.3-.036.453-.108c15.246-7.688 17.544-13.364 17.544-28.895l.006-12c0-.427-.27-.807-.672-.948zm-1.323 12.947c0 14.87-1.905 19.8-16.003 26.997C3.906 39.065 2 34.124 2 19.256V7.967l15.997-5.644 16 5.644v11.288z"/></svg>