<svg xmlns="http://www.w3.org/2000/svg" width="32" height="32" fill="#312e17"><path d="M27.314 4.686A15.887 15.887 0 0020.45.626 16.033 16.033 0 0016 0a16.29 16.29 0 00-1.655.085 15.876 15.876 0 00-9.66 4.602A15.894 15.894 0 000 16a15.88 15.88 0 004.043 10.631L.275 30.4a.94.94 0 000 1.326.935.935 0 001.326 0l3.77-3.768A15.88 15.88 0 0016 32c4.274 0 8.292-1.664 11.314-4.686S32 20.274 32 16s-1.664-8.292-4.686-11.314zM16 30.125C8.212 30.125 1.875 23.8 1.875 16S8.212 1.875 16 1.875 30.125 8.2 30.125 16 23.8 30.125 16 30.125zm0-22.09a.94.94 0 00-.937.938v8.033a.94.94 0 00.938.938.94.94 0 00.938-.937V8.972A.94.94 0 0016 8.034zm0 15.93a.94.94 0 00.938-.937.94.94 0 00-.937-.937.94.94 0 00-.937.938.94.94 0 00.938.938z"/></svg>