<svg width="201" height="66" viewBox="0 0 201 66" fill="none" xmlns="http://www.w3.org/2000/svg">
<path fill-rule="evenodd" clip-rule="evenodd" d="M147.061 10.6576C146.626 10.2027 146.157 9.68223 145.653 9.1186C144.738 8.12722 143.788 7.10832 142.834 6.09001C142.422 7.0148 142.916 9.07742 143.647 10.0483C142.698 9.32633 142.044 8.25924 141.325 7.08685C140.886 6.37056 140.423 5.61497 139.854 4.87477C138.535 3.16006 136.899 1.13518 133.48 0C132.58 4.74664 133.382 14.2308 140.202 24.0966C137.612 21.4631 133.807 21.1937 132.903 21.3506V47.5422H142.342V27.5459C142.249 26.8573 141.956 26.305 141.742 25.9882C143.214 27.9106 145.181 28.5074 146.825 28.5226C149.329 28.4533 151.019 26.7704 151.916 25.3188C153.394 22.7674 154.043 19.0574 150.951 15.1598C149.947 13.8933 148.588 12.3408 147.06 10.6567L147.061 10.6576ZM141.593 25.7868C141.642 25.8555 141.692 25.9226 141.742 25.9882C141.685 25.9037 141.633 25.8359 141.593 25.7868Z" fill="white"/>
<path d="M145.472 29.1047L145.479 29.1266L145.488 29.1525C148 34.1655 157.724 45.0311 166.284 47.5492C166.4 47.5756 166.516 47.6009 166.632 47.6253C166.229 47.1802 165.873 46.6131 165.695 45.7695C166.994 46.8249 168.718 47.6182 171.018 48.1639C170.616 45.4475 169.035 42.8009 168.061 41.1712L168.033 41.123L167.512 40.373V15.8493C167.512 13.3772 166.638 11.2914 164.89 9.59186C163.142 7.85368 161.044 6.98459 158.597 6.98459H158.073V27.2937L158.33 27.7589C158.983 28.6361 160.286 30.746 160.272 32.1678C160.255 33.945 159.499 35.107 158.244 35.8248L158.06 35.9209L158.06 35.8978C158.05 35.3558 158.031 34.2911 156.61 33.2271C155.85 32.6581 154.675 32.351 153.204 31.9664C152.29 31.7275 151.261 31.4586 150.147 31.0785C149.307 30.8425 147.271 30.1556 145.456 29.0537C145.461 29.0706 145.467 29.0876 145.472 29.1047Z" fill="white"/>
<path d="M84.2257 22.5703V6.98459C86.8281 6.98459 89.0421 7.91162 90.8677 9.76568C92.7321 11.5811 93.6643 13.7828 93.6643 16.3708V47.5422H84.2257V31.9565H75.5446V47.5422H66.106V6.98459C68.7084 6.98459 70.9224 7.91162 72.7479 9.76568C74.6124 11.5811 75.5446 13.7828 75.5446 16.3708V22.5703H84.2257Z" fill="white"/>
<path d="M46.1646 35.5487V28.4801H61.4295V35.5487H46.1646Z" fill="white"/>
<path d="M124.266 9.76568C122.441 7.91162 120.227 6.98459 117.624 6.98459V38.156H108.943V16.3708C108.943 13.7828 108.011 11.5811 106.147 9.76568C104.321 7.91162 102.107 6.98459 99.5047 6.98459V38.1313L99.5213 38.1409C99.5604 40.7033 101.249 45.9654 107.565 47.3739C108.154 47.5053 108.763 47.542 109.367 47.542L127.063 47.5422V16.3708C127.063 13.7828 126.131 11.5811 124.266 9.76568Z" fill="white"/>
<path d="M191.768 6.98459H173.357V16.3708H182.33V47.5422H191.768V16.3708H200.741V15.9073C200.741 13.4352 199.867 11.33 198.119 9.59186C196.371 7.85368 194.254 6.98459 191.768 6.98459Z" fill="white"/>
<path d="M157.427 28.0413C157.427 28.0413 158.332 30.1494 158.616 30.8465C158.477 31.1817 157.569 30.8645 157.275 30.3086C156.877 29.5565 156.993 28.7487 157.427 28.0413Z" fill="white"/>
<path d="M71.4067 65.8928C70.5768 65.8928 69.7981 65.7301 69.0707 65.4045C68.3534 65.079 67.7694 64.5858 67.3186 63.9249C66.878 63.264 66.6577 62.4354 66.6577 61.4391C66.6577 60.867 66.7602 60.3146 66.9651 59.7819C67.17 59.2394 67.4774 58.756 67.8873 58.3319C68.2971 57.9077 68.8094 57.5723 69.4241 57.3257C70.0389 57.0692 70.751 56.941 71.5604 56.941C71.9498 56.941 72.3801 56.9805 72.8514 57.0594C73.3227 57.1284 73.753 57.2369 74.1424 57.3849L74.25 59.2936L73.6813 59.3528L73.2664 58.0211C73.0717 57.8732 72.7899 57.7647 72.4211 57.6956C72.0625 57.6266 71.7295 57.592 71.4221 57.592C70.5717 57.592 69.8801 57.7647 69.3473 58.1099C68.8248 58.4552 68.4457 58.9089 68.21 59.4712C67.9743 60.0236 67.8565 60.6105 67.8565 61.232C67.8565 62.1099 68.0153 62.8448 68.3329 63.4366C68.6608 64.0285 69.0963 64.4773 69.6393 64.7831C70.1926 65.079 70.8022 65.227 71.4682 65.227C71.8268 65.227 72.1342 65.1974 72.3903 65.1382C72.6465 65.0692 72.9129 64.9705 73.1895 64.8423L73.9426 63.4218L74.4805 63.481L74.0655 65.2862C73.6864 65.4539 73.2766 65.5969 72.836 65.7153C72.3954 65.8336 71.919 65.8928 71.4067 65.8928Z" fill="white"/>
<path d="M63.1008 65.7597C63.2442 65.7695 63.4747 65.7942 63.7924 65.8336L64.3764 63.7769L63.7924 63.6586L63.0085 65.0346C62.9676 65.0445 62.901 65.0544 62.8088 65.0642C62.7165 65.0741 62.5936 65.084 62.4399 65.0938H60.1038C59.9604 65.0938 59.8221 65.0889 59.6889 65.079C59.5557 65.0692 59.4276 65.0593 59.3047 65.0494C59.3047 65.0001 59.2995 64.9015 59.2893 64.7535C59.2893 64.6055 59.2842 64.4428 59.2739 64.2652V61.6385C59.4039 61.6338 59.5217 61.6315 59.6274 61.6315C59.7913 61.6216 59.9296 61.6167 60.0424 61.6167H61.3794C61.5331 61.6167 61.6612 61.6216 61.7637 61.6315C61.8764 61.6413 61.9583 61.6561 62.0096 61.6759L62.2094 62.6968H62.7626V59.8707H62.2094L62.0096 60.9212C61.9583 60.941 61.8764 60.9558 61.7637 60.9656H59.6274C59.5217 60.9656 59.4039 60.9633 59.2739 60.9586V58.7166C59.2842 58.4798 59.2893 58.2677 59.2893 58.0803C59.2995 57.8929 59.3047 57.7844 59.3047 57.7548C59.4481 57.7351 59.5864 57.7252 59.7196 57.7252C59.8528 57.7153 60.0167 57.7104 60.2114 57.7104H62.2401C62.3528 57.7104 62.4553 57.7153 62.5475 57.7252C62.6499 57.7252 62.7268 57.7301 62.778 57.74L63.2698 58.9533L63.8692 58.8645L63.6079 57.015C63.3928 57.0347 63.2186 57.0495 63.0854 57.0594C62.9624 57.0692 62.8549 57.0742 62.7626 57.0742H57.4143L57.3835 57.5477L58.3057 57.74C58.3159 57.7795 58.321 57.883 58.321 58.0507C58.3313 58.2086 58.3364 58.4404 58.3364 58.7462C58.3467 59.052 58.3518 59.4317 58.3518 59.8855V62.9632C58.3518 63.407 58.3467 63.7819 58.3364 64.0877C58.3364 64.3836 58.3313 64.6154 58.321 64.7831C58.321 64.9409 58.3159 65.0445 58.3057 65.0938L57.3835 65.2862L57.4143 65.7597H63.1008Z" fill="white"/>
<path fill-rule="evenodd" clip-rule="evenodd" d="M48.1554 65.2862L48.1862 65.7597H50.9833L51.0141 65.2862L50.0919 65.0642C50.0817 64.9754 50.0714 64.8669 50.0612 64.7387C50.0509 64.6105 50.0407 64.4132 50.0305 64.1469V61.6611H50.8296C50.9073 61.6611 50.9839 61.6594 51.0593 61.6561L52.0438 63.2443C52.4741 63.9249 52.843 64.4576 53.1503 64.8423C53.468 65.227 53.7753 65.4983 54.0725 65.6561C54.3798 65.8139 54.7282 65.8928 55.1175 65.8928C55.1995 65.8928 55.2866 65.8879 55.3788 65.878C55.4813 65.878 55.5684 65.8682 55.6401 65.8484L55.6555 65.4045C55.3891 65.3651 55.1432 65.2862 54.9177 65.1678C54.6923 65.0494 54.4567 64.862 54.2108 64.6055C53.9751 64.3491 53.6985 63.989 53.3809 63.5254L52.0007 61.5129C52.1602 61.4686 52.3129 61.4144 52.4587 61.3503C52.9403 61.1333 53.3143 60.8374 53.5807 60.4625C53.8471 60.0778 53.9803 59.6438 53.9803 59.1605C53.9803 58.4897 53.7343 57.9767 53.2425 57.6216C52.761 57.2567 52.0899 57.0742 51.2292 57.0742H48.1708L48.1401 57.5477L49.0622 57.74C49.0725 57.7795 49.0776 57.8781 49.0776 58.0359C49.0878 58.1938 49.0929 58.4256 49.0929 58.7314C49.1032 59.0273 49.1083 59.412 49.1083 59.8855V62.9632C49.1083 63.2098 49.1032 63.4465 49.0929 63.6734V64.2948C49.0929 64.4724 49.0878 64.6302 49.0776 64.7683V65.0642L48.1554 65.2862ZM50.0305 61.084H50.8296C51.5264 61.084 52.0591 60.9311 52.428 60.6253C52.7968 60.3195 52.9813 59.8855 52.9813 59.3232C52.9813 58.7708 52.8173 58.3516 52.4895 58.0655C52.1718 57.7795 51.7057 57.6364 51.0909 57.6364H50.0612L50.0305 57.6956V61.084Z" fill="white"/>
<path fill-rule="evenodd" clip-rule="evenodd" d="M76.7619 65.2862L76.7926 65.7597H79.5897L79.6205 65.2862L78.6983 65.0642C78.6881 64.9754 78.6778 64.8669 78.6676 64.7387C78.6574 64.6105 78.6471 64.4132 78.6369 64.1469V61.6611H79.436C79.5137 61.6611 79.5903 61.6594 79.6657 61.6561L80.6502 63.2443C81.0805 63.9249 81.4494 64.4576 81.7567 64.8423C82.0744 65.227 82.3817 65.4983 82.6789 65.6561C82.9863 65.8139 83.3346 65.8928 83.724 65.8928C83.8059 65.8928 83.893 65.8879 83.9852 65.878C84.0877 65.878 84.1748 65.8682 84.2465 65.8484L84.2619 65.4045C83.9955 65.3651 83.7496 65.2862 83.5242 65.1678C83.2988 65.0494 83.0631 64.862 82.8172 64.6055C82.5815 64.3491 82.3049 63.989 81.9873 63.5254L80.6071 61.5129C80.7666 61.4686 80.9193 61.4144 81.0651 61.3503C81.5467 61.1333 81.9207 60.8374 82.1871 60.4625C82.4535 60.0778 82.5867 59.6438 82.5867 59.1605C82.5867 58.4897 82.3408 57.9767 81.849 57.6216C81.3674 57.2567 80.6963 57.0742 79.8356 57.0742H76.7772L76.7465 57.5477L77.6686 57.74C77.6789 57.7795 77.684 57.8781 77.684 58.0359C77.6942 58.1938 77.6994 58.4256 77.6994 58.7314C77.7096 59.0273 77.7147 59.412 77.7147 59.8855V62.9632C77.7147 63.2098 77.7096 63.4465 77.6994 63.6734V64.2948C77.6994 64.4724 77.6942 64.6302 77.684 64.7683V65.0642L76.7619 65.2862ZM78.6369 61.084H79.436C80.1328 61.084 80.6656 60.9311 81.0344 60.6253C81.4033 60.3195 81.5877 59.8855 81.5877 59.3232C81.5877 58.7708 81.4238 58.3516 81.0959 58.0655C80.7783 57.7795 80.3121 57.6364 79.6973 57.6364H78.6676L78.6369 57.6956V61.084Z" fill="white"/>
<path d="M85.8055 57.0742H88.6641L88.6949 57.5477L87.7727 57.7548C87.7727 57.7647 87.7676 57.8239 87.7574 57.9324C87.7471 58.031 87.7369 58.2283 87.7266 58.5242V62.5192C87.7369 63.1604 87.8496 63.6734 88.0648 64.0581C88.2799 64.4329 88.5719 64.7042 88.9408 64.8719C89.3199 65.0297 89.74 65.1086 90.201 65.1086C90.6416 65.1086 91.0309 65.0248 91.3691 64.8571C91.7174 64.6795 91.9889 64.3935 92.1836 63.9989C92.3885 63.5945 92.491 63.0569 92.491 62.3861V60.1518C92.491 59.7474 92.4859 59.3824 92.4756 59.0569C92.4756 58.7314 92.4705 58.4552 92.4603 58.2283C92.45 58.0014 92.4346 57.8436 92.4141 57.7548L91.3383 57.5477L91.3691 57.0742H94.1508L94.1969 57.5477L93.2748 57.7548C93.2748 57.7844 93.2697 57.8584 93.2594 57.9768C93.2594 58.0951 93.2543 58.322 93.2441 58.6574V62.3713C93.2441 63.2196 93.1006 63.9052 92.8137 64.428C92.5371 64.9409 92.158 65.3158 91.6764 65.5525C91.2051 65.7794 90.6826 65.8928 90.1088 65.8928C89.074 65.8928 88.2543 65.6117 87.6498 65.0494C87.0555 64.4773 86.7584 63.6832 86.7584 62.6672V59.8855C86.7584 59.2838 86.7533 58.8399 86.743 58.5538C86.7328 58.2579 86.7225 58.0606 86.7123 57.9619C86.7123 57.8534 86.7072 57.7844 86.6969 57.7548L85.7748 57.5477L85.8055 57.0742Z" fill="white"/>
<path d="M96.7549 65.2862L96.7857 65.7597H99.6289L99.6597 65.2862L98.7375 65.0938C98.7273 65.0544 98.7119 64.9705 98.6914 64.8423C98.6812 64.7042 98.6709 64.4872 98.6607 64.1912V58.6426C98.6709 58.3467 98.6812 58.1296 98.6914 57.9915C98.7119 57.8534 98.7273 57.7696 98.7375 57.74L99.6597 57.5477L99.6289 57.0742H96.7857L96.7549 57.5477L97.6771 57.74C97.6873 57.7795 97.6924 57.883 97.6924 58.0507C97.7027 58.2086 97.7078 58.4404 97.7078 58.7462C97.718 59.0421 97.7232 59.4219 97.7232 59.8855V62.9632C97.7232 63.4169 97.718 63.7917 97.7078 64.0877C97.7078 64.3836 97.7027 64.6154 97.6924 64.7831C97.6924 64.9409 97.6873 65.0445 97.6771 65.0938L96.7549 65.2862Z" fill="white"/>
<path d="M108.965 57.015L109.303 59.3084L108.749 59.3824L108.089 57.7252C108.027 57.7055 107.945 57.6956 107.843 57.6956C107.74 57.6858 107.653 57.6808 107.581 57.6808H106.552C106.347 57.6808 106.157 57.6858 105.983 57.6956C105.983 57.7745 105.978 57.957 105.968 58.2431V62.5488C105.968 63.2098 105.973 63.772 105.983 64.2356C105.993 64.6993 105.998 64.9853 105.998 65.0938L107.274 65.2566L107.243 65.7597H103.739L103.708 65.2566L104.984 65.0938C104.984 64.9853 104.989 64.6993 104.999 64.2356C105.01 63.772 105.015 63.2098 105.015 62.5488V58.2431C105.015 57.957 105.01 57.7745 104.999 57.6956C104.835 57.6858 104.651 57.6808 104.446 57.6808H103.355C103.283 57.6808 103.201 57.6858 103.109 57.6956C103.027 57.6956 102.955 57.7055 102.894 57.7252L102.218 59.3972L101.664 59.3084L102.002 57.015C102.125 57.0248 102.233 57.0347 102.325 57.0446C102.428 57.0544 102.52 57.0643 102.602 57.0742H108.35C108.432 57.0643 108.519 57.0544 108.611 57.0446C108.714 57.0347 108.831 57.0248 108.965 57.015Z" fill="white"/>
<path d="M113.828 57.0742H111.461L111.43 57.5477L112.352 57.74C112.363 57.9472 112.368 58.253 112.368 58.6574C112.378 59.052 112.378 59.4268 112.368 59.7819L112.322 62.756C112.322 63.2492 112.317 63.6536 112.306 63.9693C112.296 64.285 112.286 64.5316 112.276 64.7091C112.276 64.8867 112.271 65.0149 112.26 65.0938L111.231 65.2862L111.261 65.7597H114.12L114.151 65.2862L113.121 65.0938C113.111 64.9853 113.1 64.7387 113.09 64.354V57.7874L116.625 65.8041H116.948L120.455 58.0408L120.483 62.8744C120.493 63.3774 120.498 63.7621 120.498 64.0285V64.6499C120.498 64.788 120.493 64.9409 120.483 65.1086L119.576 65.2862L119.607 65.7597H122.419L122.45 65.2862L121.528 65.1086C121.528 64.9804 121.523 64.8226 121.512 64.6351C121.502 64.4379 121.492 64.1764 121.482 63.8509C121.482 63.5155 121.476 63.0815 121.466 62.5488L121.436 59.7967C121.425 59.4219 121.42 59.0273 121.42 58.613C121.42 58.1987 121.425 57.9028 121.436 57.7252L122.358 57.5477L122.327 57.0742H120.191L116.979 64.2209L113.828 57.0742Z" fill="white"/>
<path d="M131.494 65.8336C131.176 65.7942 130.945 65.7695 130.802 65.7597H125.115L125.085 65.2862L126.007 65.0938C126.017 65.0445 126.022 64.9409 126.022 64.7831C126.032 64.6154 126.038 64.3836 126.038 64.0877C126.048 63.7819 126.053 63.407 126.053 62.9632V59.8855C126.053 59.4317 126.048 59.052 126.038 58.7462C126.038 58.4404 126.032 58.2086 126.022 58.0507C126.022 57.883 126.017 57.7795 126.007 57.74L125.085 57.5477L125.115 57.0742H130.464C130.556 57.0742 130.664 57.0692 130.787 57.0594C130.92 57.0495 131.094 57.0347 131.309 57.015L131.57 58.8645L130.971 58.9533L130.479 57.74C130.428 57.7301 130.351 57.7252 130.249 57.7252C130.156 57.7153 130.054 57.7104 129.941 57.7104H127.913C127.718 57.7104 127.554 57.7153 127.421 57.7252C127.288 57.7252 127.149 57.7351 127.006 57.7548C127.006 57.7844 127.001 57.8929 126.99 58.0803C126.99 58.2677 126.985 58.4798 126.975 58.7166V60.9586C127.105 60.9633 127.223 60.9656 127.329 60.9656H129.465C129.578 60.9558 129.66 60.941 129.711 60.9212L129.911 59.8707H130.464V62.6968H129.911L129.711 61.6759C129.66 61.6561 129.578 61.6413 129.465 61.6315C129.362 61.6216 129.234 61.6167 129.081 61.6167H127.744C127.631 61.6167 127.492 61.6216 127.329 61.6315C127.223 61.6315 127.105 61.6338 126.975 61.6385V64.2652C126.985 64.4428 126.99 64.6055 126.99 64.7535C127.001 64.9015 127.006 65.0001 127.006 65.0494C127.129 65.0593 127.257 65.0692 127.39 65.079C127.523 65.0889 127.662 65.0938 127.805 65.0938H130.141C130.295 65.084 130.418 65.0741 130.51 65.0642C130.602 65.0544 130.669 65.0445 130.71 65.0346L131.494 63.6586L132.078 63.7769L131.494 65.8336Z" fill="white"/>
<path d="M141.26 63.8208V60.1222C141.26 59.4909 141.254 59.0125 141.244 58.687C141.234 58.3516 141.224 58.1148 141.213 57.9768C141.203 57.8386 141.193 57.7597 141.183 57.74L140.153 57.5477L140.184 57.0742H142.95L142.981 57.5477L142.059 57.74C142.059 57.7597 142.048 57.8386 142.028 57.9768C142.018 58.1148 142.007 58.3516 141.997 58.687C141.987 59.0224 141.982 59.5008 141.982 60.1222V64.8275C141.982 65.1432 141.987 65.4736 141.997 65.8188H141.444L136.126 58.4078V62.7412C136.126 63.3528 136.131 63.8263 136.142 64.1617C136.162 64.4872 136.178 64.719 136.188 64.8571C136.208 64.9853 136.219 65.0642 136.219 65.0938L137.248 65.2862L137.218 65.7597H134.42L134.39 65.2862L135.312 65.0938C135.322 65.0642 135.332 64.9902 135.343 64.8719C135.353 64.7436 135.363 64.5168 135.373 64.1912C135.384 63.8559 135.389 63.3725 135.389 62.7412V59.9299C135.389 59.4071 135.384 59.0026 135.373 58.7166C135.373 58.4305 135.368 58.2184 135.358 58.0803C135.348 57.9324 135.332 57.8189 135.312 57.74L134.39 57.5477L134.42 57.0742H136.372L141.26 63.8208Z" fill="white"/>
<path d="M152.301 57.015L152.639 59.3084L152.086 59.3824L151.425 57.7252C151.364 57.7055 151.282 57.6956 151.179 57.6956C151.077 57.6858 150.99 57.6808 150.918 57.6808H149.888C149.683 57.6808 149.494 57.6858 149.32 57.6956C149.32 57.7745 149.314 57.957 149.304 58.2431V62.5488C149.304 63.2098 149.309 63.772 149.32 64.2356C149.33 64.6993 149.335 64.9853 149.335 65.0938L150.611 65.2566L150.58 65.7597H147.076L147.045 65.2566L148.321 65.0938C148.321 64.9853 148.326 64.6993 148.336 64.2356C148.346 63.772 148.351 63.2098 148.351 62.5488V58.2431C148.351 57.957 148.346 57.7745 148.336 57.6956C148.172 57.6858 147.988 57.6808 147.783 57.6808H146.691C146.62 57.6808 146.538 57.6858 146.446 57.6956C146.364 57.6956 146.292 57.7055 146.23 57.7252L145.554 59.3972L145.001 59.3084L145.339 57.015C145.462 57.0248 145.57 57.0347 145.662 57.0446C145.764 57.0544 145.856 57.0643 145.938 57.0742H151.686C151.711 57.0712 151.736 57.0682 151.762 57.0653L151.796 57.0613C151.845 57.0558 151.895 57.0502 151.948 57.0446C152.05 57.0347 152.168 57.0248 152.301 57.015Z" fill="white"/>
<path d="M157.336 61.2223L200.779 61.6115L157.336 62.0007V61.2223Z" fill="white"/>
<path d="M0 61.6115L43.4435 61.2223V62.0007L0 61.6115Z" fill="white"/>
<path d="M41.4816 16.1056C41.4345 12.673 39.9292 9.15526 35.3473 7.43216C34.8911 7.29783 33.7462 7.02818 32.8162 7.02421C32.5858 7.02323 32.309 7.02263 32.0119 7.02232L22.9224 18.0585L16.8898 10.1132C15.0328 7.88324 12.2676 6.9845 9.31562 6.9845H4.30502V37.9104H4.31513C4.31513 42.6567 5.80091 45.5729 10.3265 46.9054C10.8108 47.048 11.9402 47.2563 12.9809 47.2965C13.2004 47.3049 13.4622 47.3095 13.7436 47.3115V20.2526L22.9224 31.3266L32.043 20.2526V47.5421H41.4816V16.1056Z" fill="white"/>
</svg>
