<svg width="311" height="395" viewBox="0 0 311 395" fill="none" xmlns="http://www.w3.org/2000/svg">
<g opacity="0.16">
<path fill-rule="evenodd" clip-rule="evenodd" d="M115.519 87.405C111.97 83.6736 108.143 79.4054 104.028 74.7831C96.5697 66.6526 88.8109 58.2964 81.0263 49.9451C77.6681 57.5295 81.6953 74.4453 87.6638 82.4075C79.9168 76.4867 74.58 67.7353 68.7167 58.1204C65.1344 52.246 61.3554 46.0492 56.7102 39.9787C45.9493 25.9161 32.6054 9.30979 4.70132 0C-2.63958 38.9279 3.90245 116.709 59.5562 197.62C38.4169 176.022 7.37482 173.813 0 175.1V389.901H77.0153V225.908C76.2541 220.261 73.8632 215.732 72.1189 213.133C84.1285 228.899 100.181 233.794 113.597 233.918C134.024 233.35 147.82 219.548 155.136 207.643C167.197 186.719 172.491 156.293 147.264 124.328C139.067 113.941 127.982 101.209 115.514 87.3974L115.519 87.405ZM70.904 211.481C71.3041 212.045 71.7091 212.595 72.1189 213.133C71.6535 212.44 71.2341 211.884 70.904 211.481Z" fill="url(#paint0_linear)"/>
<path d="M102.557 238.692L102.616 238.872L102.686 239.084C123.18 280.197 202.526 369.307 272.37 389.959C273.322 390.175 274.268 390.383 275.209 390.582C271.922 386.932 269.022 382.281 267.568 375.363C278.169 384.019 292.232 390.524 311 395C307.719 372.722 294.819 351.017 286.876 337.651L286.641 337.256L282.389 331.105V129.983C282.389 109.709 275.258 92.6027 260.996 78.6643C246.734 64.4092 229.619 57.2817 209.653 57.2817H205.374V223.839L207.474 227.655C212.803 234.849 223.431 252.153 223.319 263.813C223.179 278.388 217.009 287.918 206.773 293.804L205.269 294.593L205.266 294.403C205.188 289.958 205.035 281.227 193.436 272.501C187.233 267.834 177.647 265.316 165.643 262.162C158.185 260.202 149.793 257.997 140.698 254.879C133.848 252.944 117.235 247.311 102.423 238.274C102.467 238.412 102.512 238.552 102.557 238.692Z" fill="url(#paint1_linear)"/>
<path d="M200.106 229.971C200.106 229.971 207.491 247.26 209.802 252.977C208.667 255.726 201.266 253.125 198.866 248.566C195.618 242.397 196.562 235.773 200.106 229.971Z" fill="url(#paint2_linear)"/>
</g>
<defs>
<linearGradient id="paint0_linear" x1="264.5" y1="343" x2="59" y2="90.5" gradientUnits="userSpaceOnUse">
<stop stop-color="#000203"/>
<stop offset="1" stop-opacity="0"/>
</linearGradient>
<linearGradient id="paint1_linear" x1="264.5" y1="343" x2="59" y2="90.5" gradientUnits="userSpaceOnUse">
<stop stop-color="#000203"/>
<stop offset="1" stop-opacity="0"/>
</linearGradient>
<linearGradient id="paint2_linear" x1="264.5" y1="343" x2="59" y2="90.5" gradientUnits="userSpaceOnUse">
<stop stop-color="#000203"/>
<stop offset="1" stop-opacity="0"/>
</linearGradient>
</defs>
</svg>
