<svg width="33" height="43" viewBox="0 0 33 43" fill="none" xmlns="http://www.w3.org/2000/svg">
<g clip-path="url(#clip0)">
<path fill-rule="evenodd" clip-rule="evenodd" d="M12.2576 9.51498C11.881 9.10877 11.475 8.64414 11.0384 8.14094C10.2469 7.25585 9.42366 6.34619 8.59765 5.43706C8.24131 6.2627 8.66863 8.10417 9.30194 8.97094C8.47992 8.3264 7.91363 7.37372 7.29148 6.32703C6.91136 5.68754 6.51038 5.01295 6.01748 4.35212C4.87565 2.82125 3.45974 1.01347 0.498854 0C-0.280084 4.23773 0.414087 12.705 6.31947 21.513C4.07639 19.1619 0.782537 18.9214 0 19.0615V42.4449H8.17204V24.5925C8.09127 23.9778 7.83757 23.4847 7.65248 23.2019C8.92682 24.9182 10.6301 25.451 12.0537 25.4645C14.2212 25.4026 15.6851 23.9002 16.4614 22.6042C17.7411 20.3264 18.3029 17.0142 15.6261 13.5344C14.7563 12.4037 13.5801 11.0177 12.2571 9.51415L12.2576 9.51498ZM7.52358 23.022C7.56603 23.0834 7.609 23.1433 7.65248 23.2019C7.6031 23.1264 7.55861 23.0659 7.52358 23.022Z" fill="#EF425A"/>
<path d="M10.8825 25.9843L10.8887 26.0038L10.8961 26.027C13.0707 30.5026 21.4901 40.2031 28.9012 42.4513C29.0022 42.4748 29.1026 42.4974 29.2024 42.5192C28.8536 42.1218 28.546 41.6155 28.3917 40.8624C29.5166 41.8047 31.0087 42.5128 33.0002 43.0001C32.652 40.5749 31.2833 38.212 30.4404 36.757L30.4155 36.714L29.9643 36.0445V14.1501C29.9643 11.9431 29.2077 10.0809 27.6943 8.56357C26.181 7.01175 24.365 6.23584 22.2463 6.23584H21.7923V24.3674L22.0152 24.7828C22.5805 25.566 23.7083 27.4496 23.6964 28.719C23.6815 30.3057 23.0269 31.3431 21.9408 31.9839L21.7812 32.0697L21.7808 32.0491C21.7725 31.5652 21.7563 30.6147 20.5256 29.6648C19.8673 29.1567 18.8502 28.8826 17.5765 28.5392C16.7851 28.3259 15.8946 28.0859 14.9296 27.7465C14.2027 27.5358 12.44 26.9226 10.8682 25.9388C10.8729 25.9538 10.8777 25.969 10.8825 25.9843Z" fill="#EF425A"/>
<path d="M21.2336 25.0349C21.2336 25.0349 22.0172 26.917 22.2625 27.5393C22.142 27.8387 21.3567 27.5555 21.102 27.0592C20.7574 26.3877 20.8576 25.6665 21.2336 25.0349Z" fill="#EF425A"/>
</g>
<defs>
<clipPath id="clip0">
<rect width="33" height="43" fill="white"/>
</clipPath>
</defs>
</svg>
