<svg width="416" height="527" viewBox="0 0 416 527" fill="none" xmlns="http://www.w3.org/2000/svg">
<g opacity="0.2">
<path fill-rule="evenodd" clip-rule="evenodd" d="M154.889 116.273C154.889 116.274 154.888 116.274 154.888 116.274C150.13 111.268 145 105.542 139.485 99.3419C131.215 90.321 122.67 81.093 114.058 71.8329C111.495 69.0769 107.507 68.5604 107.156 72.3077C106.589 78.373 97.2277 85.3072 94.0468 80.112C93.4137 79.078 92.7781 78.035 92.1378 76.9843C87.3345 69.1022 82.2675 60.7876 76.0391 52.6424C62.4688 34.896 45.8349 14.1305 12.777 1.33044C9.38533 0.0172004 5.70393 2.15475 5.18 5.7538C-1.16833 49.3629 4.75217 122.88 44.6986 204.229C47.9336 210.817 25.5611 235.517 18.2926 234.499C13.0367 233.763 8.48598 233.509 5.02 233.559C2.10473 233.602 0 236.072 0 238.987V516.158C0 519.472 2.68629 522.158 6 522.158H97.2649C100.579 522.158 103.265 519.472 103.265 516.158V302.117C102.244 294.54 99.0384 288.463 96.6996 284.976C112.803 306.131 134.326 312.698 152.315 312.864C179.704 312.102 198.203 293.583 208.012 277.61C224.183 249.535 231.282 208.709 197.457 165.819C186.467 151.884 171.605 134.802 154.89 116.272C154.889 116.271 154.888 116.272 154.889 116.273ZM95.0707 282.76C95.6071 283.516 96.1501 284.255 96.6996 284.976C96.0756 284.046 95.5133 283.3 95.0707 282.76Z" fill="url(#paint0_linear)"/>
<path d="M137.512 319.27L137.591 319.511C137.653 319.701 137.724 319.875 137.813 320.053C165.494 375.331 271.699 494.569 365.203 522.236C366.4 522.507 367.266 521.05 366.524 520.072C364.973 518.025 363.532 515.744 362.275 513.142C360.67 509.817 364.625 507.167 367.719 509.181C378.768 516.372 392.155 522.22 408.419 526.779C412.506 527.924 416.304 524.432 415.365 520.293C409.293 493.538 394.266 468.237 384.653 452.051L384.338 451.521L379.701 444.807C379.009 443.805 378.638 442.615 378.638 441.397V173.407C378.638 146.204 369.076 123.252 349.953 104.55C330.83 85.4225 307.882 75.859 281.11 75.859C277.941 75.859 275.373 78.4274 275.373 81.5958V297.8C275.373 298.811 275.628 299.806 276.116 300.692L278.189 304.461C285.333 314.114 299.584 337.331 299.434 352.977C299.246 372.534 290.974 385.321 277.249 393.219L275.458 394.158C275.354 394.213 275.23 394.139 275.228 394.022C275.123 388.058 274.918 376.342 259.366 364.634C251.049 358.372 238.196 354.993 222.1 350.761C212.099 348.132 200.847 345.173 188.653 340.99C179.545 338.415 157.569 330.963 137.836 319.015C137.662 318.91 137.45 319.076 137.512 319.27Z" fill="url(#paint1_linear)"/>
<path d="M264.235 318.396C264.952 313.571 270.962 313.791 272.866 318.281C275.426 324.318 278.48 331.552 280.387 336.177C280.985 337.629 280.966 339.517 279.43 339.843C275.982 340.576 269.201 337.375 266.646 332.519C264.217 327.902 263.537 323.096 264.235 318.396Z" fill="url(#paint2_linear)"/>
</g>
<defs>
<linearGradient id="paint0_linear" x1="-144.5" y1="-14.5" x2="590.256" y2="378.488" gradientUnits="userSpaceOnUse">
<stop stop-color="white"/>
<stop offset="0.832774" stop-color="#F7A5B0"/>
</linearGradient>
<linearGradient id="paint1_linear" x1="-144.5" y1="-14.5" x2="590.256" y2="378.488" gradientUnits="userSpaceOnUse">
<stop stop-color="white"/>
<stop offset="0.832774" stop-color="#F7A5B0"/>
</linearGradient>
<linearGradient id="paint2_linear" x1="-144.5" y1="-14.5" x2="590.256" y2="378.488" gradientUnits="userSpaceOnUse">
<stop stop-color="white"/>
<stop offset="0.832774" stop-color="#F7A5B0"/>
</linearGradient>
</defs>
</svg>
