<svg width="69" height="94" viewBox="0 0 69 94" fill="none" xmlns="http://www.w3.org/2000/svg">
<path d="M58.9002 9.64257C52.3836 3.42477 43.7188 0 34.5035 0C25.2863 0 16.6233 3.42477 10.1067 9.64257C-1.95309 21.1477 -3.4518 42.795 6.86104 55.9104L31.266 89.5389C32.8632 91.7398 36.1437 91.7397 37.7408 89.5388L62.1046 55.9636C72.4588 42.795 70.9601 21.1477 58.9002 9.64257Z" fill="#F0485F"/>
<path fill-rule="evenodd" clip-rule="evenodd" d="M31.8862 24.2937C31.521 23.8969 31.1272 23.4431 30.7039 22.9516C29.9364 22.0871 29.1381 21.1986 28.3371 20.3106C27.9916 21.1171 28.4059 22.9157 29.0201 23.7623C28.223 23.1328 27.6738 22.2022 27.0705 21.1799C26.7019 20.5553 26.3131 19.8964 25.8351 19.2509C24.7279 17.7556 23.3549 15.9899 20.4837 15C19.7284 19.1392 20.4015 27.4095 26.128 36.0127C23.9529 33.7163 20.7588 33.4814 20 33.6182V56.4578H27.9244V39.0206C27.8461 38.4202 27.6001 37.9386 27.4206 37.6623C28.6563 39.3387 30.308 39.8591 31.6884 39.8723C33.7903 39.8119 35.2098 38.3443 35.9626 37.0785C37.2035 34.8537 37.7483 31.6185 35.1526 28.2197C34.3091 27.1153 33.1686 25.7615 31.8857 24.2929L31.8862 24.2937ZM27.2956 37.4866C27.3368 37.5465 27.3784 37.6051 27.4206 37.6623C27.3727 37.5886 27.3296 37.5295 27.2956 37.4866Z" fill="white"/>
<path d="M30.5525 40.3799L30.5585 40.399L30.5657 40.4216C32.6744 44.7931 40.8387 54.2681 48.0252 56.464C48.1232 56.4869 48.2206 56.509 48.3173 56.5303C47.9791 56.1422 47.6808 55.6476 47.5312 54.912C48.6219 55.8324 50.0689 56.5241 52 57C51.6624 54.6312 50.3351 52.3233 49.5178 50.9021L49.4936 50.8601L49.0561 50.2061V28.8209C49.0561 26.6652 48.3224 24.8464 46.8549 23.3643C45.3874 21.8486 43.6264 21.0907 41.572 21.0907H41.1317V38.8007L41.3479 39.2064C41.8961 39.9713 42.9897 41.8112 42.9781 43.051C42.9637 44.6008 42.3289 45.6141 41.2757 46.24L41.1209 46.3238L41.1206 46.3036C41.1126 45.831 41.0968 44.9026 39.9034 43.9748C39.2651 43.4786 38.2788 43.2108 37.0436 42.8754C36.2762 42.6671 35.4127 42.4326 34.477 42.1011C33.7721 41.8953 32.0628 41.2964 30.5387 40.3354C30.5432 40.3502 30.5478 40.365 30.5525 40.3799Z" fill="white"/>
<path d="M40.5897 39.4526C40.5897 39.4526 41.3496 41.2909 41.5874 41.8988C41.4706 42.1912 40.709 41.9146 40.462 41.4298C40.1279 40.7739 40.2251 40.0695 40.5897 39.4526Z" fill="white"/>
</svg>
