<svg width="416" height="527" fill="none" xmlns="http://www.w3.org/2000/svg"><g opacity=".2"><path fill-rule="evenodd" clip-rule="evenodd" d="M154.889 116.273l-.001.001c-4.758-5.006-9.888-10.732-15.403-16.932a5268.077 5268.077 0 00-25.427-27.51c-2.563-2.755-6.551-3.272-6.902.476-.567 6.065-9.928 13-13.11 7.804-.632-1.034-1.268-2.077-1.908-3.128-4.803-7.882-9.87-16.196-16.099-24.342C62.47 34.896 45.835 14.13 12.777 1.33A5.595 5.595 0 005.18 5.754c-6.348 43.609-.428 117.126 39.519 198.475 3.235 6.588-19.138 31.288-26.406 30.27-5.256-.736-9.807-.99-13.273-.94-2.915.043-5.02 2.513-5.02 5.428v277.171a6 6 0 006 6h91.265a6 6 0 006-6V302.117c-1.021-7.577-4.227-13.654-6.565-17.141 16.103 21.155 37.626 27.722 55.615 27.888 27.389-.762 45.888-19.281 55.697-35.254 16.171-28.075 23.27-68.901-10.555-111.791-10.99-13.935-25.852-31.017-42.567-49.547-.001-.001-.002 0-.001.001zM95.071 282.76c.536.756 1.08 1.495 1.629 2.216a29.347 29.347 0 00-1.63-2.216z" fill="url(#paint0_linear)"/><path d="M137.512 319.27l.079.241c.062.19.133.364.222.542 27.681 55.278 133.886 174.516 227.39 202.183 1.197.271 2.063-1.186 1.321-2.164a40.8 40.8 0 01-4.249-6.93c-1.605-3.325 2.35-5.975 5.444-3.961 11.049 7.191 24.436 13.039 40.7 17.598 4.087 1.145 7.885-2.347 6.946-6.486-6.072-26.755-21.099-52.056-30.712-68.242l-.315-.53-4.637-6.714a6.002 6.002 0 01-1.063-3.41v-267.99c0-27.203-9.562-50.155-28.685-68.857-19.123-19.127-42.071-28.691-68.843-28.691a5.737 5.737 0 00-5.737 5.737V297.8c0 1.011.255 2.006.743 2.892l2.073 3.769c7.144 9.653 21.395 32.87 21.245 48.516-.188 19.557-8.46 32.344-22.185 40.242l-1.791.939a.157.157 0 01-.23-.136c-.105-5.964-.31-17.68-15.862-29.388-8.317-6.262-21.17-9.641-37.266-13.873-10.001-2.629-21.253-5.588-33.447-9.771-9.108-2.575-31.084-10.027-50.817-21.975a.22.22 0 00-.324.255z" fill="url(#paint1_linear)"/><path d="M264.235 318.396c.717-4.825 6.727-4.605 8.631-.115 2.56 6.037 5.614 13.271 7.521 17.896.598 1.452.579 3.34-.957 3.666-3.448.733-10.229-2.468-12.784-7.324-2.429-4.617-3.109-9.423-2.411-14.123z" fill="url(#paint2_linear)"/></g><defs><linearGradient id="paint0_linear" x1="-144.5" y1="-14.5" x2="590.256" y2="378.488" gradientUnits="userSpaceOnUse"><stop stop-color="#fff"/><stop offset=".833" stop-color="#F7A5B0"/></linearGradient><linearGradient id="paint1_linear" x1="-144.5" y1="-14.5" x2="590.256" y2="378.488" gradientUnits="userSpaceOnUse"><stop stop-color="#fff"/><stop offset=".833" stop-color="#F7A5B0"/></linearGradient><linearGradient id="paint2_linear" x1="-144.5" y1="-14.5" x2="590.256" y2="378.488" gradientUnits="userSpaceOnUse"><stop stop-color="#fff"/><stop offset=".833" stop-color="#F7A5B0"/></linearGradient></defs></svg>