<svg width="311" height="395" fill="none" xmlns="http://www.w3.org/2000/svg"><g opacity=".16"><path fill-rule="evenodd" clip-rule="evenodd" d="M115.519 87.405c-3.549-3.731-7.376-8-11.491-12.622a4273.455 4273.455 0 00-23.002-24.838c-3.358 7.584.67 24.5 6.638 32.462-7.747-5.92-13.084-14.672-18.947-24.287-3.583-5.874-7.362-12.07-12.007-18.141C45.95 25.916 32.605 9.309 4.701 0c-7.34 38.928-.799 116.709 54.855 197.62C38.416 176.022 7.375 173.813 0 175.1v214.801h77.015V225.908c-.76-5.647-3.152-10.176-4.896-12.775 12.01 15.766 28.062 20.661 41.478 20.785 20.427-.568 34.223-14.37 41.539-26.275 12.061-20.924 17.355-51.35-7.872-83.315-8.197-10.387-19.282-23.119-31.75-36.93l.005.007zM70.904 211.481c.4.564.805 1.114 1.215 1.652a22.034 22.034 0 00-1.215-1.652z" fill="url(#paint0_linear)"/><path d="M102.557 238.692l.059.18.07.212c20.494 41.113 99.84 130.223 169.684 150.875.952.216 1.898.424 2.839.623-3.287-3.65-6.187-8.301-7.641-15.219C278.169 384.019 292.232 390.524 311 395c-3.281-22.278-16.181-43.983-24.124-57.349l-.235-.395-4.252-6.151V129.983c0-20.274-7.131-37.38-21.393-51.319-14.262-14.255-31.377-21.382-51.343-21.382h-4.279v166.557l2.1 3.816c5.329 7.194 15.957 24.498 15.845 36.158-.14 14.575-6.31 24.105-16.546 29.991l-1.504.789-.003-.19c-.078-4.445-.231-13.176-11.83-21.902-6.203-4.667-15.789-7.185-27.793-10.339-7.458-1.96-15.85-4.165-24.945-7.283-6.85-1.935-23.463-7.568-38.275-16.605l.134.418z" fill="url(#paint1_linear)"/><path d="M200.106 229.971s7.385 17.289 9.696 23.006c-1.135 2.749-8.536.148-10.936-4.411-3.248-6.169-2.304-12.793 1.24-18.595z" fill="url(#paint2_linear)"/></g><defs><linearGradient id="paint0_linear" x1="264.5" y1="343" x2="59" y2="90.5" gradientUnits="userSpaceOnUse"><stop stop-color="#000203"/><stop offset="1" stop-opacity="0"/></linearGradient><linearGradient id="paint1_linear" x1="264.5" y1="343" x2="59" y2="90.5" gradientUnits="userSpaceOnUse"><stop stop-color="#000203"/><stop offset="1" stop-opacity="0"/></linearGradient><linearGradient id="paint2_linear" x1="264.5" y1="343" x2="59" y2="90.5" gradientUnits="userSpaceOnUse"><stop stop-color="#000203"/><stop offset="1" stop-opacity="0"/></linearGradient></defs></svg>