<svg width="33" height="43" fill="none" xmlns="http://www.w3.org/2000/svg"><g clip-path="url(#clip0)" fill="#EF425A"><path fill-rule="evenodd" clip-rule="evenodd" d="M12.258 9.515c-.377-.406-.783-.87-1.22-1.374a465.104 465.104 0 00-2.44-2.704c-.357.826.07 2.667.704 3.534-.822-.645-1.388-1.597-2.01-2.644-.38-.64-.782-1.314-1.275-1.975C4.876 2.822 3.46 1.013.5 0-.28 4.238.415 12.705 6.32 21.513 4.076 19.162.783 18.921 0 19.061v23.384h8.172V24.593a3.41 3.41 0 00-.52-1.391c1.275 1.716 2.978 2.249 4.402 2.262 2.167-.061 3.631-1.564 4.407-2.86 1.28-2.278 1.842-5.59-.835-9.07-.87-1.13-2.046-2.516-3.369-4.02v.001zM7.524 23.022c.042.061.085.121.128.18a2.391 2.391 0 00-.128-.18z"/><path d="M10.883 25.984l.006.02.007.023c2.175 4.476 10.594 14.176 18.005 16.424.101.024.202.046.301.068a3.458 3.458 0 01-.81-1.657c1.125.943 2.617 1.65 4.608 2.138-.348-2.425-1.717-4.788-2.56-6.243l-.024-.043-.452-.67V14.15c0-2.207-.756-4.07-2.27-5.586-1.513-1.552-3.329-2.328-5.448-2.328h-.454v18.131l.223.416c.566.783 1.693 2.667 1.681 3.936-.015 1.587-.67 2.624-1.755 3.265l-.16.086v-.02c-.008-.485-.025-1.435-1.255-2.385-.659-.508-1.676-.782-2.95-1.126-.79-.213-1.681-.453-2.646-.793-.727-.21-2.49-.823-4.062-1.807l.014.045z"/><path d="M21.234 25.035s.783 1.882 1.028 2.504c-.12.3-.905.016-1.16-.48-.345-.671-.244-1.393.132-2.024z"/></g><defs><clipPath id="clip0"><path fill="#fff" d="M0 0h33v43H0z"/></clipPath></defs></svg>