<svg width="201" height="66" fill="none" xmlns="http://www.w3.org/2000/svg"><path fill-rule="evenodd" clip-rule="evenodd" d="M147.061 10.658a64.373 64.373 0 01-1.408-1.54c-.915-.99-1.865-2.01-2.819-3.028-.412.925.082 2.987.813 3.958-.949-.722-1.603-1.789-2.322-2.961-.439-.716-.902-1.472-1.471-2.212-1.319-1.715-2.955-3.74-6.374-4.875-.9 4.747-.098 14.23 6.722 24.097-2.59-2.634-6.395-2.903-7.299-2.746v26.191h9.439V27.546a3.745 3.745 0 00-.6-1.558c1.472 1.923 3.439 2.52 5.083 2.535 2.504-.07 4.194-1.753 5.091-3.204 1.478-2.552 2.127-6.262-.965-10.16-1.004-1.266-2.363-2.818-3.891-4.502h.001zm-5.468 15.129c.049.069.099.136.149.201a2.796 2.796 0 00-.149-.201z" fill="#fff"/><path d="M145.472 29.105l.007.022.009.026c2.512 5.013 12.236 15.878 20.796 18.396.116.027.232.052.348.076a3.827 3.827 0 01-.937-1.855c1.299 1.055 3.023 1.848 5.323 2.394-.402-2.717-1.983-5.363-2.957-6.993l-.028-.048-.521-.75V15.849c0-2.472-.874-4.558-2.622-6.257-1.748-1.738-3.846-2.607-6.293-2.607h-.524v20.309l.257.465c.653.877 1.956 2.987 1.942 4.409-.017 1.777-.773 2.939-2.028 3.657l-.184.096v-.023c-.01-.542-.029-1.607-1.45-2.67-.76-.57-1.935-.877-3.406-1.262-.914-.239-1.943-.507-3.057-.888-.84-.235-2.876-.922-4.691-2.024l.016.05zM84.226 22.57V6.985c2.602 0 4.816.927 6.642 2.78 1.864 1.816 2.796 4.018 2.796 6.606v31.171h-9.438V31.956h-8.681v15.586h-9.439V6.985c2.602 0 4.816.927 6.642 2.78 1.864 1.816 2.797 4.018 2.797 6.606v6.2h8.68zM46.165 35.549V28.48h15.264v7.069H46.165zm78.101-25.783c-1.825-1.854-4.039-2.781-6.642-2.781v31.171h-8.681V16.371c0-2.588-.932-4.79-2.796-6.605-1.826-1.854-4.04-2.781-6.642-2.781V38.13l.016.01c.04 2.562 1.728 7.824 8.044 9.233.589.131 1.198.168 1.802.168h17.696v-31.17c0-2.588-.932-4.79-2.797-6.605zm67.502-2.781h-18.411v9.386h8.973v31.171h9.438V16.371h8.973v-.464c0-2.472-.874-4.577-2.622-6.315-1.748-1.738-3.865-2.607-6.351-2.607z" fill="#fff"/><path d="M157.427 28.041s.905 2.108 1.189 2.805c-.139.336-1.047.018-1.341-.537-.398-.753-.282-1.56.152-2.268zm-86.02 37.852c-.83 0-1.609-.163-2.336-.489a4.174 4.174 0 01-1.752-1.48c-.441-.66-.661-1.489-.661-2.485 0-.572.102-1.124.307-1.657a4.206 4.206 0 01.922-1.45c.41-.424.922-.76 1.537-1.006.615-.257 1.327-.385 2.136-.385.39 0 .82.04 1.291.118.472.07.902.178 1.291.326l.108 1.909-.569.059-.415-1.332c-.194-.148-.476-.256-.845-.325a5.31 5.31 0 00-.999-.104c-.85 0-1.542.173-2.075.518a2.987 2.987 0 00-1.137 1.361 4.44 4.44 0 00-.353 1.761c0 .878.158 1.613.476 2.205.328.591.763 1.04 1.306 1.346a3.816 3.816 0 001.83.444c.358 0 .665-.03.921-.089.257-.069.523-.168.8-.296l.753-1.42.538.059-.415 1.805a8.7 8.7 0 01-1.23.43c-.44.118-.917.177-1.43.177zM63.1 65.76c.144.01.375.034.692.074l.584-2.057-.584-.118-.784 1.376c-.04.01-.107.02-.2.03-.091.01-.214.019-.368.029h-2.336c-.144 0-.282-.005-.415-.015l-.384-.03c0-.049-.005-.148-.016-.296 0-.147-.005-.31-.015-.488v-2.627c.13-.004.248-.006.353-.006a7.06 7.06 0 01.415-.015h1.337c.154 0 .282.005.385.015.112.01.194.024.246.044l.2 1.02h.553v-2.825h-.554l-.2 1.05a.976.976 0 01-.245.045h-2.137c-.105 0-.223-.003-.353-.007v-2.242c.01-.237.015-.45.015-.637.01-.187.016-.296.016-.325.143-.02.281-.03.415-.03.133-.01.297-.015.491-.015h2.03c.112 0 .214.005.306.015.103 0 .18.005.231.015l.492 1.213.6-.089-.262-1.849c-.215.02-.39.035-.523.044-.123.01-.23.015-.322.015h-5.349l-.03.474.922.192c.01.04.015.143.015.31.01.159.015.39.015.696.01.306.016.686.016 1.14v3.077c0 .444-.005.819-.016 1.125 0 .296-.005.527-.015.695 0 .158-.005.261-.015.31l-.922.193.03.474h5.687z" fill="#fff"/><path fill-rule="evenodd" clip-rule="evenodd" d="M48.155 65.286l.031.474h2.797l.031-.474-.922-.222a9.554 9.554 0 01-.03-.325 13.923 13.923 0 01-.031-.592V61.66h.799c.077 0 .154-.002.23-.005l.984 1.588c.43.68.799 1.214 1.106 1.598.318.385.625.656.922.814.308.158.656.237 1.045.237.083 0 .17-.005.262-.015a.98.98 0 00.261-.03l.016-.444a2.297 2.297 0 01-.738-.236 2.85 2.85 0 01-.707-.563 9.96 9.96 0 01-.83-1.08L52 61.513c.16-.044.312-.099.458-.163.481-.217.855-.513 1.122-.888.266-.384.4-.818.4-1.302 0-.67-.247-1.183-.739-1.538-.481-.365-1.152-.548-2.013-.548H48.17l-.03.474.921.192c.01.04.016.138.016.296.01.158.015.39.015.695.01.296.015.681.015 1.154v3.078c0 .247-.005.483-.015.71v.622a6.5 6.5 0 01-.015.473v.296l-.923.222zm1.876-4.202h.799c.696 0 1.23-.153 1.598-.459.369-.306.553-.74.553-1.302 0-.552-.164-.971-.492-1.258-.317-.285-.783-.429-1.398-.429h-1.03l-.03.06v3.388zm26.731 4.202l.03.474h2.798l.03-.474-.922-.222a9.554 9.554 0 01-.03-.325c-.01-.129-.02-.326-.031-.592V61.66h.799c.078 0 .154-.002.23-.005l.984 1.588c.43.68.8 1.214 1.107 1.598.317.385.625.656.922.814.307.158.656.237 1.045.237.082 0 .169-.005.261-.015.103 0 .19-.01.261-.03l.016-.444a2.296 2.296 0 01-.738-.236 2.851 2.851 0 01-.707-.563 9.96 9.96 0 01-.83-1.08l-1.38-2.012c.16-.044.312-.099.458-.163.482-.217.856-.513 1.122-.888.267-.384.4-.818.4-1.302 0-.67-.246-1.183-.738-1.538-.482-.365-1.153-.548-2.013-.548h-3.059l-.03.474.922.192c.01.04.015.138.015.296.01.158.015.39.015.695.01.296.016.681.016 1.154v3.078c0 .247-.005.483-.016.71v.622c0 .177-.005.335-.015.473v.296l-.922.222zm1.875-4.202h.799c.697 0 1.23-.153 1.598-.459.37-.306.554-.74.554-1.302 0-.552-.164-.971-.492-1.258-.318-.285-.784-.429-1.399-.429h-1.03l-.03.06v3.388z" fill="#fff"/><path d="M85.805 57.074h2.86l.03.474-.922.207a10.708 10.708 0 00-.046.77v3.994c.01.641.123 1.154.338 1.54.215.374.507.645.876.813.379.158.799.237 1.26.237.44 0 .83-.084 1.168-.252.348-.177.62-.463.815-.858.204-.405.307-.942.307-1.613v-2.234c0-.405-.005-.77-.015-1.095a18.9 18.9 0 00-.016-.829 3.059 3.059 0 00-.046-.473l-1.076-.207.031-.474h2.782l.046.474-.922.207c0 .03-.005.103-.016.222 0 .118-.005.345-.015.68v3.714c0 .849-.143 1.534-.43 2.057-.277.513-.656.888-1.138 1.124-.47.227-.993.34-1.567.34-1.035 0-1.855-.28-2.46-.843-.594-.572-.89-1.366-.89-2.382v-2.782c0-.601-.006-1.045-.016-1.331-.01-.296-.02-.493-.03-.592a.825.825 0 00-.016-.207l-.922-.207.03-.474zm10.95 8.212l.03.474h2.844l.03-.474-.922-.192a3.454 3.454 0 01-.046-.252c-.01-.138-.02-.355-.03-.65v-5.55c.01-.295.02-.512.03-.65a2.02 2.02 0 01.046-.252l.923-.192-.031-.474h-2.843l-.031.474.922.192c.01.04.015.143.015.31.01.159.016.39.016.696.01.296.015.676.015 1.14v3.077c0 .454-.005.829-.015 1.125 0 .296-.005.527-.016.695 0 .158-.005.261-.015.31l-.922.193zm12.21-8.271l.338 2.293-.554.074-.66-1.657a.835.835 0 00-.246-.03 2.835 2.835 0 00-.262-.014h-1.029c-.205 0-.395.005-.569.015 0 .079-.005.261-.015.547v4.306c0 .66.005 1.223.015 1.687.01.463.015.75.015.858l1.276.163-.031.503h-3.504l-.031-.503 1.276-.163c0-.109.005-.395.015-.858.011-.464.016-1.026.016-1.687v-4.306a5.4 5.4 0 00-.016-.547 9.338 9.338 0 00-.553-.015h-1.091c-.072 0-.154.005-.246.015a.703.703 0 00-.215.03l-.676 1.671-.554-.089.338-2.293c.123.01.231.02.323.03.103.01.195.02.277.03h5.748l.261-.03c.103-.01.22-.02.354-.03zm4.863.059h-2.367l-.031.474.922.192c.011.207.016.513.016.917.01.395.01.77 0 1.125l-.046 2.974a36.352 36.352 0 01-.046 1.953c0 .178-.005.306-.016.385l-1.029.192.03.474h2.859l.031-.474-1.03-.192c-.01-.109-.021-.355-.031-.74v-6.567l3.535 8.017h.323l3.507-7.763.028 4.833c.01.503.015.888.015 1.154v.622c0 .138-.005.29-.015.459l-.907.177.031.474h2.812l.031-.474-.922-.177a8.25 8.25 0 00-.016-.474 41.23 41.23 0 01-.03-.784c0-.335-.006-.77-.016-1.302l-.03-2.752c-.011-.375-.016-.77-.016-1.184 0-.414.005-.71.016-.888l.922-.177-.031-.474h-2.136l-3.212 7.147-3.151-7.147zm17.666 8.76a14.34 14.34 0 00-.692-.074h-5.687l-.03-.474.922-.192c.01-.05.015-.153.015-.31.01-.169.016-.4.016-.696.01-.306.015-.681.015-1.125v-3.078c0-.453-.005-.833-.015-1.139 0-.306-.006-.537-.016-.695a1.81 1.81 0 00-.015-.311l-.922-.192.03-.474h5.349c.092 0 .2-.005.323-.015.133-.01.307-.024.522-.044l.261 1.85-.599.088-.492-1.213a1.313 1.313 0 00-.23-.015 2.917 2.917 0 00-.308-.015h-2.028a6.81 6.81 0 00-.492.015c-.133 0-.272.01-.415.03 0 .03-.005.138-.016.325 0 .188-.005.4-.015.637v2.242c.13.004.248.007.354.007h2.136a.971.971 0 00.246-.045l.2-1.05h.553v2.826h-.553l-.2-1.021a.971.971 0 00-.246-.044 4.128 4.128 0 00-.384-.015h-1.337a7.03 7.03 0 00-.415.015c-.106 0-.224.002-.354.007v2.626c.01.178.015.34.015.489.011.147.016.246.016.295l.384.03c.133.01.272.015.415.015h2.336c.154-.01.277-.02.369-.03.092-.01.159-.02.2-.03l.784-1.375.584.118-.584 2.057zm9.766-2.014v-3.698c0-.631-.006-1.11-.016-1.435-.01-.335-.02-.572-.031-.71a1.105 1.105 0 00-.03-.237l-1.03-.192.031-.474h2.766l.031.474-.922.192c0 .02-.011.099-.031.237-.01.138-.021.375-.031.71-.01.335-.015.814-.015 1.435v4.706c0 .315.005.646.015.99h-.553l-5.318-7.41v4.333c0 .612.005 1.085.016 1.42.02.326.036.558.046.696.02.128.031.207.031.237l1.029.192-.03.474h-2.798l-.03-.474.922-.192c.01-.03.02-.104.031-.222.01-.128.02-.355.03-.68.011-.336.016-.82.016-1.45V59.93c0-.523-.005-.927-.016-1.213 0-.286-.005-.499-.015-.637a2.012 2.012 0 00-.046-.34l-.922-.192.03-.474h1.952l4.888 6.747zm11.041-6.805l.338 2.293-.553.074-.661-1.657a.826.826 0 00-.246-.03 2.797 2.797 0 00-.261-.014h-1.03c-.205 0-.394.005-.568.015 0 .079-.006.261-.016.547v4.306c0 .66.005 1.223.016 1.687.01.463.015.75.015.858l1.276.163-.031.503h-3.504l-.031-.503 1.276-.163c0-.109.005-.395.015-.858.01-.464.015-1.026.015-1.687v-4.306c0-.286-.005-.468-.015-.547a9.338 9.338 0 00-.553-.015h-1.092a2.35 2.35 0 00-.245.015.714.714 0 00-.216.03l-.676 1.671-.553-.089.338-2.293c.123.01.231.02.323.03.102.01.194.02.276.03h5.748l.076-.01.034-.004.152-.016c.102-.01.22-.02.353-.03zm5.035 4.207l43.443.39-43.443.389v-.779zM0 61.611l43.444-.389v.779L0 61.61zm41.482-45.505c-.047-3.433-1.553-6.95-6.135-8.674-.456-.134-1.6-.404-2.53-.408l-.805-.002-9.09 11.036-6.032-7.945c-1.857-2.23-4.622-3.128-7.574-3.128H4.305V37.91h.01c0 4.747 1.486 7.663 6.011 8.995.485.143 1.614.351 2.655.392.22.008.481.013.763.015v-27.06l9.178 11.075 9.121-11.074v27.29h9.439V16.105z" fill="#fff"/></svg>