<svg width="69" height="94" fill="none" xmlns="http://www.w3.org/2000/svg"><path d="M58.9 9.643C52.384 3.425 43.72 0 34.504 0c-9.218 0-17.88 3.425-24.397 9.643C-1.953 21.148-3.452 42.795 6.86 55.91l24.406 33.63c1.597 2.2 4.878 2.2 6.475 0l24.364-33.575C72.459 42.795 70.96 21.148 58.9 9.643z" fill="#F0485F"/><path fill-rule="evenodd" clip-rule="evenodd" d="M31.886 24.294c-.365-.397-.759-.85-1.182-1.342a452.492 452.492 0 00-2.367-2.641c-.345.806.069 2.605.683 3.451-.797-.63-1.346-1.56-1.95-2.582-.368-.625-.757-1.284-1.235-1.93-1.107-1.494-2.48-3.26-5.351-4.25-.756 4.14-.083 12.41 5.644 21.013-2.175-2.297-5.37-2.532-6.128-2.395v22.84h7.924V39.02a3.345 3.345 0 00-.503-1.359c1.235 1.677 2.887 2.197 4.267 2.21 2.102-.06 3.522-1.528 4.275-2.794 1.24-2.224 1.785-5.46-.81-8.858-.844-1.105-1.984-2.458-3.267-3.927zm-4.59 13.193c.04.06.082.118.125.175a2.344 2.344 0 00-.125-.175z" fill="#fff"/><path d="M30.552 40.38l.006.019.008.023c2.108 4.371 10.273 13.846 17.46 16.042l.291.066a3.387 3.387 0 01-.786-1.618c1.09.92 2.538 1.612 4.469 2.088-.338-2.369-1.665-4.677-2.482-6.098l-.024-.042-.438-.654V28.821c0-2.156-.734-3.975-2.201-5.457-1.468-1.515-3.229-2.273-5.283-2.273h-.44V38.8l.216.405c.548.765 1.642 2.605 1.63 3.845-.014 1.55-.65 2.563-1.702 3.189l-.155.084v-.02c-.008-.473-.024-1.401-1.218-2.33-.638-.495-1.624-.763-2.86-1.099a34.458 34.458 0 01-2.566-.774c-.705-.206-2.414-.805-3.938-1.766l.013.045z" fill="#fff"/><path d="M40.59 39.453s.76 1.838.997 2.446c-.116.292-.878.016-1.125-.47-.334-.655-.237-1.36.128-1.976z" fill="#fff"/></svg>