<svg width="199" height="151" fill="none" xmlns="http://www.w3.org/2000/svg"><path opacity=".2" d="M6 151a6 6 0 01-6-6V84.677c0-28.921 7.163-50.055 21.488-63.404C34.915 8.762 54.03 1.748 78.833.231c2.916-.179 5.477 1.861 6.06 4.724l3.897 19.147c.697 3.425-1.682 6.694-5.111 7.365C61.226 35.865 50 47.623 50 66.74a2.92 2.92 0 002.92 2.92h21.659a6 6 0 016 6V145a6 6 0 01-6 6H6zm109.504 0a6 6 0 01-6-6V84.677c0-28.921 7.163-50.055 21.488-63.404C144.68 8.76 163.817 1.745 188.402.23c2.887-.178 5.432 1.821 6.046 4.648l4.158 19.15c.748 3.449-1.64 6.771-5.103 7.45-22.666 4.445-33.999 16.477-33.999 36.097 0 1.151.934 2.085 2.086 2.085h22.493a6 6 0 016 6V145a6 6 0 01-6 6h-68.579z" fill="url(#paint0_linear)"/><defs><linearGradient id="paint0_linear" x1="100" y1="0" x2="200.77" y2="200.02" gradientUnits="userSpaceOnUse"><stop stop-color="#F7A5B0"/><stop offset="1" stop-color="#fff"/></linearGradient></defs></svg>