<svg width="332" height="271" viewBox="0 0 332 271" fill="none" xmlns="http://www.w3.org/2000/svg">
<path d="M63 240.093L82.3064 227L278 231.538V241.656H231.65L244.796 270L240.364 266.801L211.742 248.5L151.043 245.747L124.375 270L138.197 248.574L63 240.093Z" fill="#B5D7E0"/>
<path d="M140.972 237C140.972 237 125 266.428 125 265.903C125.077 265.379 128.549 268 128.549 268L150 237.075H140.972V237Z" fill="#828282"/>
<path d="M117.86 266.711L113.421 254.8C112.067 251.068 114.098 246.859 117.785 245.986L121.02 245.192C124.706 244.239 128.317 246.939 128.769 250.989L129.972 263.773C130.273 267.187 128.092 270.284 124.932 270.919C121.922 271.396 118.988 269.728 117.86 266.711Z" fill="#828282"/>
<path d="M228.306 237C228.306 237 243 266.428 243 265.903C242.929 265.379 239.735 268 239.735 268L220 237.075H228.306V237Z" fill="#828282"/>
<path d="M251.426 266.711L255.604 254.8C256.878 251.068 254.966 246.859 251.497 245.986L248.452 245.192C244.983 244.239 241.584 246.939 241.159 250.989L240.026 263.773C239.743 267.187 241.796 270.284 244.77 270.919C247.602 271.396 250.364 269.728 251.426 266.711Z" fill="#828282"/>
<path d="M100 174.396L66 169V171.698L100 183V174.396Z" fill="#828282"/>
<path d="M277.601 142.995C273.832 142.846 270.86 139.508 271.005 135.651L271.223 130.755C271.368 126.898 274.629 123.857 278.399 124.005C282.168 124.154 285.14 127.492 284.995 131.349L284.777 136.245C284.632 140.102 281.371 143.143 277.601 142.995Z" fill="#828282"/>
<path d="M269 169.8L278.18 163.875C283.33 160.575 285.046 153.825 282.061 148.425L276.239 138H280.717L290.121 148.725C294.525 153.75 293.778 161.4 288.554 165.525L274 177L269 169.8Z" fill="#828282"/>
<path d="M100.28 237L93 104H278L270.27 237H100.28Z" fill="white"/>
<path fill-rule="evenodd" clip-rule="evenodd" d="M92.3077 103.355C92.52 103.128 92.8153 103 93.1243 103H277.876C278.185 103 278.481 103.129 278.694 103.356C278.906 103.583 279.016 103.889 278.998 104.2L271.278 236.933C271.243 237.532 270.751 238 270.156 238H100.394C99.7976 238 99.3048 237.53 99.2719 236.929L92.0017 104.196C91.9847 103.885 92.0953 103.581 92.3077 103.355ZM94.3123 105.268L101.458 235.732H269.096L276.684 105.268H94.3123Z" fill="#828282"/>
<path d="M232 131H262.709L263 132.714L232 133V131Z" fill="#D8EBF0"/>
<path d="M232 137H262.709L263 138.786L232 139V137Z" fill="#D8EBF0"/>
<path d="M232 143H262.709L263 144.786L232 145V143Z" fill="#D8EBF0"/>
<path d="M232 149H254.784L255 150.786L232 151V149Z" fill="#D8EBF0"/>
<path d="M99 127L115.323 212.043C116.451 218 121.566 222.468 127.659 222.915L262 232H104.566L99 127Z" fill="#EBEFF0"/>
<path d="M93 104L94.6511 121H276.124L278 104H93Z" fill="#25587D"/>
<path fill-rule="evenodd" clip-rule="evenodd" d="M92.2898 103.384C92.503 103.139 92.8062 103 93.1243 103H277.876C278.197 103 278.502 103.142 278.715 103.39C278.929 103.638 279.03 103.968 278.992 104.298L277.119 120.971C277.053 121.558 276.573 122 276.002 122H94.7731C94.1966 122 93.7134 121.549 93.6547 120.955L92.0058 104.282C91.9735 103.954 92.0766 103.628 92.2898 103.384ZM94.3694 105.327L95.7882 119.673H275.001L276.613 105.327H94.3694Z" fill="#828282"/>
<path d="M99.9759 112L230 115.265L229.174 118H99L99.9759 112Z" fill="#1D425D"/>
<path d="M243 117C245.209 117 247 115.209 247 113C247 110.791 245.209 109 243 109C240.791 109 239 110.791 239 113C239 115.209 240.791 117 243 117Z" fill="white"/>
<path d="M254 117C256.209 117 258 115.209 258 113C258 110.791 256.209 109 254 109C251.791 109 250 110.791 250 113C250 115.209 251.791 117 254 117Z" fill="white"/>
<path d="M266 117C268.209 117 270 115.209 270 113C270 110.791 268.209 109 266 109C263.791 109 262 110.791 262 113C262 115.209 263.791 117 266 117Z" fill="white"/>
<path fill-rule="evenodd" clip-rule="evenodd" d="M132.801 146.418C134.088 144.816 136.474 144.529 138.128 145.775L165.535 166.426C167.19 167.672 167.487 169.981 166.199 171.582C164.912 173.184 162.526 173.471 160.872 172.225L133.465 151.574C131.81 150.328 131.513 148.019 132.801 146.418Z" fill="#828282"/>
<path fill-rule="evenodd" clip-rule="evenodd" d="M166.199 146.418C167.487 148.019 167.19 150.328 165.535 151.574L138.128 172.225C136.474 173.471 134.088 173.184 132.801 171.582C131.513 169.981 131.81 167.672 133.465 166.426L160.872 145.775C162.526 144.529 164.912 144.816 166.199 146.418Z" fill="#828282"/>
<path fill-rule="evenodd" clip-rule="evenodd" d="M201.779 146.473C203.032 144.81 205.354 144.51 206.965 145.804L233.573 167.172C235.184 168.466 235.474 170.863 234.221 172.527C232.968 174.19 230.646 174.49 229.035 173.196L202.427 151.828C200.816 150.534 200.526 148.137 201.779 146.473Z" fill="#828282"/>
<path fill-rule="evenodd" clip-rule="evenodd" d="M234.221 146.473C235.474 148.137 235.184 150.534 233.573 151.828L206.965 173.196C205.354 174.49 203.032 174.19 201.779 172.527C200.526 170.863 200.816 168.466 202.427 167.172L229.035 145.804C230.646 144.51 232.968 144.81 234.221 146.473Z" fill="#828282"/>
<path fill-rule="evenodd" clip-rule="evenodd" d="M210.475 206.873C196.983 193.299 175.017 193.299 161.525 206.873C160.033 208.376 157.612 208.376 156.12 206.873C154.627 205.371 154.627 202.936 156.12 201.434C172.596 184.855 199.404 184.855 215.88 201.434C217.373 202.936 217.373 205.371 215.88 206.873C214.388 208.376 211.967 208.376 210.475 206.873Z" fill="#828282"/>
<path d="M53 68.2994L66.8 218L74 217.85L56.9 68L53 68.2994Z" fill="white"/>
<path fill-rule="evenodd" clip-rule="evenodd" d="M57.098 67.0034C57.721 66.9571 58.2702 67.3949 58.3409 67.9942L75.9925 217.603C76.0295 217.916 75.9281 218.23 75.7131 218.467C75.4981 218.705 75.1895 218.844 74.8629 218.85L67.4306 219C66.8213 219.012 66.3059 218.568 66.25 217.982L52.0049 68.5226C51.9764 68.2237 52.0733 67.9262 52.2739 67.6968C52.4746 67.4674 52.7621 67.3253 53.0722 67.3023L57.098 67.0034ZM54.4257 69.4503L68.4638 216.737L73.5407 216.635L56.1599 69.3215L54.4257 69.4503Z" fill="#828282"/>
<path d="M65.6013 181.994C61.8321 181.838 58.8601 178.325 59.0051 174.264L59.2225 169.111C59.3675 165.051 62.6294 161.849 66.3987 162.005C70.168 162.162 73.1399 165.675 72.9949 169.736L72.7775 174.889C72.6325 179.027 69.3706 182.151 65.6013 181.994Z" fill="#828282"/>
<path d="M37.6971 105L5.38286 78.9257L1 37.6229L27.1486 5.38286L68.3771 1L100.617 27.0743L105 68.3771L78.9257 100.617L37.6971 105Z" fill="#EF425A"/>
<path fill-rule="evenodd" clip-rule="evenodd" d="M68.8702 0.00629249C69.1664 -0.0251981 69.463 0.0623647 69.6946 0.249691L102.169 26.5133C102.4 26.7004 102.548 26.9717 102.579 27.2676L106.994 68.8704C107.025 69.1665 106.938 69.4631 106.75 69.6946L80.4867 102.169C80.2996 102.4 80.0284 102.548 79.7326 102.579L38.2047 106.994C37.9089 107.025 37.6127 106.938 37.3812 106.751L4.83226 80.4875C4.60037 80.3004 4.4524 80.0287 4.42095 79.7324L0.00627009 38.1296C-0.0252138 37.8329 0.0627308 37.5359 0.250674 37.3042L26.5891 4.83006C26.7762 4.59946 27.0469 4.45237 27.3422 4.42098L68.8702 0.00629249ZM28.0405 6.60415L2.28767 38.3562L6.60407 79.0328L38.4293 104.712L79.0334 100.396L104.712 68.6447L100.396 27.9665L68.6448 2.28765L28.0405 6.60415Z" fill="#828282"/>
<path d="M331 24.3489L177 20L178.57 94.3804L209.146 95.3552L206.978 115L235.086 98.2794L238.077 96.2549L323.898 98.9542L331 24.3489Z" fill="#EF425A"/>
<path fill-rule="evenodd" clip-rule="evenodd" d="M175.333 19.3292C175.552 19.1105 175.85 18.9917 176.159 19.0004L330.905 23.3829C331.217 23.3917 331.511 23.5302 331.718 23.7653C331.924 24.0004 332.025 24.3112 331.995 24.6235L324.859 99.8047C324.802 100.4 324.296 100.849 323.702 100.83L237.828 98.1212L235.125 99.9564C235.107 99.9687 235.088 99.9805 235.07 99.9918L206.825 116.841C206.457 117.061 205.998 117.052 205.639 116.819C205.28 116.586 205.083 116.169 205.13 115.742L207.174 97.164L177.669 96.2207C177.07 96.2016 176.59 95.7144 176.578 95.1119L175 20.1574C174.994 19.8472 175.114 19.5478 175.333 19.3292ZM177.278 21.2998L178.808 93.9892L208.464 94.9373C208.778 94.9474 209.074 95.0889 209.28 95.3276C209.485 95.5664 209.583 95.8807 209.548 96.1949L207.618 113.732L233.892 98.059L236.869 96.0375C237.065 95.9043 237.298 95.8366 237.535 95.844L322.716 98.5308L329.637 25.6146L177.278 21.2998Z" fill="#828282"/>
<path d="M99.7143 118L98 108L108 118H99.7143Z" fill="#1D425D"/>
<path d="M230 219.854V185H265L262.239 221L230 219.854Z" fill="#D8EBF0"/>
<path d="M108.724 139.293L108 127H135L133.769 140L108.724 139.293Z" fill="#D8EBF0"/>
<path d="M129 188H117V197H129V188Z" fill="#D8EBF0"/>
<path d="M144 188H132V197H144V188Z" fill="#D8EBF0"/>
<path d="M129 200H117V209H129V200Z" fill="#D8EBF0"/>
<path d="M144 200H132V209H144V200Z" fill="#D8EBF0"/>
<path d="M38.6414 58.4861L39.1922 64.2107L35.8379 64.5334L36.3499 69.8555L30.1334 70.4535L29.6214 65.1315L14.818 66.5557L14.2672 60.8311L22.7386 39.5689L29.3576 38.9321L20.931 60.19L29.0706 59.4069L28.3564 51.9828L34.5729 51.3847L35.2872 58.8088L38.6414 58.4861Z" fill="white"/>
<path d="M54.4819 68.7429C50.5761 69.1187 47.3631 67.9383 44.8429 65.2017C42.3497 62.4324 40.8665 58.588 40.3932 53.6684C39.9199 48.7489 40.6444 44.7071 42.5668 41.5431C44.5161 38.3464 47.4436 36.5601 51.3495 36.1844C55.2851 35.8057 58.4996 37.001 60.9928 39.7703C63.4831 42.5098 64.9649 46.3393 65.4382 51.2589C65.9115 56.1784 65.1884 60.2351 63.2689 63.4289C61.3466 66.593 58.4175 68.3643 54.4819 68.7429ZM48.9108 60.5674C50.1505 62.1935 51.8139 62.9061 53.901 62.7053C55.9881 62.5045 57.4837 61.4729 58.3878 59.6105C59.3218 57.7453 59.6295 55.1579 59.3111 51.8483C58.9898 48.509 58.193 46.0128 56.9206 44.3599C55.678 42.704 54.0131 41.9765 51.926 42.1773C49.839 42.3781 48.3434 43.4097 47.4392 45.272C46.5351 47.1344 46.2437 49.7353 46.565 53.0746C46.8863 56.414 47.6682 58.9116 48.9108 60.5674Z" fill="white"/>
<path d="M92.7549 53.2799L93.3056 59.0045L89.9514 59.3272L90.4634 64.6493L84.2469 65.2474L83.7348 59.9253L68.9314 61.3495L68.3807 55.6249L76.852 34.3627L83.4711 33.7259L75.0444 54.9838L83.1841 54.2007L82.4698 46.7766L88.6863 46.1785L89.4006 53.6026L92.7549 53.2799Z" fill="white"/>
<path d="M214.897 37.8301L221.853 38.0247L210.554 63.2807C207.54 70.056 202.812 73.1686 196.372 72.6185L196.553 66.1171C198.43 66.3377 199.949 66.128 201.111 65.488C202.306 64.8153 203.312 63.717 204.128 62.1931L193.276 37.2251L200.231 37.4197L207.466 54.6703L214.897 37.8301Z" fill="white"/>
<path d="M246.486 48.8016L245.781 74.001L239.279 73.8191L239.814 54.7179L229.784 54.4373L229.25 73.5384L222.748 73.3565L223.453 48.1571L246.486 48.8016Z" fill="white"/>
<path d="M263.713 75.2089C259.916 75.1026 256.776 73.737 254.294 71.112C251.846 68.488 250.674 65.2944 250.78 61.5313C250.885 57.7682 252.233 54.6451 254.825 52.1621C257.45 49.68 260.66 48.492 264.457 48.5983C266.91 48.6669 269.128 49.3174 271.111 50.5498C273.094 51.7822 274.579 53.4041 275.565 55.4156L269.879 58.535C269.404 57.4793 268.654 56.6345 267.629 56.0006C266.638 55.3676 265.504 55.0332 264.228 54.9975C262.279 54.943 260.648 55.553 259.334 56.8277C258.022 58.0687 257.337 59.6972 257.281 61.7132C257.226 63.6955 257.818 65.3598 259.058 66.7059C260.299 68.0184 261.894 68.7019 263.843 68.7564C265.153 68.7931 266.32 68.5399 267.344 67.9969C268.403 67.4213 269.199 66.6197 269.732 65.5922L275.286 68.9757C274.122 70.927 272.515 72.4793 270.465 73.6324C268.416 74.752 266.165 75.2775 263.713 75.2089Z" fill="white"/>
<path d="M284.004 74.4652C283.14 75.2817 282.12 75.6735 280.945 75.6406C279.769 75.6077 278.772 75.1595 277.956 74.296C277.139 73.4325 276.748 72.4128 276.78 71.2368C276.813 70.0608 277.262 69.0646 278.125 68.2481C278.989 67.4316 280.008 67.0399 281.184 67.0728C282.36 67.1057 283.356 67.5539 284.173 68.4173C284.989 69.2808 285.381 70.3006 285.348 71.4765C285.315 72.6525 284.867 73.6487 284.004 74.4652Z" fill="white"/>
<path d="M297.489 74.8425C296.626 75.659 295.606 76.0508 294.43 76.0179C293.254 75.985 292.258 75.5368 291.441 74.6733C290.625 73.8098 290.233 72.7901 290.266 71.6141C290.299 70.4382 290.747 69.4419 291.611 68.6255C292.474 67.809 293.494 67.4172 294.67 67.4501C295.846 67.483 296.842 67.9312 297.659 68.7947C298.475 69.6582 298.867 70.6779 298.834 71.8539C298.801 73.0298 298.353 74.0261 297.489 74.8425Z" fill="white"/>
<path d="M310.975 75.2199C310.111 76.0363 309.092 76.4281 307.916 76.3952C306.74 76.3623 305.744 75.9141 304.927 75.0506C304.111 74.1872 303.719 73.1674 303.752 71.9915C303.785 70.8155 304.233 69.8193 305.096 69.0028C305.96 68.1863 306.98 67.7945 308.156 67.8274C309.331 67.8603 310.328 68.3085 311.144 69.172C311.961 70.0355 312.352 71.0552 312.32 72.2312C312.287 73.4072 311.838 74.4034 310.975 75.2199Z" fill="white"/>
</svg>
