<svg xmlns="http://www.w3.org/2000/svg" width="50" height="51" fill="#aab3c5"><path d="M47.727 26.925V5.53A4.55 4.55 0 0 0 43.182.986H4.545A4.55 4.55 0 0 0 0 5.531v38.636a4.55 4.55 0 0 0 4.545 4.545H25.94c2.388 1.433 5.17 2.273 8.152 2.273 8.77 0 15.9-7.137 15.9-15.9 0-2.98-.84-5.764-2.273-8.152zM25 3.26h18.182c1.254 0 2.273 1.02 2.273 2.273v18.433c-2.9-2.955-6.914-4.797-11.364-4.797-3.38 0-6.5 1.068-9.1 2.872V3.26zM2.273 5.53c0-1.253 1.02-2.273 2.273-2.273h18.182V23.71H2.273V5.53zm2.273 40.9c-1.254 0-2.273-1.02-2.273-2.273v-18.18h18.78c-1.804 2.58-2.872 5.7-2.872 9.1 0 4.45 1.842 8.474 4.797 11.364H4.545zm29.545 2.273c-7.52 0-13.636-6.117-13.636-13.636S26.57 21.44 34.1 21.44s13.636 6.117 13.636 13.636S41.6 48.713 34.1 48.713zm-17.045-36.36h-3.4v-3.4c0-.628-.508-1.136-1.136-1.136s-1.136.508-1.136 1.136v3.4h-3.4c-.628 0-1.136.508-1.136 1.136s.508 1.136 1.137 1.136h3.4v3.4c0 .628.508 1.136 1.136 1.136s1.136-.508 1.136-1.136v-3.4h3.4c.628 0 1.136-.508 1.136-1.136s-.508-1.136-1.137-1.136zm23.864 1.13c0-.628-.508-1.136-1.136-1.136h-9.1c-.628 0-1.136.508-1.136 1.136s.508 1.136 1.136 1.136h9.1c.628 0 1.136-.508 1.136-1.136zM16.713 32c-.444-.444-1.163-.444-1.607 0L12.5 34.605 9.895 32c-.444-.444-1.163-.444-1.607 0s-.444 1.163 0 1.607l2.606 2.606-2.606 2.606c-.444.444-.444 1.163 0 1.607.222.222.513.333.803.333a1.13 1.13 0 0 0 .803-.333L12.5 37.82l2.606 2.606c.222.222.513.333.804.333a1.13 1.13 0 0 0 .803-.333c.444-.444.444-1.163 0-1.607l-2.606-2.606 2.606-2.606c.444-.444.444-1.163 0-1.607zm23.06-1.47H28.4c-.628 0-1.136.508-1.136 1.136s.508 1.136 1.136 1.136h11.364c.628 0 1.136-.508 1.136-1.136s-.508-1.136-1.136-1.136zm0 6.82H28.4c-.628 0-1.136.508-1.136 1.136s.508 1.136 1.136 1.136h11.364c.628 0 1.136-.508 1.136-1.136s-.508-1.136-1.136-1.136z"/></svg>