<svg width="36" height="35" viewBox="0 0 36 35" fill="none" xmlns="http://www.w3.org/2000/svg">
<path d="M35.6985 16.06C35.7192 16.0057 35.7312 15.9488 35.7338 15.8907C35.7338 15.8295 35.7236 15.7687 35.7041 15.7106L35.6581 15.584C35.171 11.0081 32.8341 6.80757 29.1609 3.90681C28.8984 3.69896 28.624 3.51122 28.3496 3.31867C28.3359 3.30763 28.3286 3.29205 28.3138 3.28158C28.2989 3.2711 28.287 3.27223 28.2744 3.26459C25.2375 1.14848 21.5967 0.00760519 17.86 0.000809196C17.7062 0.000809196 17.5515 0.000809197 17.4364 0.012419C15.4432 0.0500801 13.4716 0.418763 11.6064 1.10261C9.98927 -0.123501 7.79423 -0.345787 5.95167 0.530047C4.10912 1.40588 2.94182 3.22664 2.94474 5.22014C2.98057 5.88331 3.13904 6.53459 3.41317 7.14255C2.80432 7.95156 2.26831 8.80984 1.81124 9.70833C1.80221 9.7222 1.79696 9.73721 1.7891 9.75165C-2.44077 18.2532 1.07887 28.4826 9.71952 32.7997C18.3599 37.1171 28.966 33.946 33.6165 25.6546C34.8902 23.3737 35.6141 20.8413 35.7332 18.2489C35.7519 17.9691 35.7583 17.684 35.7583 17.3986C35.7583 16.9492 35.7344 16.5038 35.6985 16.06ZM33.9649 13.084C33.8892 13.0185 33.8193 12.9429 33.74 12.8826C32.9605 12.3072 32.0769 11.8782 31.1351 11.618C30.2775 11.4087 29.3811 11.3997 28.5191 11.5914C27.7859 11.7528 27.0256 11.7565 26.2906 11.6021C24.8643 11.2994 23.7372 11.0607 23.1394 10.1328C22.2833 8.79879 22.6847 6.92395 23.5881 6.26417C23.8858 6.06454 24.2531 5.98837 24.6088 6.05236C25.2416 6.10277 25.8775 5.99856 26.4584 5.74966C27.0765 5.46819 27.6257 5.06184 28.0693 4.55724C28.1821 4.64191 28.3012 4.71808 28.4116 4.80558C31.104 6.93612 33.045 9.83009 33.9649 13.084ZM8.31422 1.16066C10.6194 1.16434 12.487 2.97972 12.4905 5.22014C12.4905 6.95481 9.81012 10.9262 8.31422 12.9395C6.89582 11.0763 5.66327 9.08564 4.63377 6.99474C4.35324 6.43945 4.18486 5.83716 4.13796 5.22014C4.14058 2.97916 6.00877 1.16321 8.31422 1.16066ZM1.15491 17.3986C1.15724 16.318 1.26939 15.24 1.48963 14.1807C1.55342 14.9868 1.6615 15.7041 1.75822 16.3262C2.12789 18.704 2.47718 20.9455 4.28012 22.9953C5.03403 23.859 6.29659 25.3029 8.24868 25.5164C10.2008 25.7299 12.6452 24.6383 13.3513 24.2985L13.6222 24.1657C13.9975 23.936 14.4263 23.8027 14.8688 23.7777C15.6236 23.8443 16.3227 24.1914 16.8209 24.7467C17.839 25.8423 18.0974 27.6716 17.3738 28.6612C17.1419 28.9552 16.8217 29.1715 16.4573 29.2802C15.8336 29.483 15.3034 29.8939 14.9611 30.4401C14.4569 31.3275 14.3631 32.3812 14.7033 33.3397C6.846 31.8599 1.16714 25.1783 1.15491 17.3986ZM17.86 33.6365C17.2835 33.6365 16.7075 33.6076 16.1339 33.5501C16.085 33.4892 16.0396 33.4258 15.9979 33.3598C15.5947 32.6349 15.5904 31.7619 15.9865 31.0333C16.2018 30.7009 16.5354 30.4571 16.9234 30.3483C17.4923 30.1578 17.9887 29.8035 18.3462 29.3329C19.3838 27.9145 19.0902 25.4572 17.7079 23.9709C16.989 23.1718 15.9717 22.6847 14.8819 22.6179H14.8554C14.227 22.6363 13.6147 22.8136 13.0781 23.1324L12.8235 23.2576C11.5198 23.8822 9.66504 24.4998 8.38122 24.3594C6.89961 24.1982 5.87069 23.0197 5.18814 22.2393C3.60573 20.4415 3.29606 18.4522 2.93833 16.1501C2.55438 14.1807 2.53923 12.1603 2.89288 10.1855C3.21245 9.55655 3.57339 8.94831 3.97395 8.36442C3.99375 8.40293 4.0156 8.44229 4.03366 8.48052C4.07183 8.55414 4.11115 8.6272 4.15281 8.70082C4.21253 8.8104 4.27225 8.91999 4.33197 9.03042C4.37304 9.10461 4.4147 9.1788 4.45723 9.25356C4.52045 9.36371 4.58425 9.47386 4.64863 9.58402C4.69174 9.65707 4.73456 9.73041 4.77826 9.80347C4.84468 9.91362 4.9111 10.0232 4.9781 10.1328C5.02209 10.2047 5.06579 10.2761 5.11036 10.3474C5.18086 10.4632 5.25194 10.5717 5.32302 10.6836C5.36351 10.747 5.40342 10.8113 5.44216 10.8738C5.53043 11.0115 5.61812 11.1448 5.7058 11.2799C5.72911 11.3147 5.75241 11.3513 5.77514 11.3855C5.88438 11.55 5.99275 11.7106 6.09908 11.8672C6.13957 11.9252 6.1789 11.9833 6.21851 12.0413C6.28406 12.137 6.34961 12.2328 6.4134 12.3242L6.55498 12.5255C6.60625 12.5992 6.65811 12.6728 6.70821 12.743L6.85125 12.9429C6.89553 13.0052 6.93981 13.0661 6.98205 13.1244C7.02429 13.1831 7.07206 13.2493 7.11634 13.3091C7.16033 13.3688 7.19034 13.4104 7.22558 13.4586L7.34473 13.6186L7.44203 13.7497L7.537 13.8768L7.61449 13.9788L7.68732 14.075L7.73072 14.1331C7.78403 14.2033 7.82453 14.256 7.83589 14.2704C7.94833 14.4165 8.12516 14.5026 8.31306 14.5026C8.50095 14.5026 8.67778 14.4165 8.79023 14.2704C9.291 13.6251 13.6837 7.90059 13.6837 5.22014C13.6837 5.0508 13.6729 4.8826 13.6563 4.71553C13.6511 4.664 13.6426 4.61246 13.6359 4.56092C13.6205 4.44483 13.6021 4.32873 13.5765 4.21291C13.5651 4.15486 13.5526 4.10049 13.5395 4.04471C13.5118 3.92861 13.4798 3.8128 13.4434 3.6967C13.4285 3.65026 13.416 3.60325 13.4003 3.55766C13.3467 3.40221 13.2864 3.24845 13.2179 3.09893C13.2048 3.07033 13.1891 3.04089 13.1754 3.01483C13.1156 2.89421 13.0562 2.77471 12.9875 2.65804C12.9578 2.60594 12.9248 2.55554 12.8928 2.50428C12.8354 2.41282 12.7757 2.32277 12.7136 2.23414C12.6766 2.18261 12.6391 2.13107 12.6003 2.08038C12.5799 2.0549 12.5627 2.02772 12.5406 2.0028C13.7819 1.59645 15.0692 1.33707 16.3746 1.23032C15.4444 2.93696 15.1406 4.51562 15.4878 5.92777C15.7468 6.87354 16.2382 7.74428 16.9199 8.46494C17.4813 9.14058 17.885 9.62762 17.86 10.4228C17.8087 12.1045 15.8549 13.5045 15.1155 14.0334C14.1457 14.7122 13.0618 15.221 11.9119 15.5376C10.8283 15.8816 9.89343 16.1784 9.53599 17.2154C9.18263 18.5847 9.76292 20.0215 10.9806 20.7912C11.7104 21.1743 12.5703 21.2482 13.358 20.9953C14.2209 20.8005 15.1129 20.7589 15.9909 20.873C17.1244 21.029 18.1018 21.163 18.5652 21.7939C18.8402 22.1708 18.826 22.5604 18.7724 23.2751C18.65 24.2869 18.7558 25.3125 19.0817 26.2806C19.3538 27.0741 19.7649 28.2722 20.7524 28.4103C20.8165 28.4203 20.8815 28.4254 20.9461 28.4254C21.645 28.4254 22.0727 27.8256 22.5224 27.1947C22.7211 26.9158 22.9402 26.6148 23.2027 26.3126C24.4305 28.241 25.678 29.8502 25.7359 29.9267C25.8487 30.0728 26.0255 30.1586 26.2131 30.1586C26.401 30.1586 26.5778 30.0728 26.6906 29.9267C27.9849 28.2419 29.1647 26.476 30.2219 24.6414C30.9548 24.8478 31.6528 25.157 32.2937 25.5594C29.3086 30.5613 23.8089 33.639 17.86 33.6365ZM28.9957 17.855C29.8822 18.6235 30.3891 19.7234 30.3888 20.8781C30.3888 21.2952 30.2146 22.1221 29.3872 23.6925C28.4428 25.3941 27.3824 27.0319 26.2125 28.5953C25.6512 27.8349 24.6852 26.4854 23.8208 25.067C23.339 24.2894 22.9087 23.4832 22.5321 22.6527C22.2515 22.0974 22.0831 21.4951 22.0362 20.8781C22.0389 18.6371 23.9071 16.8212 26.2125 16.8186C26.3416 16.8186 26.4694 16.8243 26.5968 16.8356C27.4888 16.9141 28.3307 17.272 28.9957 17.855ZM34.5441 18.1892C34.4412 20.395 33.8694 22.5562 32.8641 24.5363C32.2104 24.1345 31.506 23.8157 30.7689 23.5875C31.2298 22.749 31.5068 21.8262 31.582 20.8781C31.577 18.888 30.413 17.0724 28.5768 16.1911L28.5392 16.175C28.4058 16.1124 28.2703 16.0538 28.132 16.0011C28.037 15.9652 27.9385 15.9371 27.8412 15.9071C27.7815 15.8896 27.7279 15.8678 27.67 15.8491C27.5161 15.8066 27.3597 15.7721 27.2024 15.7435H27.1945C27.0993 15.7262 27.0026 15.7168 26.9058 15.7047C25.3718 15.4982 23.8211 15.9504 22.6573 16.9435C21.4932 17.9369 20.8311 19.3728 20.843 20.8781C20.8893 21.6512 21.0901 22.4083 21.4338 23.1069C21.7682 23.8471 22.1455 24.5683 22.5638 25.2669C22.1909 25.6636 21.8495 26.087 21.5422 26.5335C21.3782 26.8068 21.171 27.0531 20.9284 27.2638C20.8089 27.2462 20.5878 26.9988 20.2123 25.9137C19.9385 25.0899 19.8526 24.2178 19.9612 23.3587C20.1162 22.587 19.9638 21.7871 19.5353 21.1205C18.7735 20.085 17.4437 19.9026 16.1497 19.7242C15.1438 19.5906 14.1213 19.6353 13.132 19.8559C12.3687 19.9977 12.0145 20.0507 11.6093 19.8052C10.869 19.3119 10.4991 18.4395 10.6666 17.5823C10.8259 17.1185 11.3034 16.9509 12.2775 16.64C13.5497 16.2852 14.7488 15.7188 15.8219 14.9659C16.6912 14.346 18.9842 12.7011 19.0532 10.457C19.0914 9.22921 18.4595 8.47174 17.8486 7.73947C17.284 7.15161 16.8733 6.44058 16.6507 5.66612C16.3338 4.37403 16.7265 2.85881 17.7915 1.16066H17.86C21.1445 1.16519 24.3554 2.1087 27.0926 3.87368C26.7765 4.21603 26.394 4.4941 25.9666 4.69203C25.5506 4.86703 25.0959 4.93612 24.6447 4.89308C24.0172 4.81776 23.3839 4.97605 22.8714 5.33623C21.5186 6.32618 20.9124 8.85061 22.1283 10.7464C22.9938 12.09 24.4722 12.4032 26.0867 12.7453C26.9557 12.9237 27.8538 12.92 28.7213 12.7342C29.4175 12.5728 30.1435 12.5748 30.8386 12.7408C31.6207 12.9599 32.3549 13.3173 33.0045 13.7944C33.6792 14.3384 34.1907 15.0486 34.4858 15.8508C34.5348 16.363 34.565 16.8767 34.565 17.3986C34.565 17.6579 34.5598 17.9204 34.5417 18.1892H34.5441Z" fill="#00A94F"/>
<path d="M8.31393 6.95971C9.63183 6.95971 10.7004 5.92134 10.7004 4.64001C10.7004 3.35897 9.63183 2.32031 8.31393 2.32031C6.99603 2.32031 5.92749 3.35897 5.92749 4.64001C5.92749 5.92134 6.99603 6.95971 8.31393 6.95971ZM8.31393 3.48016C8.97288 3.48016 9.50715 3.99949 9.50715 4.64001C9.50715 5.28054 8.97288 5.79986 8.31393 5.79986C7.65498 5.79986 7.12071 5.28054 7.12071 4.64001C7.12071 3.99949 7.65498 3.48016 8.31393 3.48016Z" fill="#00A94F"/>
<path d="M23.8255 20.2982C23.8255 21.5795 24.894 22.6179 26.2119 22.6179C27.5298 22.6179 28.5983 21.5795 28.5983 20.2982C28.5983 19.0172 27.5298 17.9785 26.2119 17.9785C24.894 17.9785 23.8255 19.0172 23.8255 20.2982ZM27.4051 20.2982C27.4051 20.9387 26.8709 21.4581 26.2119 21.4581C25.553 21.4581 25.0187 20.9387 25.0187 20.2982C25.0187 19.6577 25.553 19.1384 26.2119 19.1384C26.8709 19.1384 27.4051 19.6577 27.4051 20.2982Z" fill="#00A94F"/>
</svg>
