<svg xmlns="http://www.w3.org/2000/svg" width="58" height="47" fill="#b2bbcb"><path d="M54.93 39.52h-1.6v-25.3a.85.85 0 0 0-.847-.847.85.85 0 0 0-.847.847v25.3H5.403V9.607c0-2.27 1.847-4.118 4.117-4.118h6.793a17 17 0 0 0-1.978 2.513h-4.002c-1.736 0-3.15 1.413-3.15 3.15v23.513c0 1.736 1.413 3.15 3.15 3.15h36.36c1.737 0 3.15-1.412 3.15-3.15V11.152c0-1.737-1.413-3.15-3.15-3.15H42.69c-.58-.9-1.243-1.74-1.978-2.513h6.793c2.27 0 4.12 1.847 4.12 4.118v5.7a.85.85 0 0 0 .847.847.85.85 0 0 0 .847-.847v-5.7a5.82 5.82 0 0 0-5.812-5.812H38.84A16.77 16.77 0 0 0 28.513.252a16.77 16.77 0 0 0-10.326 3.543H9.52a5.82 5.82 0 0 0-5.812 5.812V39.52h-1.6A2.1 2.1 0 0 0 0 41.617a4.65 4.65 0 0 0 4.642 4.642h47.745a4.65 4.65 0 0 0 4.642-4.642 2.1 2.1 0 0 0-2.098-2.098zM43.677 17.1c0 8.363-6.802 15.166-15.164 15.166-3.662 0-7.197-1.323-9.954-3.726-.353-.308-.888-.27-1.195.082a.85.85 0 0 0 .082 1.195 16.84 16.84 0 0 0 11.067 4.144c9.295 0 16.858-7.564 16.858-16.86a16.76 16.76 0 0 0-1.721-7.415h3.044a1.46 1.46 0 0 1 1.455 1.456v23.512a1.46 1.46 0 0 1-1.455 1.455h-36.36c-.802 0-1.455-.652-1.455-1.455v-23.51a1.46 1.46 0 0 1 1.455-1.456h3.044a16.76 16.76 0 0 0-1.72 7.415 16.71 16.71 0 0 0 3.377 10.123c.28.374.812.45 1.186.168a.85.85 0 0 0 .168-1.186c-1.987-2.64-3.037-5.8-3.037-9.104 0-8.362 6.802-15.165 15.162-15.165S43.677 8.75 43.677 17.1zm-11.33 24.1c-.3.496-.83.83-1.446.83h-4.775c-.615 0-1.154-.333-1.446-.83h7.666zm20.04 3.352H4.642a2.95 2.95 0 0 1-2.948-2.948c0-.223.18-.404.404-.404h20.767c.377 1.45 1.696 2.523 3.262 2.523H30.9c1.566 0 2.886-1.074 3.262-2.523H54.93c.223 0 .404.18.404.404a2.95 2.95 0 0 1-2.948 2.948zm-33.13-22.357l4.162 4.163c.16.16.374.248.6.248a.85.85 0 0 0 .599-.248l3.896-3.896 3.896 3.896c.165.165.382.248.6.248a.85.85 0 0 0 .6-.248l4.162-4.163a.85.85 0 0 0 0-1.197l-3.9-3.908 3.896-3.897a.85.85 0 0 0 0-1.198l-4.162-4.163a.85.85 0 0 0-1.198 0l-3.896 3.897-3.896-3.897a.85.85 0 0 0-1.198 0l-4.162 4.163a.85.85 0 0 0 0 1.198l3.896 3.897-3.896 3.896a.85.85 0 0 0 0 1.198zm5.693-4.496a.85.85 0 0 0 0-1.198l-3.896-3.896L24.02 9.65l3.896 3.897a.85.85 0 0 0 1.198 0L33 9.65l2.964 2.965-3.896 3.896a.85.85 0 0 0 0 1.198l3.896 3.897L33 24.57l-3.896-3.897c-.165-.165-.382-.248-.6-.248s-.434.083-.6.248L24.02 24.57l-2.964-2.965 3.896-3.897z"/></svg>