<svg width="38" height="37" viewBox="0 0 38 37" fill="none" xmlns="http://www.w3.org/2000/svg">
<path d="M24.8613 0C17.7794 0 12.0178 5.60998 12.0178 12.5055C12.0178 14.0385 12.2975 15.5281 12.8499 16.9428L0.56933 28.901C0.393803 29.072 0.295166 29.3038 0.295166 29.5454V36.0887C0.295166 36.592 0.714205 37 1.23114 37H6.76904C7.01701 37 7.25481 36.9042 7.43033 36.7336L9.29656 34.9193C9.47246 34.7483 9.57125 34.5162 9.57125 34.2743V32.043H11.8599C12.3769 32.043 12.7959 31.635 12.7959 31.1317V30.2385H13.7133C14.2302 30.2385 14.6493 29.8305 14.6493 29.3271V27.3661H16.6633C16.9115 27.3661 17.1495 27.2701 17.3251 27.0992L20.3028 24.1998C21.756 24.7381 23.2861 25.0108 24.8611 25.0108C31.943 25.0108 37.7046 19.4009 37.7046 12.5053C37.7047 5.60998 31.9432 0 24.8613 0ZM24.8613 23.1882C23.3293 23.1882 21.8475 22.8869 20.4572 22.2926C20.0977 22.1389 19.6928 22.2235 19.4277 22.475C19.4248 22.4777 19.422 22.4799 19.4192 22.4827L16.2757 25.5434H13.7135C13.1965 25.5434 12.7775 25.9515 12.7775 26.4548V28.4158H11.8601C11.3432 28.4158 10.9241 28.8238 10.9241 29.3271V30.2203H8.63535C8.11849 30.2203 7.69938 30.6283 7.69938 31.1317V33.8963L6.38177 35.1772H2.16726V33.8894L13.6074 22.7504C13.9364 22.43 13.9364 21.9107 13.6074 21.5904C13.2784 21.2702 12.7452 21.27 12.416 21.5904L2.16726 31.5695V29.923L14.6134 17.8035C14.6163 17.8008 14.6184 17.7982 14.621 17.7956C14.8794 17.5376 14.9666 17.1434 14.8088 16.7931C14.199 15.4394 13.89 13.9968 13.89 12.5056C13.89 6.61505 18.8118 1.82276 24.8615 1.82276C30.9112 1.82276 35.8329 6.61498 35.8329 12.5056C35.8327 18.3959 30.9108 23.1882 24.8613 23.1882Z" fill="#0039FF"/>
<path d="M28.7701 5.28619C26.8369 5.28619 25.2642 6.8175 25.2642 8.69981C25.2642 10.5821 26.8369 12.1134 28.7701 12.1134C30.7032 12.1134 32.2759 10.5821 32.2759 8.69981C32.2759 6.8175 30.7033 5.28619 28.7701 5.28619ZM28.7701 10.2907C27.8691 10.2907 27.1361 9.57704 27.1361 8.69981C27.1361 7.82257 27.8691 7.10888 28.7701 7.10888C29.671 7.10888 30.404 7.82257 30.404 8.69981C30.404 9.57704 29.671 10.2907 28.7701 10.2907Z" fill="#0039FF"/>
</svg>
