<svg xmlns="http://www.w3.org/2000/svg" xmlns:xlink="http://www.w3.org/1999/xlink" width="45" height="46" fill="none"><g fill="#1a1a1a"><path d="M22.5 10.503a5.12 5.12 0 0 0 5.114-5.114A5.12 5.12 0 0 0 22.5.274a5.12 5.12 0 0 0-5.114 5.114 5.12 5.12 0 0 0 5.114 5.114zm0-8.183c1.692 0 3.068 1.376 3.068 3.07S24.192 8.46 22.5 8.46s-3.068-1.376-3.068-3.07 1.376-3.07 3.068-3.07zm-7.013 18.412h14.027c1.208 0 2.2-1.06 2.2-2.365v-.655c0-1.7-.846-3.27-2.2-4.075-1.633-.963-4.172-2.1-6.995-2.1s-5.362 1.148-6.995 2.1c-1.363.804-2.2 2.365-2.2 4.075v.655c0 1.305.983 2.365 2.2 2.365zm-.146-3.02c0-.974.472-1.88 1.203-2.313 1.413-.833 3.595-1.827 5.957-1.827s4.543.994 5.957 1.827c.73.43 1.203 1.34 1.203 2.313v.655c0 .213-.12.32-.146.32H15.487c-.025 0-.146-.107-.146-.32v-.655z"/><use xlink:href="#B"/><path d="M16.2 38.183c-1.633-.963-4.172-2.11-6.995-2.11s-5.362 1.148-6.995 2.11C.846 38.987 0 40.548 0 42.258v.655c0 1.305.983 2.365 2.19 2.365h14.027c1.208 0 2.19-1.06 2.19-2.365v-.655c0-1.71-.846-3.27-2.21-4.074zm.164 4.73c0 .213-.12.32-.146.32H2.19c-.025 0-.146-.107-.146-.32v-.655c0-.974.472-1.88 1.203-2.312 1.413-.833 3.595-1.827 5.957-1.827s4.543.994 5.957 1.827c.73.43 1.203 1.34 1.203 2.312v.655z"/><use xlink:href="#B" x="26.591"/><path d="M42.8 38.183c-1.633-.963-4.172-2.1-6.995-2.1s-5.362 1.148-6.995 2.1c-1.363.804-2.2 2.365-2.2 4.075v.655c0 1.304.983 2.365 2.2 2.365H42.8c1.208 0 2.2-1.06 2.2-2.365v-.655c0-1.7-.846-3.27-2.2-4.075zm.164 4.73c0 .213-.12.32-.146.32H28.782c-.025 0-.146-.107-.146-.32v-.655c0-.974.472-1.88 1.203-2.312 1.413-.833 3.595-1.827 5.957-1.827s4.543.994 5.957 1.827c.73.43 1.203 1.34 1.203 2.313v.655zm-15.34-7.86c.3 0 .597-.132.8-.384.352-.442.28-1.085-.16-1.438l-4.73-3.785V23.8c0-.565-.457-1.023-1.023-1.023a1.02 1.02 0 0 0-1.023 1.023v5.646l-4.73 3.784c-.44.354-.512.997-.16 1.438.203.252.5.384.8.384a1.02 1.02 0 0 0 .638-.224l4.474-3.58 4.474 3.58a1.02 1.02 0 0 0 .638.224z"/></g><defs ><path id="B" d="M9.204 35.05a5.12 5.12 0 0 0 5.114-5.114 5.12 5.12 0 0 0-5.114-5.114 5.12 5.12 0 0 0-5.114 5.114 5.12 5.12 0 0 0 5.114 5.114zm0-8.183c1.692 0 3.068 1.377 3.068 3.07s-1.376 3.07-3.068 3.07-3.068-1.376-3.068-3.07 1.376-3.07 3.068-3.07z"/></defs></svg>