<svg xmlns="http://www.w3.org/2000/svg" width="48" height="45" fill="#1a1a1a"><path d="M15 14.277H9a1 1 0 0 0-1 1v8a1 1 0 0 0 1 1h6a1 1 0 0 0 1-1v-8a1 1 0 0 0-1-1zm-1 8h-4v-6h4v6zm13-14h-6a1 1 0 0 0-1 1v14.002a1 1 0 0 0 1 1h6a1 1 0 0 0 1-1V9.276a1 1 0 0 0-1-1zm-1 14.002h-4V10.276h4v12.002zM39 4.274h-6a1 1 0 0 0-1 1v18.003a1 1 0 0 0 1 1h6a1 1 0 0 0 1-1V5.275a1 1 0 0 0-1-1zm-1 18.003h-4V6.275h4v16.002zM44 .274H4c-2.206 0-4 1.794-4 4V32.28c0 2.206 1.794 4 4 4h14.003c-.043 1.6-.35 4.154-1.5 5.354a1.96 1.96 0 0 1-1.513.647 1 1 0 1 0 0 2h18a1 1 0 1 0 0-2 1.96 1.96 0 0 1-1.513-.647c-1.14-1.2-1.447-3.755-1.5-5.354H44c2.206 0 4-1.794 4-4V4.275c0-2.206-1.794-4-4-4zM18.537 42.28c1.208-1.852 1.44-4.518 1.47-6H28c.03 1.483.264 4.15 1.47 6H18.537zM46 32.28c0 1.103-.897 2-2 2H4c-1.102 0-2-.898-2-2v-4h44v4zm0-6H2V4.275c0-1.103.897-2 2-2h40c1.102 0 2 .898 2 2v22.003zm-22 7a2 2 0 0 0 0-4 2 2 0 0 0 0 4z"/></svg>