<svg width="36" height="38" viewBox="0 0 36 38" fill="none" xmlns="http://www.w3.org/2000/svg">
<path d="M27.9915 26.9906L24.4639 25.815L23.1975 23.2821C24.3384 22.1209 25.1305 20.5844 25.3976 18.9818L25.5555 18.0352H26.9062C28.134 18.0352 29.1328 17.0363 29.1328 15.8086V11.1328C29.1328 4.99418 24.1386 0 18 0C11.8456 0 6.86719 4.97986 6.86719 11.1328V15.8086C6.86719 16.7761 7.48773 17.6011 8.35156 17.9075V18.7773C8.35156 20.0051 9.3504 21.0039 10.5781 21.0039H11.2299C11.5517 21.7028 11.9681 22.3502 12.4749 22.9317C12.58 23.0525 12.6896 23.1696 12.8019 23.2835L11.5361 25.815L8.00845 26.9907C3.90675 28.3584 0.929688 32.6764 0.929688 37.2578C0.929688 37.6677 1.26196 38 1.67188 38H34.3281C34.738 38 35.0703 37.6677 35.0703 37.2578C35.0703 32.6764 32.0933 28.3584 27.9915 26.9906ZM27.6484 15.8086C27.6484 16.2178 27.3155 16.5508 26.9062 16.5508H25.7735C25.9622 15.0894 26.0879 13.5343 26.1385 12.0027C26.1399 11.9595 26.1411 11.9175 26.1425 11.875H27.6484V15.8086ZM9.09375 16.5508C8.68451 16.5508 8.35156 16.2178 8.35156 15.8086V11.875H9.85806C9.8605 11.9524 9.8631 12.0302 9.866 12.1085C9.86607 12.1112 9.86622 12.1138 9.86629 12.1164C9.86629 12.1167 9.86629 12.1169 9.86629 12.1171C9.91825 13.6068 10.0423 15.1216 10.2267 16.5507H9.09375V16.5508ZM10.5781 19.5195C10.1689 19.5195 9.83594 19.1866 9.83594 18.7773V18.0352H10.4444L10.6023 18.9821C10.6325 19.1621 10.6695 19.3414 10.7123 19.5195H10.5781ZM9.8372 10.3906H8.37977C8.75568 5.41641 12.9069 1.48438 18 1.48438C23.0705 1.48438 27.2399 5.41589 27.6202 10.3906H26.1629C26.1094 6.29175 22.7716 2.96875 18.6643 2.96875H17.3358C13.2286 2.96875 9.89056 6.29175 9.8372 10.3906ZM17.3357 4.45312H18.6643C21.9899 4.45312 24.6816 7.17332 24.6797 10.4953C24.6797 10.7288 24.6778 10.9322 24.6739 11.1172C24.6739 11.1196 24.6738 11.1221 24.6738 11.1245L23.7455 10.9919C21.2235 10.6318 18.8423 9.44114 17.0404 7.63926C16.9012 7.5001 16.7125 7.42188 16.5156 7.42188C14.5224 7.42188 12.6144 8.33002 11.3531 9.86427C11.6639 6.84215 14.2188 4.45312 17.3357 4.45312ZM12.251 19.5195C11.8795 18.2836 11.4544 14.6468 11.3604 12.3164L12.3593 10.9844C13.2767 9.76162 14.704 9.00184 16.2223 8.91464C18.2201 10.8158 20.8045 12.0713 23.5356 12.4613L24.6283 12.6174C24.5552 14.1675 24.406 15.7229 24.1921 17.1535C24.1921 17.154 24.192 17.1545 24.1919 17.155C24.1239 17.6149 24.0704 17.9109 23.9335 18.7376C23.5404 21.0952 21.7813 23.2271 19.4591 23.8077C18.5034 24.0464 17.4965 24.0463 16.5413 23.8077C15.0913 23.4453 13.7617 22.442 12.9037 21.0039H14.4167C14.7231 21.8677 15.548 22.4883 16.5156 22.4883H18C19.2302 22.4883 20.2266 21.492 20.2266 20.2617C20.2266 19.034 19.2277 18.0352 18 18.0352H16.5156C15.5265 18.0352 14.7137 18.674 14.4155 19.5195H12.251ZM16.4532 25.3098C16.9623 25.417 17.4813 25.4719 18 25.4719C18.4061 25.4719 18.8122 25.4379 19.2137 25.372L17.9023 26.7589L16.4532 25.3098ZM16.8819 27.8379L14.5278 30.3273C13.8797 29.0868 13.3229 27.7958 12.8661 26.4741L13.7502 24.7061L16.8819 27.8379ZM22.124 24.4546L23.1337 26.4741C22.6762 27.798 22.1192 29.0894 21.4718 30.3285L18.9522 27.8089L22.124 24.4546ZM15.7734 20.2617C15.7734 19.852 16.1058 19.5195 16.5156 19.5195H18C18.4092 19.5195 18.7422 19.8525 18.7422 20.2617C18.7422 20.6716 18.4098 21.0039 18 21.0039H16.5156C16.1064 21.0039 15.7734 20.671 15.7734 20.2617ZM2.44375 36.5156C2.73788 32.8389 5.1848 29.497 8.47788 28.3988L11.602 27.3577C12.1744 28.9404 12.8835 30.4787 13.7145 31.94C13.7159 31.9425 13.7173 31.945 13.7187 31.9475C13.7187 31.9475 13.7188 31.9475 13.7188 31.9476C14.3259 33.0155 15.0094 34.0591 15.7503 35.0499L16.6633 36.5156H2.44375ZM18 35.854L16.9934 34.2381C16.9822 34.22 16.9701 34.2024 16.9574 34.1853C16.3564 33.3836 15.7957 32.5451 15.2851 31.687L17.9319 28.8879L20.7209 31.6769C20.2069 32.5413 19.6443 33.3832 19.0428 34.1852C19.0064 34.2336 19.058 34.1572 18 35.854ZM19.3367 36.5156L20.2496 35.05C20.9938 34.0554 21.6821 33.0034 22.2954 31.923C22.2991 31.9164 22.3026 31.9098 22.3063 31.9032C22.3068 31.9024 22.3072 31.9017 22.3077 31.9009C23.1281 30.4536 23.8298 28.9286 24.398 27.3577L27.522 28.3988C30.8152 29.497 33.2621 32.8389 33.5563 36.5156H19.3367Z" fill="#EF425A"/>
</svg>
