<svg width="41" height="40" viewBox="0 0 41 40" fill="none" xmlns="http://www.w3.org/2000/svg">
<g clip-path="url(#clip0)">
<path d="M41 16.7742H39.514L37.2993 17.9111C37.05 17.7769 36.7907 17.6632 36.5111 17.5948L33.7252 16.9147V16.6057C34.9577 15.7664 35.7097 14.38 35.7097 12.9032V11.7755C35.7097 9.26915 33.6967 7.17175 31.2227 7.09866C31.0971 7.09551 30.9734 7.09992 30.8491 7.10591L31.5714 5.45615L28.0696 2.0407L26.0054 3.3515C25.2211 2.92055 24.3915 2.58506 23.5301 2.34974L23.0202 0H17.9804L17.4706 2.35037C16.6091 2.58569 15.7789 2.92118 14.9953 3.35213L12.931 2.04133L9.43211 5.45489L10.1422 7.10591C10.115 7.10465 10.0892 7.09992 10.0621 7.09929C8.79568 7.06338 7.6029 7.51418 6.69686 8.37229C5.78952 9.22978 5.29032 10.3805 5.29032 11.6129V12.9032C5.29032 14.38 6.0417 15.7658 7.27419 16.605V16.9147L5.45694 17.3579L2.16308 15.4839H0V28.8524L6.5057 30.9677H7.77274L7.93096 30.4272L9.92517 31.5949C9.95778 32.6528 10.8273 33.504 11.9107 33.5411C11.9488 34.5936 12.8157 35.4395 13.8945 35.4766C13.9326 36.5291 14.7996 37.3749 15.8784 37.4121C15.9178 38.4892 16.8219 39.3548 17.9349 39.3548C18.3482 39.3548 18.7535 39.2291 19.0941 39.0052L19.6798 39.5098C20.047 39.8252 20.5197 40 21.0105 40H21.1329C22.2333 40 23.1287 39.1321 23.1426 38.062C24.2311 38.0485 25.1126 37.1884 25.1264 36.1265C26.2156 36.113 27.0977 35.2517 27.1103 34.1891C28.2095 34.1639 29.0968 33.2879 29.0968 32.2095C29.0968 32.1447 29.0935 32.0807 29.0868 32.0161L41 26.2053V16.7742ZM34.3871 11.7755V12.9032C34.3871 14.0483 33.7529 15.1181 32.7319 15.6949L32.4013 15.8814L32.4039 17.9231L35.7077 18.7283L28.4355 22.4625V20.7245C28.4355 19.8573 28.0764 19.0631 27.4884 18.4762L29.7581 17.9231V15.8799L29.4281 15.6937C28.4077 15.1181 27.7742 14.0483 27.7742 12.9032V11.6129C27.7742 10.7331 28.1307 9.91022 28.7787 9.2975C29.4261 8.68511 30.285 8.35496 31.183 8.38899C32.9496 8.44065 34.3871 9.95999 34.3871 11.7755ZM21.4971 21.9553L18.5035 21.0219C17.1393 20.5954 15.6627 20.5318 14.2662 20.8335L13.8871 20.9154V20.7245C13.8871 19.8349 14.5054 19.0625 15.3895 18.8464L19.1774 17.9231V15.8799L18.8474 15.6937C17.8271 15.1181 17.1935 14.0483 17.1935 12.9032V11.6129C17.1935 10.7331 17.55 9.91022 18.1981 9.2975C18.8455 8.68511 19.7099 8.35496 20.6024 8.38899C22.3689 8.44065 23.8065 9.95999 23.8065 11.7755V12.9032C23.8065 14.0483 23.1723 15.1181 22.1513 15.6949L21.8206 15.8814L21.8232 17.9231L25.6105 18.8464C26.4946 19.0625 27.1129 19.8349 27.1129 20.7245V23.142L26.9495 23.2258H26.5443L22.4787 22.0924C22.1584 22.0038 21.8284 21.9676 21.4971 21.9553ZM14.0353 9.656C15.2772 7.30847 17.7767 5.80645 20.5 5.80645C23.1975 5.80645 25.6864 7.28831 26.9376 9.60402C26.6227 10.2199 26.4516 10.9019 26.4516 11.6129V12.9032C26.4516 14.38 27.203 15.7658 28.4355 16.605V16.9147L25.7903 17.5608L23.1445 16.9147V16.6057C24.377 15.7664 25.129 14.38 25.129 12.9032V11.7755C25.129 9.26915 23.1161 7.17175 20.6421 7.09866C19.3763 7.06244 18.1829 7.51355 17.2769 8.37166C16.3702 9.22978 15.871 10.3805 15.871 11.6129V12.9032C15.871 14.38 16.6223 15.7658 17.8548 16.605V16.9147L15.2097 17.5608L12.5639 16.9147V16.6057C13.7964 15.7664 14.5484 14.38 14.5484 12.9032V11.7755C14.5484 11.0163 14.3611 10.2955 14.0353 9.656ZM10.994 5.75416L13.1067 3.69298L14.9662 4.87368L15.322 4.66072C16.2136 4.12771 17.1771 3.7374 18.1855 3.50208L18.5923 3.40694L19.0525 1.29032H21.9482L22.407 3.40631L22.8139 3.50113C23.8223 3.73677 24.7858 4.12708 25.6773 4.66009L26.0331 4.87305L27.8927 3.69235L30.0028 5.75164L29.2527 7.46503C28.7422 7.67925 28.2689 7.98072 27.8569 8.3704C27.8297 8.39623 27.8065 8.42395 27.78 8.45042C26.222 6.03421 23.4677 4.51613 20.5 4.51613C17.511 4.51613 14.7489 6.04839 13.1948 8.48916C12.7789 8.06452 12.2842 7.72051 11.736 7.48015L10.994 5.75416ZM8.59677 17.9231V15.8799L8.26678 15.6937C7.24642 15.1181 6.6129 14.0483 6.6129 12.9032V11.6129C6.6129 10.7331 6.96938 9.91022 7.61743 9.2975C8.26484 8.68511 9.12568 8.35496 10.0217 8.38899C11.7883 8.44065 13.2258 9.95999 13.2258 11.7755V12.9032C13.2258 14.0483 12.5916 15.1181 11.5706 15.6949L11.24 15.8814L11.2426 17.9231L13.5116 18.4762C12.9236 19.0631 12.5645 19.8573 12.5645 20.7245V21.2024L10.5019 21.6498L10.5555 21.467L10.5806 20.2747L7.09305 18.2898L8.59677 17.9231ZM1.32258 16.7742H1.80466L6.56059 19.4805L4.16083 28.8451L1.32258 27.9218V16.7742ZM6.7201 29.6774L5.41851 29.2543L7.74982 20.1575L9.25807 21.0156V21.1999L6.77564 29.6774H6.7201ZM11.2419 31.5348C11.2419 31.3445 11.3207 31.158 11.4589 31.0232L12.6213 29.8891C12.7595 29.7543 12.9507 29.6774 13.1457 29.6774C13.5545 29.6774 13.8871 30.0019 13.8871 30.4007C13.8871 30.591 13.8083 30.7775 13.6701 30.9123L12.5077 32.0464C12.3695 32.1812 12.1783 32.2581 11.9833 32.2581C11.5745 32.2581 11.2419 31.9336 11.2419 31.5348ZM13.2258 33.4703C13.2258 33.28 13.3046 33.0935 13.4428 32.9587L14.6052 31.8246C14.7434 31.6898 14.9346 31.6129 15.1296 31.6129C15.5384 31.6129 15.871 31.9374 15.871 32.3362C15.871 32.5265 15.7922 32.713 15.654 32.8478L14.4916 33.9819C14.3534 34.1167 14.1622 34.1935 13.9672 34.1935C13.5584 34.1935 13.2258 33.8691 13.2258 33.4703ZM15.2097 35.4057C15.2097 35.2155 15.2885 35.029 15.4267 34.8942L16.5891 33.7601C16.7273 33.6253 16.9184 33.5484 17.1135 33.5484C17.5223 33.5484 17.8548 33.8729 17.8548 34.2717C17.8548 34.4619 17.7761 34.6484 17.6379 34.7833L16.4754 35.9173C16.3372 36.0522 16.1461 36.129 15.951 36.129C15.5423 36.129 15.2097 35.8046 15.2097 35.4057ZM17.9349 38.0645C17.5261 38.0645 17.1935 37.74 17.1935 37.3412C17.1935 37.151 17.2723 36.9645 17.4105 36.8296L18.573 35.6956C18.7112 35.5607 18.9023 35.4839 19.0973 35.4839C19.5061 35.4839 19.8387 35.8083 19.8387 36.2072C19.8387 36.3974 19.7599 36.5839 19.6217 36.7188L18.4593 37.8528C18.3211 37.9877 18.1299 38.0645 17.9349 38.0645ZM21.1329 38.7097H21.0105C20.8419 38.7097 20.6805 38.6498 20.5549 38.5411L20.0602 38.1155L20.5568 37.631C20.7341 37.4581 20.8717 37.2524 20.9734 37.0316L21.5746 37.5198C21.7318 37.6477 21.8226 37.8361 21.8226 38.0368C21.8226 38.4079 21.5132 38.7097 21.1329 38.7097ZM27.0632 32.9032H26.9489C26.7829 32.9032 26.6208 32.8459 26.4939 32.7419L22.9078 29.8264L22.0606 30.8181L25.543 33.6489C25.6996 33.7768 25.7903 33.9652 25.7903 34.1658C25.7903 34.5369 25.481 34.8387 25.1006 34.8387H24.9563C24.7958 34.8387 24.6389 34.7833 24.5152 34.6825L20.9233 31.7625L20.076 32.7542L23.5585 35.5853C23.7157 35.7123 23.8065 35.9006 23.8065 36.1013C23.8065 36.4724 23.4971 36.7742 23.1167 36.7742C22.863 36.7742 22.6156 36.6863 22.4209 36.5285L20.945 35.3283C20.6198 34.6799 19.9517 34.2279 19.1693 34.2008C19.1312 33.1483 18.2643 32.3025 17.1855 32.2653C17.1474 31.2128 16.2804 30.367 15.2016 30.3298C15.1629 29.2528 14.2587 28.3871 13.1457 28.3871C12.6023 28.3871 12.0705 28.6019 11.6862 28.9768L10.5238 30.1109C10.4544 30.1786 10.3969 30.2555 10.3385 30.3317L8.30714 29.1425L10.0879 23.062L14.5523 22.0936C15.7234 21.8381 16.9582 21.8936 18.1002 22.2502L19.0744 22.5542L15.7718 24.1652C15.0172 24.5341 14.5484 25.2747 14.5484 26.0982V26.2257C14.5484 27.4175 15.5423 28.3871 16.7638 28.3871C17.1651 28.3871 17.56 28.2806 17.9033 28.0787L20.3657 26.6381C20.8604 26.3489 21.5242 26.4122 21.9514 26.7871L27.5388 31.6929C27.6883 31.8252 27.7742 32.013 27.7742 32.2095C27.7742 32.5923 27.4555 32.9032 27.0632 32.9032ZM39.6774 25.4076L28.5366 30.8427C28.5004 30.8052 28.4626 30.7696 28.4229 30.7349L22.8365 25.8291C22.347 25.3982 21.7141 25.1613 21.0547 25.1613C20.5727 25.1613 20.0993 25.2892 19.6847 25.5318L17.2213 26.973C17.0831 27.0542 16.9252 27.0968 16.7638 27.0968C16.271 27.0968 15.871 26.7065 15.871 26.2257V26.0982C15.871 25.7658 16.0602 25.4678 16.3644 25.3194L20.0531 23.52C20.6844 23.2116 21.4338 23.1426 22.1142 23.3335L26.2698 24.4916L27.2763 24.5161L39.6774 18.1483V25.4076Z" fill="#5C1A8D"/>
</g>
<defs>
<clipPath id="clip0">
<rect width="41" height="40" fill="white"/>
</clipPath>
</defs>
</svg>
