<svg xmlns="http://www.w3.org/2000/svg" width="36" height="45" fill="#1a1a1a"><path d="M32.042 14.938l1.845-1.85a2.59 2.59 0 0 0 0-3.646 2.57 2.57 0 0 0-3.636 0l-1.97 1.975a17.98 17.98 0 0 0-6.852-2.905V5.947h1.714a.86.86 0 0 0 .857-.86V2.853A2.58 2.58 0 0 0 21.429.275h-6.86A2.58 2.58 0 0 0 12 2.853v2.235a.86.86 0 0 0 .857.86h1.714V8.5a17.97 17.97 0 0 0-6.852 2.905L5.75 9.44a2.57 2.57 0 0 0-3.636 0 2.59 2.59 0 0 0 0 3.646l1.845 1.85A18.06 18.06 0 0 0 0 26.232c0 9.952 8.075 18.05 18 18.05s18-8.097 18-18.05a18.06 18.06 0 0 0-3.958-11.294zm-.58-4.28c.334-.335.878-.335 1.212 0a.86.86 0 0 1 0 1.215l-1.77 1.776a18.25 18.25 0 0 0-1.253-1.174l1.812-1.817zm-17.75-7.803a.86.86 0 0 1 .857-.859h6.857a.86.86 0 0 1 .857.859V4.23h-8.57V2.853zm6 3.094v2.316a18.39 18.39 0 0 0-3.429 0V5.947h3.43zm-16.4 4.7c.334-.335.878-.335 1.212 0l1.812 1.817a18.26 18.26 0 0 0-1.253 1.174l-1.77-1.776a.86.86 0 0 1 0-1.215zM18 42.562c-8.98 0-16.286-7.326-16.286-16.33a16.33 16.33 0 0 1 4.05-10.777 16.48 16.48 0 0 1 2.385-2.228 16.25 16.25 0 0 1 7.407-3.143A16.51 16.51 0 0 1 18 9.901a16.5 16.5 0 0 1 2.444.182 16.25 16.25 0 0 1 7.408 3.143 16.54 16.54 0 0 1 2.385 2.228c2.6 2.978 4.05 6.805 4.05 10.777 0 9.005-7.306 16.33-16.286 16.33zm0-13.616c1.47 0 2.667-1.154 2.667-2.572 0-1.117-.743-2.07-1.778-2.424V17.8c0-.474-.398-.857-.9-.857s-.9.384-.9.857v6.148c-1.035.354-1.778 1.307-1.778 2.424 0 1.418 1.196 2.572 2.667 2.572zm0-3.43c.5 0 .9.384.9.857s-.4.857-.9.857-.9-.384-.9-.857.4-.857.9-.857zm8.9-8.566l-.042-.046c-.016-.017-.034-.03-.05-.046-1.527-1.5-3.415-2.612-5.462-3.213a.87.87 0 0 0-1.077.582.86.86 0 0 0 .586 1.069 11.32 11.32 0 0 1 4.139 2.242l-.585.58a.86.86 0 0 0 0 1.218c.17.168.4.252.613.252s.444-.084.613-.252l.586-.582c1.568 1.8 2.5 4.04 2.68 6.417h-.834c-.48 0-.867.386-.867.86s.388.86.867.86h.834c-.182 2.377-1.113 4.606-2.68 6.417l-.586-.582a.87.87 0 0 0-1.226 0c-.34.336-.34.88 0 1.218l.586.582c-1.823 1.558-4.068 2.483-6.46 2.663v-.828c0-.476-.388-.86-.867-.86s-.867.385-.867.86v.828a11.2 11.2 0 0 1-6.46-2.663l.586-.582a.86.86 0 0 0 0-1.218.87.87 0 0 0-1.226 0l-.586.582a11.05 11.05 0 0 1-2.681-6.417h.833c.48 0 .867-.385.867-.86s-.388-.86-.867-.86h-.833c.18-2.376 1.113-4.606 2.68-6.417l.586.582c.17.168.4.252.613.252s.444-.084.613-.252a.86.86 0 0 0 0-1.218l-.585-.58c1.207-1.028 2.622-1.797 4.14-2.242a.86.86 0 0 0 .586-1.069c-.135-.456-.617-.716-1.076-.582a13.06 13.06 0 0 0-5.461 3.211l-.052.047-.042.046a12.78 12.78 0 0 0-3.768 9.084 12.78 12.78 0 0 0 3.768 9.083l.042.046c.015.015.03.028.046.042 2.453 2.414 5.697 3.743 9.144 3.743a12.96 12.96 0 0 0 9.143-3.742l.047-.042c.015-.014.028-.03.042-.045a12.78 12.78 0 0 0 3.768-9.084 12.78 12.78 0 0 0-3.768-9.083zM18 14.944a.67.67 0 0 0 .667-.667.67.67 0 0 0-.667-.667.67.67 0 0 0-.667.667.67.67 0 0 0 .667.667z"/></svg>