<svg xmlns="http://www.w3.org/2000/svg" width="53" height="47" fill="none"><path d="M5.23 23.35l-.002-.2c-.004-.37-.303-.672-.673-.672h-.957L7.67 16.64l4.072 5.848h-.954c-.376 0-.678.3-.673.687l.002.193c.055 4.37 1.784 8.472 4.868 11.547s7.177 4.772 11.516 4.772c6.243 0 11.95-3.6 14.7-9.223.166-.34.012-.742-.327-.896l-.344-.157a.69.69 0 0 0-.9.332c-2.47 5.003-7.562 8.205-13.13 8.205-7.687 0-14.072-6.077-14.622-13.72h1.886a.68.68 0 0 0 .551-1.069L8.22 14.405a.67.67 0 0 0-1.103 0l-6.095 8.753a.68.68 0 0 0 .551 1.068h1.953c.262 5.83 2.65 11.272 6.78 15.404l.07-.07-.07.07A22.75 22.75 0 0 0 26.5 46.358c7.47 0 14.436-3.642 18.753-9.772a.67.67 0 0 0-.175-.94l-.313-.213c-.31-.21-.726-.126-.94.177-3.996 5.652-10.43 9.01-17.325 9.01-11.624 0-21.166-9.54-21.27-21.27zM26.5 1.9c11.624 0 21.167 9.54 21.27 21.27l.002.195c.004.38.315.682.692.672.213-.006.294-.006.658-.005h.28L45.33 29.87l-4.072-5.848h.954c.376 0 .678-.3.673-.688l-.002-.193c-.055-4.37-1.784-8.47-4.868-11.546S30.84 6.823 26.5 6.823c-6.18 0-11.833 3.528-14.614 9.05-.217.432-.02.95.414 1.146s.942-.001 1.157-.423c2.5-4.906 7.54-8.036 13.044-8.036 7.687 0 14.072 6.077 14.622 13.72h-1.886a.68.68 0 0 0-.551 1.069l6.095 8.754a.67.67 0 0 0 1.103 0l6.095-8.754a.68.68 0 0 0-.551-1.069h-1.953a23.14 23.14 0 0 0-6.78-15.404C38.357 2.54 32.606.15 26.5.15c-7.405 0-14.317 3.58-18.643 9.617-.28.39-.173.934.22 1.202a.88.88 0 0 0 1.207-.224C13.29 5.186 19.668 1.9 26.5 1.9z" fill="#b2bbcb" stroke="#b2bbcb" stroke-width=".2"/></svg>