<svg xmlns="http://www.w3.org/2000/svg" width="32" height="32" fill="#312e17"><path d="M27.314 4.686C25.372 2.744 23.02 1.364 20.45.626 19.022.214 17.528 0 16 0a16.29 16.29 0 0 0-1.655.085c-3.65.372-7.03 1.973-9.66 4.602C1.664 7.708 0 11.726 0 16a15.88 15.88 0 0 0 4.043 10.631L.275 30.4a.94.94 0 0 0 0 1.326c.183.183.423.275.663.275s.48-.092.663-.275l3.77-3.768A15.88 15.88 0 0 0 16 32c4.274 0 8.292-1.664 11.314-4.686S32 20.274 32 16s-1.664-8.292-4.686-11.314zM16 30.125C8.212 30.125 1.875 23.8 1.875 16S8.212 1.875 16 1.875 30.125 8.2 30.125 16 23.8 30.125 16 30.125zm0-22.09a.94.94 0 0 0-.937.938v8.033a.94.94 0 0 0 .938.938.94.94 0 0 0 .938-.937V8.972A.94.94 0 0 0 16 8.034zm0 15.93a.94.94 0 0 0 .938-.937.94.94 0 0 0-.937-.937.94.94 0 0 0-.937.938.94.94 0 0 0 .938.938z"/></svg>